<svg width="1363" height="167" viewBox="0 0 1363 167" fill="none" xmlns="http://www.w3.org/2000/svg">
<rect width="1363" height="167" rx="15" fill="#F0F0F0"/>
<path d="M0 15C0 6.71573 6.71573 0 15 0H37V167H15C6.71573 167 0 160.284 0 152V15Z" fill="#424241"/>
<path d="M100.906 54.9219L93.3945 52.2383V49.0859L103.602 53.375V55.6367L100.906 54.9219ZM93.3945 57.1719L100.918 54.4297L103.602 53.7852V56.0352L93.3945 60.3242V57.1719ZM118.543 55.918H114.195V53.1758H118.543C119.215 53.1758 119.762 53.0664 120.184 52.8477C120.605 52.6211 120.914 52.3086 121.109 51.9102C121.305 51.5117 121.402 51.0625 121.402 50.5625C121.402 50.0547 121.305 49.582 121.109 49.1445C120.914 48.707 120.605 48.3555 120.184 48.0898C119.762 47.8242 119.215 47.6914 118.543 47.6914H115.414V62H111.898V44.9375H118.543C119.879 44.9375 121.023 45.1797 121.977 45.6641C122.938 46.1406 123.672 46.8008 124.18 47.6445C124.688 48.4883 124.941 49.4531 124.941 50.5391C124.941 51.6406 124.688 52.5938 124.18 53.3984C123.672 54.2031 122.938 54.8242 121.977 55.2617C121.023 55.6992 119.879 55.918 118.543 55.918ZM130.531 52.0859V62H127.156V49.3203H130.332L130.531 52.0859ZM134.352 49.2383L134.293 52.3672C134.129 52.3438 133.93 52.3242 133.695 52.3086C133.469 52.2852 133.262 52.2734 133.074 52.2734C132.598 52.2734 132.184 52.3359 131.832 52.4609C131.488 52.5781 131.199 52.7539 130.965 52.9883C130.738 53.2227 130.566 53.5078 130.449 53.8438C130.34 54.1797 130.277 54.5625 130.262 54.9922L129.582 54.7812C129.582 53.9609 129.664 53.207 129.828 52.5195C129.992 51.8242 130.23 51.2188 130.543 50.7031C130.863 50.1875 131.254 49.7891 131.715 49.5078C132.176 49.2266 132.703 49.0859 133.297 49.0859C133.484 49.0859 133.676 49.1016 133.871 49.1328C134.066 49.1562 134.227 49.1914 134.352 49.2383ZM135.055 55.7891V55.543C135.055 54.6133 135.188 53.7578 135.453 52.9766C135.719 52.1875 136.105 51.5039 136.613 50.9258C137.121 50.3477 137.746 49.8984 138.488 49.5781C139.23 49.25 140.082 49.0859 141.043 49.0859C142.004 49.0859 142.859 49.25 143.609 49.5781C144.359 49.8984 144.988 50.3477 145.496 50.9258C146.012 51.5039 146.402 52.1875 146.668 52.9766C146.934 53.7578 147.066 54.6133 147.066 55.543V55.7891C147.066 56.7109 146.934 57.5664 146.668 58.3555C146.402 59.1367 146.012 59.8203 145.496 60.4062C144.988 60.9844 144.363 61.4336 143.621 61.7539C142.879 62.0742 142.027 62.2344 141.066 62.2344C140.105 62.2344 139.25 62.0742 138.5 61.7539C137.758 61.4336 137.129 60.9844 136.613 60.4062C136.105 59.8203 135.719 59.1367 135.453 58.3555C135.188 57.5664 135.055 56.7109 135.055 55.7891ZM138.43 55.543V55.7891C138.43 56.3203 138.477 56.8164 138.57 57.2773C138.664 57.7383 138.812 58.1445 139.016 58.4961C139.227 58.8398 139.5 59.1094 139.836 59.3047C140.172 59.5 140.582 59.5977 141.066 59.5977C141.535 59.5977 141.938 59.5 142.273 59.3047C142.609 59.1094 142.879 58.8398 143.082 58.4961C143.285 58.1445 143.434 57.7383 143.527 57.2773C143.629 56.8164 143.68 56.3203 143.68 55.7891V55.543C143.68 55.0273 143.629 54.543 143.527 54.0898C143.434 53.6289 143.281 53.2227 143.07 52.8711C142.867 52.5117 142.598 52.2305 142.262 52.0273C141.926 51.8242 141.52 51.7227 141.043 51.7227C140.566 51.7227 140.16 51.8242 139.824 52.0273C139.496 52.2305 139.227 52.5117 139.016 52.8711C138.812 53.2227 138.664 53.6289 138.57 54.0898C138.477 54.543 138.43 55.0273 138.43 55.543ZM149.328 49.3203H152.715V62.7617C152.715 63.6992 152.543 64.4922 152.199 65.1406C151.855 65.7891 151.359 66.2812 150.711 66.6172C150.062 66.9531 149.277 67.1211 148.355 67.1211C148.066 67.1211 147.785 67.1055 147.512 67.0742C147.23 67.043 146.941 66.9922 146.645 66.9219L146.656 64.332C146.844 64.3633 147.027 64.3867 147.207 64.4023C147.379 64.4258 147.555 64.4375 147.734 64.4375C148.086 64.4375 148.379 64.3789 148.613 64.2617C148.848 64.1445 149.023 63.9609 149.141 63.7109C149.266 63.4688 149.328 63.1523 149.328 62.7617V49.3203ZM149.059 46.0156C149.059 45.5234 149.23 45.1172 149.574 44.7969C149.926 44.4766 150.387 44.3164 150.957 44.3164C151.535 44.3164 151.996 44.4766 152.34 44.7969C152.684 45.1172 152.855 45.5234 152.855 46.0156C152.855 46.5078 152.684 46.9141 152.34 47.2344C151.996 47.5547 151.535 47.7148 150.957 47.7148C150.387 47.7148 149.926 47.5547 149.574 47.2344C149.23 46.9141 149.059 46.5078 149.059 46.0156ZM161.234 62.2344C160.25 62.2344 159.367 62.0781 158.586 61.7656C157.805 61.4453 157.141 61.0039 156.594 60.4414C156.055 59.8789 155.641 59.2266 155.352 58.4844C155.062 57.7344 154.918 56.9375 154.918 56.0938V55.625C154.918 54.6641 155.055 53.7852 155.328 52.9883C155.602 52.1914 155.992 51.5 156.5 50.9141C157.016 50.3281 157.641 49.8789 158.375 49.5664C159.109 49.2461 159.938 49.0859 160.859 49.0859C161.758 49.0859 162.555 49.2344 163.25 49.5312C163.945 49.8281 164.527 50.25 164.996 50.7969C165.473 51.3438 165.832 52 166.074 52.7656C166.316 53.5234 166.438 54.3672 166.438 55.2969V56.7031H156.359V54.4531H163.121V54.1953C163.121 53.7266 163.035 53.3086 162.863 52.9414C162.699 52.5664 162.449 52.2695 162.113 52.0508C161.777 51.832 161.348 51.7227 160.824 51.7227C160.379 51.7227 159.996 51.8203 159.676 52.0156C159.355 52.2109 159.094 52.4844 158.891 52.8359C158.695 53.1875 158.547 53.6016 158.445 54.0781C158.352 54.5469 158.305 55.0625 158.305 55.625V56.0938C158.305 56.6016 158.375 57.0703 158.516 57.5C158.664 57.9297 158.871 58.3008 159.137 58.6133C159.41 58.9258 159.738 59.168 160.121 59.3398C160.512 59.5117 160.953 59.5977 161.445 59.5977C162.055 59.5977 162.621 59.4805 163.145 59.2461C163.676 59.0039 164.133 58.6406 164.516 58.1562L166.156 59.9375C165.891 60.3203 165.527 60.6875 165.066 61.0391C164.613 61.3906 164.066 61.6797 163.426 61.9062C162.785 62.125 162.055 62.2344 161.234 62.2344ZM173.598 59.5977C174.012 59.5977 174.379 59.5195 174.699 59.3633C175.02 59.1992 175.27 58.9727 175.449 58.6836C175.637 58.3867 175.734 58.0391 175.742 57.6406H178.918C178.91 58.5312 178.672 59.3242 178.203 60.0195C177.734 60.707 177.105 61.25 176.316 61.6484C175.527 62.0391 174.645 62.2344 173.668 62.2344C172.684 62.2344 171.824 62.0703 171.09 61.7422C170.363 61.4141 169.758 60.9609 169.273 60.3828C168.789 59.7969 168.426 59.1172 168.184 58.3438C167.941 57.5625 167.82 56.7266 167.82 55.8359V55.4961C167.82 54.5977 167.941 53.7617 168.184 52.9883C168.426 52.207 168.789 51.5273 169.273 50.9492C169.758 50.3633 170.363 49.9062 171.09 49.5781C171.816 49.25 172.668 49.0859 173.645 49.0859C174.684 49.0859 175.594 49.2852 176.375 49.6836C177.164 50.082 177.781 50.6523 178.227 51.3945C178.68 52.1289 178.91 53 178.918 54.0078H175.742C175.734 53.5859 175.645 53.2031 175.473 52.8594C175.309 52.5156 175.066 52.2422 174.746 52.0391C174.434 51.8281 174.047 51.7227 173.586 51.7227C173.094 51.7227 172.691 51.8281 172.379 52.0391C172.066 52.2422 171.824 52.5234 171.652 52.8828C171.48 53.2344 171.359 53.6367 171.289 54.0898C171.227 54.5352 171.195 55.0039 171.195 55.4961V55.8359C171.195 56.3281 171.227 56.8008 171.289 57.2539C171.352 57.707 171.469 58.1094 171.641 58.4609C171.82 58.8125 172.066 59.0898 172.379 59.293C172.691 59.4961 173.098 59.5977 173.598 59.5977ZM187.086 49.3203V51.7109H179.703V49.3203H187.086ZM181.531 46.1914H184.906V58.1797C184.906 58.5469 184.953 58.8281 185.047 59.0234C185.148 59.2188 185.297 59.3555 185.492 59.4336C185.688 59.5039 185.934 59.5391 186.23 59.5391C186.441 59.5391 186.629 59.5312 186.793 59.5156C186.965 59.4922 187.109 59.4688 187.227 59.4453L187.238 61.9297C186.949 62.0234 186.637 62.0977 186.301 62.1523C185.965 62.207 185.594 62.2344 185.188 62.2344C184.445 62.2344 183.797 62.1133 183.242 61.8711C182.695 61.6211 182.273 61.2227 181.977 60.6758C181.68 60.1289 181.531 59.4102 181.531 58.5195V46.1914ZM209.082 44.9375V62H205.566L198.711 50.5625V62H195.195V44.9375H198.711L205.578 56.3867V44.9375H209.082ZM218.773 59.1406V53.4922C218.773 53.0859 218.707 52.7383 218.574 52.4492C218.441 52.1523 218.234 51.9219 217.953 51.7578C217.68 51.5938 217.324 51.5117 216.887 51.5117C216.512 51.5117 216.188 51.5781 215.914 51.7109C215.641 51.8359 215.43 52.0195 215.281 52.2617C215.133 52.4961 215.059 52.7734 215.059 53.0938H211.684C211.684 52.5547 211.809 52.043 212.059 51.5586C212.309 51.0742 212.672 50.6484 213.148 50.2812C213.625 49.9062 214.191 49.6133 214.848 49.4023C215.512 49.1914 216.254 49.0859 217.074 49.0859C218.059 49.0859 218.934 49.25 219.699 49.5781C220.465 49.9062 221.066 50.3984 221.504 51.0547C221.949 51.7109 222.172 52.5312 222.172 53.5156V58.9414C222.172 59.6367 222.215 60.207 222.301 60.6523C222.387 61.0898 222.512 61.4727 222.676 61.8008V62H219.266C219.102 61.6562 218.977 61.2266 218.891 60.7109C218.812 60.1875 218.773 59.6641 218.773 59.1406ZM219.219 54.2773L219.242 56.1875H217.355C216.91 56.1875 216.523 56.2383 216.195 56.3398C215.867 56.4414 215.598 56.5859 215.387 56.7734C215.176 56.9531 215.02 57.1641 214.918 57.4062C214.824 57.6484 214.777 57.9141 214.777 58.2031C214.777 58.4922 214.844 58.7539 214.977 58.9883C215.109 59.2148 215.301 59.3945 215.551 59.5273C215.801 59.6523 216.094 59.7148 216.43 59.7148C216.938 59.7148 217.379 59.6133 217.754 59.4102C218.129 59.207 218.418 58.957 218.621 58.6602C218.832 58.3633 218.941 58.082 218.949 57.8164L219.84 59.2461C219.715 59.5664 219.543 59.8984 219.324 60.2422C219.113 60.5859 218.844 60.9102 218.516 61.2148C218.188 61.5117 217.793 61.7578 217.332 61.9531C216.871 62.1406 216.324 62.2344 215.691 62.2344C214.887 62.2344 214.156 62.0742 213.5 61.7539C212.852 61.4258 212.336 60.9766 211.953 60.4062C211.578 59.8281 211.391 59.1719 211.391 58.4375C211.391 57.7734 211.516 57.1836 211.766 56.668C212.016 56.1523 212.383 55.7188 212.867 55.3672C213.359 55.0078 213.973 54.7383 214.707 54.5586C215.441 54.3711 216.293 54.2773 217.262 54.2773H219.219ZM228.148 51.9453V62H224.762V49.3203H227.938L228.148 51.9453ZM227.68 55.2148H226.742C226.742 54.332 226.848 53.5195 227.059 52.7773C227.277 52.0273 227.594 51.3789 228.008 50.832C228.43 50.2773 228.949 49.8477 229.566 49.543C230.184 49.2383 230.898 49.0859 231.711 49.0859C232.273 49.0859 232.789 49.1719 233.258 49.3438C233.727 49.5078 234.129 49.7695 234.465 50.1289C234.809 50.4805 235.074 50.9414 235.262 51.5117C235.449 52.0742 235.543 52.75 235.543 53.5391V62H232.168V53.9141C232.168 53.3359 232.09 52.8906 231.934 52.5781C231.777 52.2656 231.555 52.0469 231.266 51.9219C230.984 51.7969 230.645 51.7344 230.246 51.7344C229.809 51.7344 229.426 51.8242 229.098 52.0039C228.777 52.1836 228.512 52.4336 228.301 52.7539C228.09 53.0664 227.934 53.4336 227.832 53.8555C227.73 54.2773 227.68 54.7305 227.68 55.2148ZM235.227 54.8281L234.02 54.9805C234.02 54.1523 234.121 53.3828 234.324 52.6719C234.535 51.9609 234.844 51.3359 235.25 50.7969C235.664 50.2578 236.176 49.8398 236.785 49.543C237.395 49.2383 238.098 49.0859 238.895 49.0859C239.504 49.0859 240.059 49.1758 240.559 49.3555C241.059 49.5273 241.484 49.8047 241.836 50.1875C242.195 50.5625 242.469 51.0547 242.656 51.6641C242.852 52.2734 242.949 53.0195 242.949 53.9023V62H239.562V53.9023C239.562 53.3164 239.484 52.8711 239.328 52.5664C239.18 52.2539 238.961 52.0391 238.672 51.9219C238.391 51.7969 238.055 51.7344 237.664 51.7344C237.258 51.7344 236.902 51.8164 236.598 51.9805C236.293 52.1367 236.039 52.3555 235.836 52.6367C235.633 52.918 235.48 53.2461 235.379 53.6211C235.277 53.9883 235.227 54.3906 235.227 54.8281ZM251.398 62.2344C250.414 62.2344 249.531 62.0781 248.75 61.7656C247.969 61.4453 247.305 61.0039 246.758 60.4414C246.219 59.8789 245.805 59.2266 245.516 58.4844C245.227 57.7344 245.082 56.9375 245.082 56.0938V55.625C245.082 54.6641 245.219 53.7852 245.492 52.9883C245.766 52.1914 246.156 51.5 246.664 50.9141C247.18 50.3281 247.805 49.8789 248.539 49.5664C249.273 49.2461 250.102 49.0859 251.023 49.0859C251.922 49.0859 252.719 49.2344 253.414 49.5312C254.109 49.8281 254.691 50.25 255.16 50.7969C255.637 51.3438 255.996 52 256.238 52.7656C256.48 53.5234 256.602 54.3672 256.602 55.2969V56.7031H246.523V54.4531H253.285V54.1953C253.285 53.7266 253.199 53.3086 253.027 52.9414C252.863 52.5664 252.613 52.2695 252.277 52.0508C251.941 51.832 251.512 51.7227 250.988 51.7227C250.543 51.7227 250.16 51.8203 249.84 52.0156C249.52 52.2109 249.258 52.4844 249.055 52.8359C248.859 53.1875 248.711 53.6016 248.609 54.0781C248.516 54.5469 248.469 55.0625 248.469 55.625V56.0938C248.469 56.6016 248.539 57.0703 248.68 57.5C248.828 57.9297 249.035 58.3008 249.301 58.6133C249.574 58.9258 249.902 59.168 250.285 59.3398C250.676 59.5117 251.117 59.5977 251.609 59.5977C252.219 59.5977 252.785 59.4805 253.309 59.2461C253.84 59.0039 254.297 58.6406 254.68 58.1562L256.32 59.9375C256.055 60.3203 255.691 60.6875 255.23 61.0391C254.777 61.3906 254.23 61.6797 253.59 61.9062C252.949 62.125 252.219 62.2344 251.398 62.2344Z" fill="#888888"/>
<path d="M101.822 112.1L108.194 83.0078H111.995L114.061 85.4907L107.271 115H103.074L101.822 112.1ZM100.13 83.0078L105.513 112.319L104.129 115H99.2729L92.4834 83.0078H100.13ZM117.554 112.166L122.894 83.0078H130.518L123.729 115H118.895L117.554 112.166ZM114.742 83.0078L121.268 112.275L119.949 115H115.752L108.809 85.4468L110.962 83.0078H114.742ZM141.021 91.2256V115H133.594V91.2256H141.021ZM133.155 85.0952C133.155 84.0405 133.536 83.1763 134.297 82.5024C135.059 81.8286 136.048 81.4917 137.264 81.4917C138.479 81.4917 139.468 81.8286 140.23 82.5024C140.992 83.1763 141.373 84.0405 141.373 85.0952C141.373 86.1499 140.992 87.0142 140.23 87.688C139.468 88.3618 138.479 88.6987 137.264 88.6987C136.048 88.6987 135.059 88.3618 134.297 87.688C133.536 87.0142 133.155 86.1499 133.155 85.0952ZM153.062 97.1143V115H145.657V91.2256H152.579L153.062 97.1143ZM160.093 91.0498L159.961 97.9272C159.668 97.8979 159.273 97.8613 158.775 97.8174C158.277 97.7734 157.859 97.7515 157.522 97.7515C156.658 97.7515 155.911 97.854 155.281 98.0591C154.666 98.2495 154.153 98.5425 153.743 98.938C153.348 99.3188 153.055 99.8022 152.864 100.388C152.688 100.974 152.608 101.655 152.623 102.432L151.282 101.553C151.282 99.9561 151.436 98.5059 151.744 97.2021C152.066 95.8838 152.52 94.7485 153.106 93.7964C153.692 92.8296 154.402 92.0898 155.237 91.5771C156.072 91.0498 157.01 90.7861 158.05 90.7861C158.416 90.7861 158.775 90.8081 159.126 90.8521C159.493 90.896 159.815 90.9619 160.093 91.0498ZM173.716 115.439C171.783 115.439 170.054 115.139 168.531 114.539C167.007 113.923 165.718 113.081 164.664 112.012C163.624 110.942 162.825 109.712 162.269 108.32C161.727 106.929 161.456 105.457 161.456 103.904V103.069C161.456 101.326 161.697 99.7144 162.181 98.2349C162.664 96.7407 163.382 95.437 164.334 94.3237C165.286 93.2104 166.48 92.3462 167.916 91.731C169.351 91.1011 171.021 90.7861 172.925 90.7861C174.61 90.7861 176.119 91.0571 177.452 91.5991C178.785 92.1411 179.913 92.9175 180.835 93.9282C181.773 94.939 182.483 96.1621 182.967 97.5977C183.465 99.0332 183.714 100.645 183.714 102.432V105.442H164.29V100.806H176.485V100.234C176.5 99.4434 176.36 98.7695 176.067 98.2129C175.789 97.6562 175.379 97.2314 174.837 96.9385C174.295 96.6455 173.636 96.499 172.859 96.499C172.054 96.499 171.387 96.6748 170.86 97.0264C170.347 97.3779 169.944 97.8613 169.651 98.4766C169.373 99.0771 169.175 99.7729 169.058 100.564C168.941 101.355 168.882 102.19 168.882 103.069V103.904C168.882 104.783 169 105.581 169.234 106.299C169.483 107.017 169.834 107.632 170.289 108.145C170.757 108.643 171.314 109.031 171.958 109.309C172.618 109.587 173.365 109.727 174.2 109.727C175.21 109.727 176.207 109.536 177.188 109.155C178.169 108.774 179.012 108.145 179.715 107.266L183.077 111.265C182.593 111.953 181.905 112.62 181.011 113.264C180.132 113.909 179.078 114.436 177.847 114.846C176.617 115.242 175.24 115.439 173.716 115.439ZM195.799 115H188.35V89.292C188.35 87.4463 188.724 85.8936 189.471 84.6338C190.218 83.374 191.272 82.4219 192.635 81.7773C193.997 81.1182 195.608 80.7886 197.469 80.7886C198.113 80.7886 198.721 80.8325 199.292 80.9204C199.864 81.0083 200.42 81.1182 200.962 81.25L200.984 86.6992C200.721 86.626 200.45 86.5747 200.171 86.5454C199.893 86.5161 199.549 86.5015 199.139 86.5015C198.421 86.5015 197.813 86.6113 197.315 86.8311C196.817 87.0361 196.436 87.3511 196.172 87.7759C195.923 88.186 195.799 88.6914 195.799 89.292V115ZM200.413 91.2256V96.3672H184.922V91.2256H200.413ZM210.542 97.1143V115H203.138V91.2256H210.059L210.542 97.1143ZM217.574 91.0498L217.442 97.9272C217.149 97.8979 216.753 97.8613 216.255 97.8174C215.757 97.7734 215.34 97.7515 215.003 97.7515C214.139 97.7515 213.392 97.854 212.762 98.0591C212.146 98.2495 211.634 98.5425 211.224 98.938C210.828 99.3188 210.535 99.8022 210.345 100.388C210.169 100.974 210.088 101.655 210.103 102.432L208.763 101.553C208.763 99.9561 208.917 98.5059 209.224 97.2021C209.546 95.8838 210 94.7485 210.586 93.7964C211.172 92.8296 211.883 92.0898 212.718 91.5771C213.553 91.0498 214.49 90.7861 215.53 90.7861C215.896 90.7861 216.255 90.8081 216.607 90.8521C216.973 90.896 217.295 90.9619 217.574 91.0498ZM231.812 109.023V99.2236C231.812 98.5498 231.717 97.9712 231.526 97.4878C231.336 97.0044 231.036 96.6309 230.625 96.3672C230.215 96.0889 229.666 95.9497 228.978 95.9497C228.421 95.9497 227.945 96.0449 227.549 96.2354C227.154 96.4258 226.854 96.7114 226.648 97.0923C226.443 97.4731 226.341 97.9565 226.341 98.5425H218.936C218.936 97.4438 219.178 96.4258 219.661 95.4883C220.159 94.5361 220.862 93.7085 221.771 93.0054C222.693 92.3022 223.792 91.7603 225.066 91.3794C226.355 90.9839 227.791 90.7861 229.373 90.7861C231.263 90.7861 232.947 91.1011 234.427 91.731C235.921 92.3608 237.1 93.3057 237.964 94.5654C238.829 95.8105 239.261 97.3779 239.261 99.2676V109.001C239.261 110.554 239.349 111.733 239.524 112.539C239.7 113.33 239.949 114.026 240.271 114.626V115H232.845C232.493 114.268 232.229 113.374 232.054 112.319C231.893 111.25 231.812 110.151 231.812 109.023ZM232.713 100.476L232.757 104.431H229.483C228.794 104.431 228.208 104.526 227.725 104.717C227.256 104.907 226.875 105.171 226.583 105.508C226.304 105.83 226.099 106.196 225.967 106.606C225.85 107.017 225.792 107.449 225.792 107.903C225.792 108.342 225.894 108.738 226.099 109.089C226.319 109.426 226.612 109.69 226.978 109.88C227.344 110.071 227.754 110.166 228.208 110.166C229.029 110.166 229.725 110.012 230.296 109.705C230.882 109.382 231.329 108.994 231.636 108.54C231.944 108.086 232.098 107.661 232.098 107.266L233.724 110.298C233.431 110.884 233.094 111.477 232.713 112.078C232.347 112.678 231.885 113.235 231.329 113.748C230.787 114.246 230.12 114.656 229.329 114.978C228.538 115.286 227.579 115.439 226.451 115.439C224.986 115.439 223.638 115.139 222.408 114.539C221.192 113.938 220.218 113.103 219.485 112.034C218.753 110.95 218.387 109.705 218.387 108.298C218.387 107.068 218.606 105.969 219.046 105.002C219.5 104.036 220.181 103.215 221.089 102.542C221.998 101.868 223.155 101.355 224.561 101.003C225.967 100.652 227.623 100.476 229.527 100.476H232.713ZM250.84 96.2573V115H243.436V91.2256H250.379L250.84 96.2573ZM249.939 102.3L248.248 102.344C248.248 100.674 248.445 99.1357 248.841 97.7295C249.236 96.3232 249.822 95.1001 250.599 94.0601C251.375 93.02 252.327 92.2144 253.455 91.6431C254.598 91.0718 255.916 90.7861 257.41 90.7861C258.45 90.7861 259.395 90.9473 260.245 91.2695C261.094 91.5771 261.827 92.0679 262.442 92.7417C263.057 93.4009 263.526 94.2651 263.848 95.3345C264.185 96.3892 264.354 97.6562 264.354 99.1357V115H256.949V100.081C256.949 99.0698 256.832 98.3081 256.597 97.7954C256.377 97.2827 256.055 96.9385 255.63 96.7627C255.206 96.5869 254.686 96.499 254.07 96.499C253.426 96.499 252.847 96.6455 252.334 96.9385C251.822 97.2314 251.382 97.6416 251.016 98.1689C250.665 98.6816 250.394 99.2896 250.203 99.9927C250.027 100.696 249.939 101.465 249.939 102.3ZM263.519 102.3L261.453 102.344C261.453 100.674 261.636 99.1357 262.002 97.7295C262.383 96.3232 262.947 95.1001 263.694 94.0601C264.456 93.02 265.401 92.2144 266.529 91.6431C267.657 91.0718 268.968 90.7861 270.462 90.7861C271.546 90.7861 272.542 90.9473 273.45 91.2695C274.358 91.5918 275.142 92.1118 275.801 92.8296C276.46 93.5474 276.973 94.4995 277.339 95.686C277.706 96.8579 277.889 98.3081 277.889 100.037V115H270.462V100.037C270.462 99.0552 270.345 98.3154 270.11 97.8174C269.891 97.3047 269.568 96.9604 269.144 96.7847C268.719 96.5942 268.213 96.499 267.627 96.499C266.924 96.499 266.316 96.6455 265.804 96.9385C265.291 97.2314 264.859 97.6416 264.507 98.1689C264.17 98.6816 263.921 99.2896 263.76 99.9927C263.599 100.696 263.519 101.465 263.519 102.3ZM293.643 115.439C291.709 115.439 289.981 115.139 288.458 114.539C286.934 113.923 285.645 113.081 284.59 112.012C283.55 110.942 282.752 109.712 282.195 108.32C281.653 106.929 281.382 105.457 281.382 103.904V103.069C281.382 101.326 281.624 99.7144 282.107 98.2349C282.591 96.7407 283.309 95.437 284.261 94.3237C285.213 93.2104 286.407 92.3462 287.842 91.731C289.278 91.1011 290.948 90.7861 292.852 90.7861C294.537 90.7861 296.045 91.0571 297.378 91.5991C298.711 92.1411 299.839 92.9175 300.762 93.9282C301.7 94.939 302.41 96.1621 302.894 97.5977C303.392 99.0332 303.641 100.645 303.641 102.432V105.442H284.217V100.806H296.412V100.234C296.426 99.4434 296.287 98.7695 295.994 98.2129C295.716 97.6562 295.306 97.2314 294.764 96.9385C294.222 96.6455 293.562 96.499 292.786 96.499C291.98 96.499 291.314 96.6748 290.787 97.0264C290.274 97.3779 289.871 97.8613 289.578 98.4766C289.3 99.0771 289.102 99.7729 288.985 100.564C288.868 101.355 288.809 102.19 288.809 103.069V103.904C288.809 104.783 288.926 105.581 289.161 106.299C289.41 107.017 289.761 107.632 290.215 108.145C290.684 108.643 291.241 109.031 291.885 109.309C292.544 109.587 293.292 109.727 294.126 109.727C295.137 109.727 296.133 109.536 297.115 109.155C298.096 108.774 298.938 108.145 299.642 107.266L303.003 111.265C302.52 111.953 301.832 112.62 300.938 113.264C300.059 113.909 299.004 114.436 297.774 114.846C296.543 115.242 295.167 115.439 293.643 115.439ZM319.109 108.32C319.109 107.91 318.97 107.559 318.692 107.266C318.428 106.958 317.959 106.68 317.286 106.431C316.612 106.167 315.667 105.903 314.451 105.64C313.294 105.391 312.203 105.061 311.177 104.651C310.167 104.241 309.28 103.743 308.519 103.157C307.757 102.571 307.156 101.875 306.717 101.069C306.292 100.264 306.08 99.3408 306.08 98.3008C306.08 97.29 306.292 96.3379 306.717 95.4443C307.156 94.5361 307.793 93.7378 308.628 93.0493C309.478 92.3462 310.511 91.7969 311.727 91.4014C312.942 90.9912 314.327 90.7861 315.879 90.7861C318.018 90.7861 319.864 91.1157 321.417 91.7749C322.969 92.4194 324.163 93.3276 324.998 94.4995C325.848 95.6567 326.272 96.9971 326.272 98.5205H318.868C318.868 97.9199 318.765 97.4072 318.56 96.9824C318.37 96.5576 318.055 96.2354 317.615 96.0156C317.176 95.7812 316.59 95.6641 315.857 95.6641C315.345 95.6641 314.876 95.7593 314.451 95.9497C314.041 96.1401 313.711 96.4038 313.462 96.7407C313.213 97.0776 313.089 97.4731 313.089 97.9272C313.089 98.2495 313.162 98.5425 313.309 98.8062C313.47 99.0552 313.711 99.2896 314.034 99.5093C314.356 99.7144 314.766 99.9048 315.264 100.081C315.762 100.242 316.363 100.388 317.066 100.52C318.663 100.813 320.157 101.23 321.548 101.772C322.94 102.314 324.068 103.083 324.932 104.08C325.811 105.076 326.25 106.416 326.25 108.101C326.25 109.155 326.009 110.129 325.525 111.023C325.042 111.902 324.346 112.678 323.438 113.352C322.53 114.011 321.438 114.524 320.164 114.89C318.89 115.256 317.454 115.439 315.857 115.439C313.587 115.439 311.668 115.037 310.101 114.231C308.533 113.411 307.347 112.385 306.541 111.155C305.75 109.91 305.354 108.65 305.354 107.375H312.254C312.283 108.108 312.459 108.708 312.781 109.177C313.118 109.646 313.565 109.99 314.122 110.21C314.678 110.43 315.323 110.54 316.055 110.54C316.729 110.54 317.286 110.444 317.725 110.254C318.179 110.063 318.523 109.807 318.758 109.485C318.992 109.148 319.109 108.76 319.109 108.32Z" fill="#424241"/>
<path d="M1363 15C1363 6.71573 1356.28 0 1348 0H1134V167H1348C1356.28 167 1363 160.284 1363 152V15Z" fill="#00DD02"/>
<path fill-rule="evenodd" clip-rule="evenodd" d="M1203 49C1203 47.8954 1203.9 47 1205 47H1292.5C1293.6 47 1294.5 47.8954 1294.5 49V118.996C1294.5 120.101 1293.6 120.996 1292.5 120.996H1205C1203.9 120.996 1203 120.101 1203 118.996V49ZM1207 51V55.4945H1290.5V51H1207ZM1290.5 59.4945H1235.44V116.996H1290.5V59.4945ZM1231.44 116.996V59.4945H1207V116.996H1231.44Z" fill="white"/>
<path fill-rule="evenodd" clip-rule="evenodd" d="M1209.97 64.8003C1209.97 63.6957 1210.87 62.8003 1211.97 62.8003H1225.97C1227.08 62.8003 1227.97 63.6957 1227.97 64.8003V84.1955C1227.97 85.3001 1227.08 86.1955 1225.97 86.1955H1211.97C1210.87 86.1955 1209.97 85.3001 1209.97 84.1955V64.8003ZM1213.97 66.8003V82.1955H1223.97V66.8003H1213.97ZM1239.58 65.6963C1239.58 64.5917 1240.47 63.6963 1241.58 63.6963H1284.5C1285.61 63.6963 1286.5 64.5917 1286.5 65.6963V111.905C1286.5 113.009 1285.61 113.905 1284.5 113.905H1241.58C1240.47 113.905 1239.58 113.009 1239.58 111.905V65.6963ZM1243.58 67.6963V109.905H1282.5V67.6963H1243.58ZM1209.81 95.9362C1209.81 94.8316 1210.71 93.9362 1211.81 93.9362H1220.73C1221.84 93.9362 1222.73 94.8316 1222.73 95.9362C1222.73 97.0408 1221.84 97.9362 1220.73 97.9362H1211.81C1210.71 97.9362 1209.81 97.0408 1209.81 95.9362ZM1209.81 102.936C1209.81 101.832 1210.71 100.936 1211.81 100.936H1226.35C1227.46 100.936 1228.35 101.832 1228.35 102.936C1228.35 104.041 1227.46 104.936 1226.35 104.936H1211.81C1210.71 104.936 1209.81 104.041 1209.81 102.936ZM1209.81 109.936C1209.81 108.832 1210.71 107.936 1211.81 107.936H1220.73C1221.84 107.936 1222.73 108.832 1222.73 109.936C1222.73 111.041 1221.84 111.936 1220.73 111.936H1211.81C1210.71 111.936 1209.81 111.041 1209.81 109.936Z" fill="white"/>
</svg>
