<svg width="1363" height="301" viewBox="0 0 1363 301" fill="none" xmlns="http://www.w3.org/2000/svg">
<rect width="1363" height="301" rx="15" fill="#F0F0F0"/>
<path d="M0 15C0 6.71573 6.71573 0 15 0H37V301H15C6.71573 301 0 294.284 0 286V15Z" fill="#00DD02"/>
<path d="M104.288 72.3608V55.1172H109.397V72.3608C109.397 74.0243 109.033 75.4541 108.304 76.6504C107.575 77.8353 106.578 78.7467 105.313 79.3848C104.06 80.0228 102.647 80.3418 101.075 80.3418C99.4455 80.3418 98.0042 80.0684 96.751 79.5215C95.4977 78.9746 94.5122 78.1372 93.7944 77.0093C93.0767 75.87 92.7178 74.4287 92.7178 72.6855H97.8618C97.8618 73.597 97.9871 74.3205 98.2378 74.856C98.4998 75.3914 98.8701 75.7731 99.3486 76.001C99.8271 76.2288 100.403 76.3428 101.075 76.3428C101.724 76.3428 102.288 76.189 102.767 75.8813C103.245 75.5737 103.615 75.1237 103.877 74.5312C104.151 73.9388 104.288 73.2153 104.288 72.3608ZM124.402 75.5737V61.5088H129.324V80H124.693L124.402 75.5737ZM124.949 71.7798L126.402 71.7456C126.402 72.9761 126.259 74.1211 125.975 75.1807C125.69 76.2288 125.263 77.1403 124.693 77.915C124.123 78.6784 123.405 79.2765 122.54 79.7095C121.674 80.131 120.654 80.3418 119.48 80.3418C118.58 80.3418 117.749 80.2165 116.985 79.9658C116.233 79.7038 115.584 79.2993 115.037 78.7524C114.502 78.1942 114.08 77.4821 113.772 76.6162C113.476 75.7389 113.328 74.6851 113.328 73.4546V61.5088H118.25V73.4888C118.25 74.0356 118.313 74.4971 118.438 74.873C118.575 75.249 118.763 75.5566 119.002 75.7959C119.241 76.0352 119.52 76.2061 119.839 76.3086C120.17 76.4111 120.534 76.4624 120.933 76.4624C121.947 76.4624 122.745 76.2573 123.326 75.8472C123.918 75.437 124.334 74.8787 124.573 74.1724C124.824 73.4546 124.949 72.6571 124.949 71.7798ZM138.279 53.75V80H133.34V53.75H138.279ZM147.542 61.5088V80H142.603V61.5088H147.542ZM142.295 56.6895C142.295 55.9717 142.546 55.3792 143.047 54.9121C143.549 54.445 144.221 54.2114 145.064 54.2114C145.896 54.2114 146.562 54.445 147.063 54.9121C147.576 55.3792 147.833 55.9717 147.833 56.6895C147.833 57.4072 147.576 57.9997 147.063 58.4668C146.562 58.9339 145.896 59.1675 145.064 59.1675C144.221 59.1675 143.549 58.9339 143.047 58.4668C142.546 57.9997 142.295 57.4072 142.295 56.6895ZM160.12 80.3418C158.685 80.3418 157.397 80.1139 156.258 79.6582C155.118 79.1911 154.15 78.5474 153.353 77.7271C152.566 76.9067 151.963 75.9554 151.541 74.873C151.119 73.7793 150.909 72.6172 150.909 71.3867V70.7031C150.909 69.3018 151.108 68.02 151.507 66.8579C151.906 65.6958 152.475 64.6875 153.216 63.833C153.968 62.9785 154.879 62.3234 155.95 61.8677C157.021 61.4006 158.229 61.167 159.573 61.167C160.883 61.167 162.046 61.3835 163.06 61.8164C164.074 62.2493 164.922 62.8646 165.606 63.6621C166.301 64.4596 166.825 65.4167 167.178 66.5332C167.531 67.6383 167.708 68.8688 167.708 70.2246V72.2754H153.011V68.9941H162.872V68.6182C162.872 67.9346 162.746 67.325 162.496 66.7896C162.256 66.2427 161.892 65.8097 161.402 65.4907C160.912 65.1717 160.285 65.0122 159.522 65.0122C158.873 65.0122 158.314 65.1546 157.847 65.4395C157.38 65.7243 156.998 66.123 156.702 66.6357C156.417 67.1484 156.201 67.7523 156.053 68.4473C155.916 69.1309 155.848 69.8828 155.848 70.7031V71.3867C155.848 72.1273 155.95 72.8109 156.155 73.4375C156.372 74.0641 156.674 74.6053 157.061 75.061C157.46 75.5168 157.938 75.87 158.497 76.1206C159.066 76.3713 159.71 76.4966 160.428 76.4966C161.316 76.4966 162.142 76.3257 162.906 75.9839C163.681 75.6307 164.347 75.1009 164.905 74.3945L167.298 76.9922C166.91 77.5505 166.381 78.0859 165.708 78.5986C165.048 79.1113 164.25 79.5329 163.316 79.8633C162.382 80.1823 161.316 80.3418 160.12 80.3418ZM175.33 65.4565V80H170.408V61.5088H175.022L175.33 65.4565ZM174.612 70.105H173.279C173.279 68.7378 173.456 67.5073 173.809 66.4136C174.162 65.3084 174.658 64.3685 175.296 63.5938C175.934 62.8076 176.692 62.2095 177.569 61.7993C178.458 61.3778 179.449 61.167 180.542 61.167C181.408 61.167 182.2 61.2923 182.918 61.543C183.636 61.7936 184.251 62.1924 184.764 62.7393C185.288 63.2861 185.687 64.0096 185.96 64.9097C186.245 65.8097 186.387 66.9092 186.387 68.208V80H181.431V68.1909C181.431 67.3706 181.317 66.7326 181.089 66.2769C180.861 65.8211 180.525 65.5021 180.081 65.3198C179.648 65.1261 179.113 65.0293 178.475 65.0293C177.814 65.0293 177.238 65.1603 176.749 65.4224C176.27 65.6844 175.871 66.049 175.552 66.5161C175.245 66.9718 175.011 67.5073 174.852 68.1226C174.692 68.7378 174.612 69.3986 174.612 70.105ZM215.748 65.2515V69.2505H202.759V65.2515H215.748ZM204.28 55.1172V80H199.153V55.1172H204.28ZM219.405 55.1172V80H214.295V55.1172H219.405ZM222.771 70.9424V70.5835C222.771 69.2277 222.965 67.9801 223.353 66.8408C223.74 65.6901 224.304 64.6932 225.044 63.8501C225.785 63.007 226.696 62.3519 227.779 61.8848C228.861 61.4062 230.103 61.167 231.504 61.167C232.906 61.167 234.153 61.4062 235.247 61.8848C236.341 62.3519 237.258 63.007 237.999 63.8501C238.75 64.6932 239.32 65.6901 239.708 66.8408C240.095 67.9801 240.289 69.2277 240.289 70.5835V70.9424C240.289 72.2868 240.095 73.5343 239.708 74.6851C239.32 75.8244 238.75 76.8213 237.999 77.6758C237.258 78.5189 236.347 79.174 235.264 79.6411C234.182 80.1082 232.94 80.3418 231.539 80.3418C230.137 80.3418 228.89 80.1082 227.796 79.6411C226.714 79.174 225.796 78.5189 225.044 77.6758C224.304 76.8213 223.74 75.8244 223.353 74.6851C222.965 73.5343 222.771 72.2868 222.771 70.9424ZM227.693 70.5835V70.9424C227.693 71.7171 227.762 72.4406 227.898 73.1128C228.035 73.785 228.252 74.3774 228.548 74.8901C228.855 75.3914 229.254 75.7845 229.744 76.0693C230.234 76.3542 230.832 76.4966 231.539 76.4966C232.222 76.4966 232.809 76.3542 233.299 76.0693C233.789 75.7845 234.182 75.3914 234.478 74.8901C234.774 74.3774 234.991 73.785 235.127 73.1128C235.276 72.4406 235.35 71.7171 235.35 70.9424V70.5835C235.35 69.8315 235.276 69.1252 235.127 68.4644C234.991 67.7922 234.769 67.1997 234.461 66.687C234.165 66.1629 233.772 65.7528 233.282 65.4565C232.792 65.1603 232.199 65.0122 231.504 65.0122C230.809 65.0122 230.217 65.1603 229.727 65.4565C229.249 65.7528 228.855 66.1629 228.548 66.687C228.252 67.1997 228.035 67.7922 227.898 68.4644C227.762 69.1252 227.693 69.8315 227.693 70.5835ZM253.311 74.8901C253.311 74.5369 253.208 74.2179 253.003 73.9331C252.798 73.6483 252.417 73.3862 251.858 73.147C251.312 72.8963 250.52 72.6685 249.483 72.4634C248.549 72.2583 247.677 72.002 246.868 71.6943C246.071 71.3753 245.376 70.9937 244.783 70.5493C244.202 70.105 243.746 69.5809 243.416 68.9771C243.086 68.3618 242.92 67.6611 242.92 66.875C242.92 66.1003 243.086 65.3711 243.416 64.6875C243.758 64.0039 244.242 63.4001 244.869 62.876C245.507 62.3405 246.281 61.9246 247.193 61.6284C248.116 61.3208 249.153 61.167 250.303 61.167C251.91 61.167 253.288 61.4233 254.439 61.936C255.601 62.4487 256.49 63.1551 257.105 64.0552C257.732 64.9438 258.045 65.9578 258.045 67.0972H253.123C253.123 66.6187 253.021 66.1914 252.815 65.8154C252.622 65.4281 252.314 65.1261 251.893 64.9097C251.482 64.6818 250.947 64.5679 250.286 64.5679C249.739 64.5679 249.266 64.6647 248.868 64.8584C248.469 65.0407 248.161 65.2913 247.945 65.6104C247.74 65.918 247.637 66.2598 247.637 66.6357C247.637 66.9206 247.694 67.1769 247.808 67.4048C247.933 67.6213 248.133 67.8206 248.406 68.0029C248.68 68.1852 249.033 68.3561 249.466 68.5156C249.91 68.6637 250.457 68.8005 251.106 68.9258C252.439 69.1992 253.63 69.5581 254.678 70.0024C255.726 70.4354 256.558 71.0278 257.173 71.7798C257.789 72.5203 258.096 73.4945 258.096 74.7021C258.096 75.5225 257.914 76.2744 257.549 76.958C257.185 77.6416 256.661 78.2397 255.977 78.7524C255.293 79.2537 254.473 79.6468 253.516 79.9316C252.57 80.2051 251.505 80.3418 250.32 80.3418C248.6 80.3418 247.142 80.0342 245.945 79.4189C244.76 78.8037 243.86 78.0233 243.245 77.0776C242.641 76.1206 242.339 75.1408 242.339 74.1382H247.005C247.028 74.8104 247.199 75.3516 247.518 75.7617C247.848 76.1719 248.264 76.4681 248.765 76.6504C249.278 76.8327 249.83 76.9238 250.423 76.9238C251.061 76.9238 251.591 76.8384 252.012 76.6675C252.434 76.4852 252.753 76.2459 252.969 75.9497C253.197 75.6421 253.311 75.2889 253.311 74.8901ZM266.214 65.542V80H261.292V61.5088H265.923L266.214 65.542ZM271.785 61.3892L271.7 65.9521C271.46 65.918 271.17 65.8895 270.828 65.8667C270.498 65.8325 270.196 65.8154 269.922 65.8154C269.227 65.8154 268.624 65.9066 268.111 66.0889C267.61 66.2598 267.188 66.5161 266.846 66.8579C266.516 67.1997 266.265 67.6156 266.094 68.1055C265.935 68.5954 265.844 69.1536 265.821 69.7803L264.83 69.4727C264.83 68.2764 264.949 67.1769 265.188 66.1743C265.428 65.1603 265.775 64.2773 266.231 63.5254C266.698 62.7734 267.268 62.1924 267.94 61.7822C268.612 61.3721 269.381 61.167 270.247 61.167C270.521 61.167 270.8 61.1898 271.084 61.2354C271.369 61.2695 271.603 61.3208 271.785 61.3892ZM279.305 61.5088V80H274.366V61.5088H279.305ZM274.058 56.6895C274.058 55.9717 274.309 55.3792 274.81 54.9121C275.311 54.445 275.984 54.2114 276.827 54.2114C277.658 54.2114 278.325 54.445 278.826 54.9121C279.339 55.3792 279.595 55.9717 279.595 56.6895C279.595 57.4072 279.339 57.9997 278.826 58.4668C278.325 58.9339 277.658 59.1675 276.827 59.1675C275.984 59.1675 275.311 58.9339 274.81 58.4668C274.309 57.9997 274.058 57.4072 274.058 56.6895Z" fill="#888888"/>
<path d="M110.584 130.733H100.862V123.456H110.584C111.909 123.456 112.983 123.232 113.807 122.784C114.63 122.337 115.23 121.719 115.606 120.931C116 120.125 116.197 119.221 116.197 118.219C116.197 117.145 116 116.151 115.606 115.238C115.23 114.325 114.63 113.591 113.807 113.036C112.983 112.463 111.909 112.176 110.584 112.176H104.407V144H94.981V104.898H110.584C113.717 104.898 116.412 105.471 118.667 106.617C120.941 107.763 122.687 109.339 123.904 111.344C125.122 113.331 125.73 115.605 125.73 118.165C125.73 120.689 125.122 122.892 123.904 124.771C122.687 126.651 120.941 128.119 118.667 129.176C116.412 130.214 113.717 130.733 110.584 130.733ZM139.507 122.14V144H130.457V114.942H138.917L139.507 122.14ZM148.101 114.728L147.94 123.133C147.582 123.097 147.098 123.053 146.49 122.999C145.881 122.945 145.371 122.918 144.959 122.918C143.903 122.918 142.99 123.044 142.22 123.294C141.468 123.527 140.841 123.885 140.34 124.369C139.856 124.834 139.498 125.425 139.266 126.141C139.051 126.857 138.952 127.69 138.97 128.639L137.332 127.564C137.332 125.613 137.52 123.84 137.896 122.247C138.29 120.636 138.845 119.248 139.561 118.084C140.277 116.903 141.146 115.999 142.166 115.372C143.187 114.728 144.332 114.405 145.604 114.405C146.051 114.405 146.49 114.432 146.919 114.486C147.367 114.54 147.761 114.62 148.101 114.728ZM149.122 129.767V129.203C149.122 127.072 149.426 125.112 150.035 123.321C150.643 121.513 151.539 119.946 152.72 118.622C153.902 117.297 155.361 116.267 157.098 115.533C158.834 114.781 160.84 114.405 163.113 114.405C165.405 114.405 167.419 114.781 169.156 115.533C170.91 116.267 172.378 117.297 173.56 118.622C174.742 119.946 175.637 121.513 176.246 123.321C176.854 125.112 177.159 127.072 177.159 129.203V129.767C177.159 131.879 176.854 133.84 176.246 135.648C175.637 137.438 174.742 139.005 173.56 140.348C172.378 141.673 170.919 142.702 169.183 143.436C167.446 144.17 165.441 144.537 163.167 144.537C160.893 144.537 158.879 144.17 157.125 143.436C155.37 142.702 153.902 141.673 152.72 140.348C151.539 139.005 150.643 137.438 150.035 135.648C149.426 133.84 149.122 131.879 149.122 129.767ZM158.172 129.203V129.767C158.172 130.859 158.252 131.879 158.414 132.828C158.575 133.777 158.843 134.61 159.219 135.326C159.595 136.024 160.105 136.57 160.75 136.964C161.395 137.358 162.2 137.555 163.167 137.555C164.116 137.555 164.904 137.358 165.53 136.964C166.175 136.57 166.685 136.024 167.061 135.326C167.437 134.61 167.706 133.777 167.867 132.828C168.028 131.879 168.108 130.859 168.108 129.767V129.203C168.108 128.146 168.028 127.153 167.867 126.222C167.706 125.273 167.437 124.44 167.061 123.724C166.685 122.99 166.175 122.417 165.53 122.005C164.886 121.594 164.08 121.388 163.113 121.388C162.164 121.388 161.368 121.594 160.723 122.005C160.097 122.417 159.595 122.99 159.219 123.724C158.843 124.44 158.575 125.273 158.414 126.222C158.252 127.153 158.172 128.146 158.172 129.203ZM181.858 114.942H190.936V144.94C190.936 147.267 190.488 149.228 189.593 150.821C188.698 152.433 187.417 153.65 185.752 154.474C184.087 155.315 182.1 155.736 179.791 155.736C179.021 155.736 178.313 155.7 177.669 155.628C177.007 155.575 176.281 155.458 175.494 155.279V148.431C175.959 148.503 176.389 148.556 176.783 148.592C177.177 148.646 177.606 148.673 178.072 148.673C178.895 148.673 179.585 148.539 180.14 148.27C180.695 148.001 181.115 147.59 181.402 147.035C181.706 146.48 181.858 145.781 181.858 144.94V114.942ZM181.187 107.45C181.187 106.161 181.653 105.104 182.583 104.281C183.514 103.457 184.723 103.045 186.209 103.045C187.695 103.045 188.903 103.457 189.834 104.281C190.765 105.104 191.231 106.161 191.231 107.45C191.231 108.739 190.765 109.795 189.834 110.619C188.903 111.442 187.695 111.854 186.209 111.854C184.723 111.854 183.514 111.442 182.583 110.619C181.653 109.795 181.187 108.739 181.187 107.45ZM210.137 144.537C207.774 144.537 205.661 144.17 203.799 143.436C201.937 142.684 200.362 141.655 199.073 140.348C197.802 139.041 196.826 137.537 196.146 135.836C195.483 134.135 195.152 132.336 195.152 130.438V129.417C195.152 127.287 195.447 125.318 196.038 123.509C196.629 121.683 197.506 120.09 198.67 118.729C199.834 117.368 201.293 116.312 203.047 115.56C204.802 114.79 206.843 114.405 209.17 114.405C211.229 114.405 213.073 114.736 214.703 115.399C216.332 116.061 217.71 117.01 218.838 118.246C219.984 119.481 220.853 120.976 221.443 122.73C222.052 124.485 222.356 126.454 222.356 128.639V132.318H198.616V126.651H213.521V125.953C213.539 124.986 213.369 124.163 213.011 123.482C212.671 122.802 212.169 122.283 211.507 121.925C210.844 121.567 210.039 121.388 209.09 121.388C208.105 121.388 207.291 121.603 206.646 122.032C206.019 122.462 205.527 123.053 205.169 123.805C204.829 124.539 204.587 125.389 204.444 126.356C204.301 127.323 204.229 128.343 204.229 129.417V130.438C204.229 131.512 204.372 132.488 204.659 133.365C204.963 134.243 205.393 134.994 205.948 135.621C206.521 136.23 207.201 136.704 207.989 137.044C208.794 137.385 209.708 137.555 210.728 137.555C211.963 137.555 213.181 137.322 214.38 136.856C215.58 136.391 216.609 135.621 217.469 134.547L221.578 139.435C220.987 140.276 220.145 141.091 219.053 141.878C217.979 142.666 216.69 143.311 215.186 143.812C213.682 144.295 211.999 144.537 210.137 144.537ZM238.309 137.555C239.15 137.555 239.866 137.403 240.457 137.098C241.066 136.776 241.522 136.328 241.827 135.755C242.149 135.165 242.301 134.457 242.283 133.634H250.796C250.814 135.818 250.277 137.734 249.185 139.381C248.111 141.01 246.643 142.281 244.781 143.194C242.937 144.09 240.851 144.537 238.523 144.537C236.25 144.537 234.262 144.17 232.562 143.436C230.861 142.684 229.437 141.646 228.292 140.321C227.164 138.978 226.313 137.411 225.74 135.621C225.185 133.831 224.908 131.888 224.908 129.793V129.176C224.908 127.081 225.185 125.139 225.74 123.348C226.313 121.54 227.164 119.973 228.292 118.648C229.437 117.306 230.852 116.267 232.535 115.533C234.236 114.781 236.214 114.405 238.47 114.405C240.887 114.405 243.017 114.862 244.861 115.775C246.723 116.688 248.182 118.013 249.239 119.75C250.295 121.486 250.814 123.59 250.796 126.061H242.283C242.301 125.183 242.167 124.396 241.88 123.697C241.594 122.999 241.146 122.444 240.538 122.032C239.947 121.603 239.186 121.388 238.255 121.388C237.324 121.388 236.572 121.594 235.999 122.005C235.426 122.417 234.987 122.99 234.683 123.724C234.397 124.44 234.2 125.264 234.092 126.195C234.003 127.126 233.958 128.119 233.958 129.176V129.793C233.958 130.868 234.003 131.879 234.092 132.828C234.2 133.759 234.406 134.583 234.71 135.299C235.014 135.997 235.453 136.552 236.026 136.964C236.599 137.358 237.36 137.555 238.309 137.555ZM269.971 114.942V121.227H252.461V114.942H269.971ZM256.141 107.718H265.191V134.52C265.191 135.29 265.28 135.89 265.459 136.319C265.639 136.731 265.943 137.027 266.373 137.206C266.82 137.367 267.411 137.447 268.145 137.447C268.664 137.447 269.094 137.438 269.434 137.42C269.774 137.385 270.097 137.34 270.401 137.286V143.758C269.631 144.009 268.825 144.197 267.984 144.322C267.142 144.465 266.247 144.537 265.298 144.537C263.365 144.537 261.709 144.233 260.33 143.624C258.969 143.015 257.931 142.057 257.215 140.75C256.499 139.444 256.141 137.743 256.141 135.648V107.718ZM320.352 104.898V144H310.953L297.122 119.669V144H287.696V104.898H297.122L310.953 129.229V104.898H320.352ZM340.977 136.695V124.718C340.977 123.894 340.861 123.187 340.628 122.596C340.395 122.005 340.028 121.549 339.527 121.227C339.026 120.886 338.354 120.716 337.513 120.716C336.832 120.716 336.25 120.833 335.767 121.065C335.284 121.298 334.917 121.647 334.666 122.113C334.415 122.578 334.29 123.169 334.29 123.885H325.24C325.24 122.542 325.535 121.298 326.126 120.152C326.735 118.989 327.594 117.977 328.704 117.118C329.832 116.258 331.175 115.596 332.732 115.13C334.308 114.647 336.062 114.405 337.996 114.405C340.306 114.405 342.365 114.79 344.173 115.56C345.999 116.33 347.44 117.485 348.497 119.024C349.553 120.546 350.081 122.462 350.081 124.771V136.668C350.081 138.566 350.188 140.007 350.403 140.992C350.618 141.959 350.923 142.809 351.316 143.543V144H342.239C341.81 143.105 341.487 142.013 341.272 140.724C341.076 139.417 340.977 138.074 340.977 136.695ZM342.078 126.249L342.132 131.083H338.13C337.289 131.083 336.573 131.199 335.982 131.432C335.409 131.664 334.944 131.987 334.585 132.398C334.245 132.792 333.995 133.24 333.833 133.741C333.69 134.243 333.619 134.771 333.619 135.326C333.619 135.863 333.744 136.346 333.995 136.776C334.263 137.188 334.621 137.51 335.069 137.743C335.516 137.975 336.018 138.092 336.573 138.092C337.575 138.092 338.426 137.904 339.124 137.528C339.84 137.134 340.386 136.66 340.762 136.104C341.138 135.549 341.326 135.03 341.326 134.547L343.313 138.253C342.955 138.969 342.544 139.694 342.078 140.428C341.631 141.162 341.067 141.843 340.386 142.469C339.724 143.078 338.909 143.579 337.942 143.973C336.976 144.349 335.803 144.537 334.424 144.537C332.634 144.537 330.987 144.17 329.483 143.436C327.997 142.702 326.806 141.681 325.911 140.375C325.016 139.05 324.568 137.528 324.568 135.809C324.568 134.305 324.837 132.962 325.374 131.781C325.929 130.599 326.762 129.597 327.872 128.773C328.982 127.949 330.396 127.323 332.115 126.893C333.833 126.463 335.857 126.249 338.184 126.249H342.078ZM364.234 121.092V144H355.184V114.942H363.67L364.234 121.092ZM363.133 128.478L361.065 128.531C361.065 126.49 361.307 124.61 361.79 122.892C362.273 121.173 362.99 119.678 363.938 118.407C364.887 117.136 366.051 116.151 367.43 115.453C368.826 114.754 370.438 114.405 372.264 114.405C373.535 114.405 374.69 114.602 375.728 114.996C376.766 115.372 377.662 115.972 378.414 116.795C379.166 117.601 379.738 118.657 380.132 119.964C380.544 121.253 380.75 122.802 380.75 124.61V144H371.7V125.765C371.7 124.53 371.556 123.599 371.27 122.972C371.001 122.346 370.608 121.925 370.088 121.71C369.569 121.495 368.934 121.388 368.182 121.388C367.394 121.388 366.687 121.567 366.06 121.925C365.433 122.283 364.896 122.784 364.449 123.429C364.019 124.055 363.688 124.798 363.455 125.658C363.24 126.517 363.133 127.457 363.133 128.478ZM379.729 128.478L377.205 128.531C377.205 126.49 377.429 124.61 377.876 122.892C378.342 121.173 379.031 119.678 379.944 118.407C380.875 117.136 382.03 116.151 383.409 115.453C384.787 114.754 386.39 114.405 388.216 114.405C389.541 114.405 390.758 114.602 391.868 114.996C392.978 115.39 393.936 116.026 394.742 116.903C395.547 117.78 396.174 118.944 396.622 120.394C397.069 121.826 397.293 123.599 397.293 125.711V144H388.216V125.711C388.216 124.512 388.073 123.608 387.786 122.999C387.518 122.372 387.124 121.952 386.604 121.737C386.085 121.504 385.468 121.388 384.751 121.388C383.892 121.388 383.149 121.567 382.522 121.925C381.896 122.283 381.368 122.784 380.938 123.429C380.526 124.055 380.222 124.798 380.025 125.658C379.828 126.517 379.729 127.457 379.729 128.478ZM416.548 144.537C414.185 144.537 412.072 144.17 410.21 143.436C408.348 142.684 406.773 141.655 405.484 140.348C404.213 139.041 403.237 137.537 402.557 135.836C401.894 134.135 401.563 132.336 401.563 130.438V129.417C401.563 127.287 401.858 125.318 402.449 123.509C403.04 121.683 403.917 120.09 405.081 118.729C406.245 117.368 407.704 116.312 409.458 115.56C411.213 114.79 413.254 114.405 415.582 114.405C417.64 114.405 419.485 114.736 421.114 115.399C422.743 116.061 424.122 117.01 425.25 118.246C426.395 119.481 427.264 120.976 427.854 122.73C428.463 124.485 428.768 126.454 428.768 128.639V132.318H405.027V126.651H419.932V125.953C419.95 124.986 419.78 124.163 419.422 123.482C419.082 122.802 418.58 122.283 417.918 121.925C417.256 121.567 416.45 121.388 415.501 121.388C414.516 121.388 413.702 121.603 413.057 122.032C412.431 122.462 411.938 123.053 411.58 123.805C411.24 124.539 410.998 125.389 410.855 126.356C410.712 127.323 410.64 128.343 410.64 129.417V130.438C410.64 131.512 410.783 132.488 411.07 133.365C411.374 134.243 411.804 134.994 412.359 135.621C412.932 136.23 413.612 136.704 414.4 137.044C415.206 137.385 416.119 137.555 417.139 137.555C418.375 137.555 419.592 137.322 420.792 136.856C421.991 136.391 423.021 135.621 423.88 134.547L427.989 139.435C427.398 140.276 426.556 141.091 425.464 141.878C424.39 142.666 423.101 143.311 421.597 143.812C420.093 144.295 418.41 144.537 416.548 144.537Z" fill="black"/>
<rect x="92" y="181" width="1179" height="80" rx="13.3333" fill="#CCCCCC"/>
<rect x="107.333" y="196.333" width="208" height="49.3333" rx="4.66667" fill="#888888" stroke="#888888" stroke-width="4"/>
<path d="M157.687 226.958L160.708 213.167H162.51L163.489 214.344L160.271 228.333H158.281L157.687 226.958ZM156.885 213.167L159.437 227.062L158.781 228.333H156.479L153.26 213.167H156.885ZM165.146 226.99L167.677 213.167H171.292L168.073 228.333H165.781L165.146 226.99ZM163.812 213.167L166.906 227.042L166.281 228.333H164.292L161 214.323L162.021 213.167H163.812ZM177.687 228.542C176.771 228.542 175.951 228.399 175.229 228.115C174.507 227.823 173.896 227.424 173.396 226.917C172.903 226.41 172.524 225.826 172.26 225.167C172.003 224.507 171.875 223.809 171.875 223.073V222.677C171.875 221.851 171.99 221.087 172.219 220.385C172.448 219.677 172.788 219.059 173.24 218.531C173.691 218.003 174.257 217.594 174.937 217.302C175.618 217.003 176.41 216.854 177.312 216.854C178.111 216.854 178.826 216.983 179.458 217.24C180.09 217.496 180.625 217.865 181.062 218.344C181.507 218.823 181.844 219.403 182.073 220.083C182.309 220.764 182.427 221.528 182.427 222.375V223.802H173.219V221.604H179V221.333C179.007 220.958 178.941 220.639 178.802 220.375C178.67 220.111 178.476 219.91 178.219 219.771C177.962 219.632 177.649 219.562 177.281 219.562C176.899 219.562 176.583 219.646 176.333 219.812C176.09 219.979 175.899 220.208 175.76 220.5C175.628 220.785 175.535 221.115 175.479 221.49C175.424 221.865 175.396 222.26 175.396 222.677V223.073C175.396 223.49 175.451 223.868 175.562 224.208C175.68 224.549 175.847 224.84 176.062 225.083C176.285 225.319 176.549 225.503 176.854 225.635C177.167 225.767 177.521 225.833 177.917 225.833C178.396 225.833 178.868 225.743 179.333 225.562C179.799 225.382 180.198 225.083 180.531 224.667L182.125 226.562C181.896 226.889 181.569 227.205 181.146 227.51C180.729 227.816 180.229 228.066 179.646 228.26C179.062 228.448 178.41 228.542 177.687 228.542ZM183.885 212.333H187.396V225.562L187.031 228.333H183.885V212.333ZM194.312 222.573V222.792C194.312 223.646 194.226 224.424 194.052 225.125C193.878 225.826 193.611 226.434 193.25 226.948C192.889 227.455 192.434 227.847 191.885 228.125C191.337 228.403 190.687 228.542 189.937 228.542C189.257 228.542 188.674 228.396 188.187 228.104C187.701 227.805 187.295 227.396 186.969 226.875C186.642 226.347 186.378 225.74 186.177 225.052C185.976 224.358 185.816 223.615 185.698 222.823V222.562C185.816 221.778 185.976 221.042 186.177 220.354C186.378 219.66 186.642 219.052 186.969 218.531C187.295 218.003 187.698 217.594 188.177 217.302C188.663 217.003 189.243 216.854 189.917 216.854C190.674 216.854 191.326 216.996 191.875 217.281C192.43 217.566 192.889 217.965 193.25 218.479C193.611 218.993 193.878 219.597 194.052 220.292C194.226 220.986 194.312 221.746 194.312 222.573ZM190.802 222.792V222.573C190.802 222.163 190.778 221.778 190.729 221.417C190.68 221.055 190.594 220.736 190.469 220.458C190.344 220.18 190.167 219.962 189.937 219.802C189.708 219.642 189.41 219.562 189.042 219.562C188.667 219.562 188.351 219.625 188.094 219.75C187.844 219.875 187.642 220.055 187.49 220.292C187.344 220.521 187.24 220.805 187.177 221.146C187.115 221.479 187.087 221.858 187.094 222.281V223.104C187.08 223.68 187.132 224.174 187.25 224.583C187.368 224.993 187.573 225.305 187.865 225.521C188.156 225.736 188.555 225.844 189.062 225.844C189.437 225.844 189.74 225.771 189.969 225.625C190.205 225.479 190.382 225.271 190.5 225C190.618 224.729 190.698 224.406 190.74 224.031C190.781 223.656 190.802 223.243 190.802 222.792ZM207.406 223.187H203.635V220.365H207.406C207.92 220.365 208.337 220.278 208.656 220.104C208.976 219.93 209.208 219.691 209.354 219.385C209.507 219.073 209.583 218.722 209.583 218.333C209.583 217.917 209.507 217.531 209.354 217.177C209.208 216.823 208.976 216.538 208.656 216.323C208.337 216.101 207.92 215.99 207.406 215.99H205.01V228.333H201.354V213.167H207.406C208.621 213.167 209.667 213.389 210.542 213.833C211.424 214.278 212.101 214.889 212.573 215.667C213.045 216.437 213.281 217.319 213.281 218.312C213.281 219.292 213.045 220.146 212.573 220.875C212.101 221.604 211.424 222.174 210.542 222.583C209.667 222.986 208.621 223.187 207.406 223.187ZM218.625 219.854V228.333H215.114V217.062H218.396L218.625 219.854ZM221.958 216.979L221.896 220.24C221.757 220.226 221.569 220.208 221.333 220.187C221.097 220.167 220.899 220.156 220.739 220.156C220.33 220.156 219.976 220.205 219.677 220.302C219.385 220.392 219.142 220.531 218.948 220.719C218.76 220.899 218.621 221.128 218.531 221.406C218.448 221.684 218.41 222.007 218.417 222.375L217.781 221.958C217.781 221.201 217.854 220.514 218 219.896C218.153 219.271 218.368 218.733 218.646 218.281C218.924 217.823 219.26 217.472 219.656 217.229C220.052 216.979 220.496 216.854 220.989 216.854C221.163 216.854 221.333 216.865 221.5 216.885C221.674 216.906 221.826 216.937 221.958 216.979ZM222.354 222.812V222.594C222.354 221.767 222.472 221.007 222.708 220.312C222.944 219.611 223.292 219.003 223.75 218.49C224.208 217.976 224.774 217.576 225.448 217.292C226.121 217 226.899 216.854 227.781 216.854C228.67 216.854 229.451 217 230.125 217.292C230.805 217.576 231.375 217.976 231.833 218.49C232.292 219.003 232.639 219.611 232.875 220.312C233.111 221.007 233.229 221.767 233.229 222.594V222.812C233.229 223.632 233.111 224.392 232.875 225.094C232.639 225.788 232.292 226.396 231.833 226.917C231.375 227.43 230.809 227.83 230.135 228.115C229.462 228.399 228.684 228.542 227.802 228.542C226.92 228.542 226.139 228.399 225.458 228.115C224.778 227.83 224.208 227.43 223.75 226.917C223.292 226.396 222.944 225.788 222.708 225.094C222.472 224.392 222.354 223.632 222.354 222.812ZM225.865 222.594V222.812C225.865 223.236 225.896 223.632 225.958 224C226.021 224.368 226.125 224.691 226.271 224.969C226.417 225.24 226.615 225.451 226.865 225.604C227.115 225.757 227.427 225.833 227.802 225.833C228.17 225.833 228.476 225.757 228.719 225.604C228.969 225.451 229.167 225.24 229.312 224.969C229.458 224.691 229.562 224.368 229.625 224C229.687 223.632 229.719 223.236 229.719 222.812V222.594C229.719 222.184 229.687 221.799 229.625 221.437C229.562 221.069 229.458 220.746 229.312 220.469C229.167 220.184 228.969 219.962 228.719 219.802C228.469 219.642 228.156 219.562 227.781 219.562C227.413 219.562 227.104 219.642 226.854 219.802C226.611 219.962 226.417 220.184 226.271 220.469C226.125 220.746 226.021 221.069 225.958 221.437C225.896 221.799 225.865 222.184 225.865 222.594ZM235.052 217.062H238.573V228.698C238.573 229.601 238.399 230.361 238.052 230.979C237.705 231.604 237.208 232.076 236.562 232.396C235.917 232.722 235.146 232.885 234.25 232.885C233.951 232.885 233.677 232.871 233.427 232.844C233.17 232.823 232.889 232.778 232.583 232.708V230.052C232.764 230.08 232.93 230.101 233.083 230.115C233.236 230.135 233.403 230.146 233.583 230.146C233.903 230.146 234.17 230.094 234.385 229.99C234.601 229.885 234.764 229.726 234.875 229.51C234.993 229.295 235.052 229.024 235.052 228.698V217.062ZM234.792 214.156C234.792 213.656 234.972 213.246 235.333 212.927C235.694 212.608 236.163 212.448 236.74 212.448C237.316 212.448 237.785 212.608 238.146 212.927C238.507 213.246 238.687 213.656 238.687 214.156C238.687 214.656 238.507 215.066 238.146 215.385C237.785 215.705 237.316 215.865 236.74 215.865C236.163 215.865 235.694 215.705 235.333 215.385C234.972 215.066 234.792 214.656 234.792 214.156ZM246.021 228.542C245.104 228.542 244.285 228.399 243.562 228.115C242.84 227.823 242.229 227.424 241.729 226.917C241.236 226.41 240.858 225.826 240.594 225.167C240.337 224.507 240.208 223.809 240.208 223.073V222.677C240.208 221.851 240.323 221.087 240.552 220.385C240.781 219.677 241.121 219.059 241.573 218.531C242.024 218.003 242.59 217.594 243.271 217.302C243.951 217.003 244.743 216.854 245.646 216.854C246.444 216.854 247.16 216.983 247.792 217.24C248.424 217.496 248.958 217.865 249.396 218.344C249.84 218.823 250.177 219.403 250.406 220.083C250.642 220.764 250.76 221.528 250.76 222.375V223.802H241.552V221.604H247.333V221.333C247.34 220.958 247.274 220.639 247.135 220.375C247.003 220.111 246.809 219.91 246.552 219.771C246.295 219.632 245.983 219.562 245.615 219.562C245.233 219.562 244.917 219.646 244.667 219.812C244.424 219.979 244.233 220.208 244.094 220.5C243.962 220.785 243.868 221.115 243.812 221.49C243.757 221.865 243.729 222.26 243.729 222.677V223.073C243.729 223.49 243.785 223.868 243.896 224.208C244.014 224.549 244.18 224.84 244.396 225.083C244.618 225.319 244.882 225.503 245.187 225.635C245.5 225.767 245.854 225.833 246.25 225.833C246.729 225.833 247.201 225.743 247.667 225.562C248.132 225.382 248.531 225.083 248.865 224.667L250.458 226.562C250.229 226.889 249.903 227.205 249.479 227.51C249.062 227.816 248.562 228.066 247.979 228.26C247.396 228.448 246.743 228.542 246.021 228.542ZM256.948 225.833C257.274 225.833 257.552 225.774 257.781 225.656C258.017 225.531 258.194 225.358 258.312 225.135C258.437 224.906 258.496 224.632 258.49 224.312H261.792C261.799 225.16 261.59 225.903 261.167 226.542C260.75 227.174 260.18 227.667 259.458 228.021C258.743 228.368 257.934 228.542 257.031 228.542C256.149 228.542 255.378 228.399 254.719 228.115C254.059 227.823 253.507 227.42 253.062 226.906C252.625 226.385 252.295 225.778 252.073 225.083C251.858 224.389 251.75 223.635 251.75 222.823V222.583C251.75 221.771 251.858 221.017 252.073 220.323C252.295 219.621 252.625 219.014 253.062 218.5C253.507 217.979 254.055 217.576 254.708 217.292C255.368 217 256.135 216.854 257.01 216.854C257.948 216.854 258.774 217.031 259.49 217.385C260.212 217.74 260.778 218.253 261.187 218.927C261.597 219.601 261.799 220.417 261.792 221.375H258.49C258.496 221.035 258.444 220.729 258.333 220.458C258.222 220.187 258.049 219.972 257.812 219.812C257.583 219.646 257.288 219.562 256.927 219.562C256.566 219.562 256.274 219.642 256.052 219.802C255.83 219.962 255.66 220.184 255.542 220.469C255.43 220.746 255.354 221.066 255.312 221.427C255.278 221.788 255.26 222.174 255.26 222.583V222.823C255.26 223.24 255.278 223.632 255.312 224C255.354 224.361 255.434 224.68 255.552 224.958C255.67 225.229 255.84 225.444 256.062 225.604C256.285 225.757 256.58 225.833 256.948 225.833ZM269.229 217.062V219.5H262.437V217.062H269.229ZM263.865 214.26H267.375V224.656C267.375 224.955 267.41 225.187 267.479 225.354C267.549 225.514 267.667 225.628 267.833 225.698C268.007 225.76 268.236 225.792 268.521 225.792C268.722 225.792 268.889 225.788 269.021 225.781C269.153 225.767 269.278 225.75 269.396 225.729V228.24C269.097 228.337 268.785 228.41 268.458 228.458C268.132 228.514 267.785 228.542 267.417 228.542C266.667 228.542 266.024 228.424 265.49 228.187C264.962 227.951 264.559 227.58 264.281 227.073C264.003 226.566 263.865 225.906 263.865 225.094V214.26Z" fill="white"/>
<rect x="339.333" y="196.333" width="208" height="49.3333" rx="4.66667" fill="#888888" stroke="#888888" stroke-width="4"/>
<path d="M404.156 213.167H410.125C411.292 213.167 412.305 213.34 413.167 213.687C414.028 214.035 414.691 214.549 415.156 215.229C415.628 215.91 415.864 216.75 415.864 217.75C415.864 218.618 415.729 219.344 415.458 219.927C415.187 220.51 414.809 220.993 414.323 221.375C413.844 221.75 413.285 222.059 412.646 222.302L411.448 222.979H406.437L406.417 220.156H410.125C410.59 220.156 410.976 220.073 411.281 219.906C411.587 219.74 411.816 219.503 411.969 219.198C412.128 218.885 412.208 218.514 412.208 218.083C412.208 217.646 412.128 217.271 411.969 216.958C411.809 216.646 411.573 216.406 411.26 216.24C410.955 216.073 410.576 215.99 410.125 215.99H407.812V228.333H404.156V213.167ZM412.458 228.333L409.104 221.625L412.979 221.604L416.375 228.177V228.333H412.458ZM423.364 228.542C422.448 228.542 421.628 228.399 420.906 228.115C420.184 227.823 419.573 227.424 419.073 226.917C418.58 226.41 418.201 225.826 417.937 225.167C417.68 224.507 417.552 223.809 417.552 223.073V222.677C417.552 221.851 417.667 221.087 417.896 220.385C418.125 219.677 418.465 219.059 418.917 218.531C419.368 218.003 419.934 217.594 420.614 217.302C421.295 217.003 422.087 216.854 422.989 216.854C423.788 216.854 424.503 216.983 425.135 217.24C425.767 217.496 426.302 217.865 426.739 218.344C427.184 218.823 427.521 219.403 427.75 220.083C427.986 220.764 428.104 221.528 428.104 222.375V223.802H418.896V221.604H424.677V221.333C424.684 220.958 424.618 220.639 424.479 220.375C424.347 220.111 424.153 219.91 423.896 219.771C423.639 219.632 423.326 219.562 422.958 219.562C422.576 219.562 422.26 219.646 422.01 219.812C421.767 219.979 421.576 220.208 421.437 220.5C421.305 220.785 421.212 221.115 421.156 221.49C421.101 221.865 421.073 222.26 421.073 222.677V223.073C421.073 223.49 421.128 223.868 421.239 224.208C421.358 224.549 421.524 224.84 421.739 225.083C421.962 225.319 422.226 225.503 422.531 225.635C422.844 225.767 423.198 225.833 423.594 225.833C424.073 225.833 424.545 225.743 425.01 225.562C425.476 225.382 425.875 225.083 426.208 224.667L427.802 226.562C427.573 226.889 427.246 227.205 426.823 227.51C426.406 227.816 425.906 228.066 425.323 228.26C424.739 228.448 424.087 228.542 423.364 228.542ZM435.385 225.5V220.854C435.385 220.535 435.34 220.26 435.25 220.031C435.16 219.802 435.017 219.625 434.823 219.5C434.628 219.368 434.368 219.302 434.042 219.302C433.778 219.302 433.552 219.347 433.364 219.437C433.177 219.528 433.035 219.663 432.937 219.844C432.84 220.024 432.792 220.253 432.792 220.531H429.281C429.281 220.01 429.396 219.528 429.625 219.083C429.861 218.632 430.194 218.24 430.625 217.906C431.062 217.573 431.583 217.316 432.187 217.135C432.799 216.948 433.479 216.854 434.229 216.854C435.125 216.854 435.924 217.003 436.625 217.302C437.333 217.601 437.892 218.049 438.302 218.646C438.712 219.236 438.917 219.979 438.917 220.875V225.49C438.917 226.226 438.958 226.785 439.042 227.167C439.125 227.542 439.243 227.871 439.396 228.156V228.333H435.875C435.708 227.986 435.583 227.562 435.5 227.062C435.424 226.555 435.385 226.035 435.385 225.5ZM435.812 221.448L435.833 223.323H434.281C433.955 223.323 433.677 223.368 433.448 223.458C433.226 223.549 433.045 223.674 432.906 223.833C432.774 223.986 432.677 224.16 432.614 224.354C432.559 224.549 432.531 224.753 432.531 224.969C432.531 225.177 432.58 225.365 432.677 225.531C432.781 225.691 432.92 225.816 433.094 225.906C433.267 225.996 433.462 226.042 433.677 226.042C434.066 226.042 434.396 225.969 434.667 225.823C434.944 225.67 435.156 225.486 435.302 225.271C435.448 225.055 435.521 224.854 435.521 224.667L436.292 226.104C436.153 226.382 435.993 226.663 435.812 226.948C435.639 227.233 435.42 227.496 435.156 227.74C434.899 227.976 434.583 228.17 434.208 228.323C433.833 228.469 433.378 228.542 432.844 228.542C432.149 228.542 431.51 228.399 430.927 228.115C430.351 227.83 429.889 227.434 429.542 226.927C429.194 226.413 429.021 225.823 429.021 225.156C429.021 224.573 429.125 224.052 429.333 223.594C429.549 223.135 429.871 222.746 430.302 222.427C430.733 222.108 431.281 221.865 431.948 221.698C432.614 221.531 433.399 221.448 434.302 221.448H435.812ZM445.625 225.833C445.951 225.833 446.229 225.774 446.458 225.656C446.694 225.531 446.871 225.358 446.989 225.135C447.114 224.906 447.174 224.632 447.167 224.312H450.469C450.476 225.16 450.267 225.903 449.844 226.542C449.427 227.174 448.858 227.667 448.135 228.021C447.42 228.368 446.611 228.542 445.708 228.542C444.826 228.542 444.055 228.399 443.396 228.115C442.736 227.823 442.184 227.42 441.739 226.906C441.302 226.385 440.972 225.778 440.75 225.083C440.535 224.389 440.427 223.635 440.427 222.823V222.583C440.427 221.771 440.535 221.017 440.75 220.323C440.972 219.621 441.302 219.014 441.739 218.5C442.184 217.979 442.733 217.576 443.385 217.292C444.045 217 444.812 216.854 445.687 216.854C446.625 216.854 447.451 217.031 448.167 217.385C448.889 217.74 449.455 218.253 449.864 218.927C450.274 219.601 450.476 220.417 450.469 221.375H447.167C447.174 221.035 447.121 220.729 447.01 220.458C446.899 220.187 446.726 219.972 446.489 219.812C446.26 219.646 445.965 219.562 445.604 219.562C445.243 219.562 444.951 219.642 444.729 219.802C444.507 219.962 444.337 220.184 444.219 220.469C444.108 220.746 444.031 221.066 443.989 221.427C443.955 221.788 443.937 222.174 443.937 222.583V222.823C443.937 223.24 443.955 223.632 443.989 224C444.031 224.361 444.111 224.68 444.229 224.958C444.347 225.229 444.517 225.444 444.739 225.604C444.962 225.757 445.257 225.833 445.625 225.833ZM457.906 217.062V219.5H451.114V217.062H457.906ZM452.542 214.26H456.052V224.656C456.052 224.955 456.087 225.187 456.156 225.354C456.226 225.514 456.344 225.628 456.51 225.698C456.684 225.76 456.913 225.792 457.198 225.792C457.399 225.792 457.566 225.788 457.698 225.781C457.83 225.767 457.955 225.75 458.073 225.729V228.24C457.774 228.337 457.462 228.41 457.135 228.458C456.809 228.514 456.462 228.542 456.094 228.542C455.344 228.542 454.701 228.424 454.167 228.187C453.639 227.951 453.236 227.58 452.958 227.073C452.68 226.566 452.542 225.906 452.542 225.094V214.26ZM465.5 223.573V213.167H469.146V223.573C469.146 224.587 468.913 225.465 468.448 226.208C467.989 226.951 467.364 227.528 466.573 227.937C465.788 228.34 464.906 228.542 463.927 228.542C462.913 228.542 462.01 228.371 461.219 228.031C460.434 227.691 459.816 227.167 459.364 226.458C458.92 225.75 458.698 224.847 458.698 223.75H462.364C462.364 224.264 462.424 224.667 462.542 224.958C462.66 225.243 462.833 225.444 463.062 225.562C463.299 225.674 463.587 225.729 463.927 225.729C464.26 225.729 464.542 225.646 464.771 225.479C465.007 225.305 465.187 225.059 465.312 224.74C465.437 224.413 465.5 224.024 465.5 223.573ZM479.281 224.302C479.281 224.066 479.246 223.854 479.177 223.667C479.108 223.472 478.979 223.292 478.792 223.125C478.604 222.958 478.333 222.792 477.979 222.625C477.632 222.451 477.174 222.271 476.604 222.083C475.937 221.861 475.295 221.611 474.677 221.333C474.059 221.049 473.507 220.719 473.021 220.344C472.535 219.962 472.149 219.517 471.864 219.01C471.58 218.496 471.437 217.899 471.437 217.219C471.437 216.566 471.583 215.979 471.875 215.458C472.167 214.93 472.573 214.483 473.094 214.115C473.621 213.74 474.239 213.455 474.948 213.26C475.656 213.059 476.43 212.958 477.271 212.958C478.382 212.958 479.361 213.153 480.208 213.542C481.062 213.924 481.729 214.469 482.208 215.177C482.694 215.878 482.937 216.708 482.937 217.667H479.302C479.302 217.285 479.222 216.948 479.062 216.656C478.91 216.365 478.677 216.135 478.364 215.969C478.052 215.802 477.66 215.719 477.187 215.719C476.729 215.719 476.344 215.788 476.031 215.927C475.719 216.066 475.483 216.253 475.323 216.49C475.163 216.719 475.083 216.972 475.083 217.25C475.083 217.479 475.146 217.687 475.271 217.875C475.403 218.055 475.587 218.226 475.823 218.385C476.066 218.545 476.358 218.698 476.698 218.844C477.045 218.99 477.434 219.132 477.864 219.271C478.67 219.528 479.385 219.816 480.01 220.135C480.642 220.448 481.174 220.805 481.604 221.208C482.042 221.604 482.371 222.055 482.594 222.562C482.823 223.069 482.937 223.642 482.937 224.281C482.937 224.962 482.805 225.566 482.542 226.094C482.278 226.621 481.899 227.069 481.406 227.437C480.913 227.799 480.323 228.073 479.635 228.26C478.948 228.448 478.18 228.542 477.333 228.542C476.555 228.542 475.788 228.444 475.031 228.25C474.281 228.049 473.601 227.743 472.989 227.333C472.378 226.917 471.889 226.385 471.521 225.74C471.16 225.087 470.979 224.312 470.979 223.417H474.646C474.646 223.861 474.705 224.236 474.823 224.542C474.941 224.847 475.114 225.094 475.344 225.281C475.573 225.462 475.854 225.594 476.187 225.677C476.521 225.753 476.903 225.792 477.333 225.792C477.799 225.792 478.174 225.726 478.458 225.594C478.743 225.455 478.951 225.274 479.083 225.052C479.215 224.823 479.281 224.573 479.281 224.302Z" fill="white"/>
<rect x="571.333" y="196.333" width="208" height="49.3333" rx="4.66667" fill="#888888" stroke="#888888" stroke-width="4"/>
<path d="M651.177 213.167V228.333H647.531L642.167 218.896V228.333H638.51V213.167H642.167L647.531 222.604V213.167H651.177ZM652.885 222.812V222.594C652.885 221.767 653.003 221.007 653.239 220.312C653.476 219.611 653.823 219.003 654.281 218.49C654.739 217.976 655.305 217.576 655.979 217.292C656.653 217 657.43 216.854 658.312 216.854C659.201 216.854 659.983 217 660.656 217.292C661.337 217.576 661.906 217.976 662.364 218.49C662.823 219.003 663.17 219.611 663.406 220.312C663.642 221.007 663.76 221.767 663.76 222.594V222.812C663.76 223.632 663.642 224.392 663.406 225.094C663.17 225.788 662.823 226.396 662.364 226.917C661.906 227.43 661.34 227.83 660.667 228.115C659.993 228.399 659.215 228.542 658.333 228.542C657.451 228.542 656.67 228.399 655.989 228.115C655.309 227.83 654.739 227.43 654.281 226.917C653.823 226.396 653.476 225.788 653.239 225.094C653.003 224.392 652.885 223.632 652.885 222.812ZM656.396 222.594V222.812C656.396 223.236 656.427 223.632 656.489 224C656.552 224.368 656.656 224.691 656.802 224.969C656.948 225.24 657.146 225.451 657.396 225.604C657.646 225.757 657.958 225.833 658.333 225.833C658.701 225.833 659.007 225.757 659.25 225.604C659.5 225.451 659.698 225.24 659.844 224.969C659.989 224.691 660.094 224.368 660.156 224C660.219 223.632 660.25 223.236 660.25 222.812V222.594C660.25 222.184 660.219 221.799 660.156 221.437C660.094 221.069 659.989 220.746 659.844 220.469C659.698 220.184 659.5 219.962 659.25 219.802C659 219.642 658.687 219.562 658.312 219.562C657.944 219.562 657.635 219.642 657.385 219.802C657.142 219.962 656.948 220.184 656.802 220.469C656.656 220.746 656.552 221.069 656.489 221.437C656.427 221.799 656.396 222.184 656.396 222.594ZM671.802 225.75V212.333H675.333V228.333H672.167L671.802 225.75ZM664.885 222.833V222.615C664.885 221.76 664.979 220.983 665.167 220.281C665.354 219.573 665.632 218.965 666 218.458C666.368 217.944 666.826 217.549 667.375 217.271C667.924 216.993 668.555 216.854 669.271 216.854C669.91 216.854 670.469 217.003 670.948 217.302C671.427 217.594 671.837 218.003 672.177 218.531C672.517 219.059 672.795 219.677 673.01 220.385C673.226 221.087 673.389 221.844 673.5 222.656V222.917C673.389 223.68 673.226 224.403 673.01 225.083C672.795 225.757 672.517 226.354 672.177 226.875C671.837 227.396 671.424 227.805 670.937 228.104C670.458 228.396 669.896 228.542 669.25 228.542C668.535 228.542 667.903 228.399 667.354 228.115C666.812 227.83 666.358 227.43 665.99 226.917C665.628 226.403 665.354 225.799 665.167 225.104C664.979 224.41 664.885 223.653 664.885 222.833ZM668.396 222.615V222.833C668.396 223.257 668.424 223.649 668.479 224.01C668.535 224.371 668.628 224.691 668.76 224.969C668.899 225.24 669.08 225.451 669.302 225.604C669.531 225.757 669.812 225.833 670.146 225.833C670.597 225.833 670.969 225.726 671.26 225.51C671.559 225.295 671.778 224.99 671.917 224.594C672.062 224.198 672.125 223.733 672.104 223.198V222.375C672.118 221.917 672.087 221.514 672.01 221.167C671.934 220.812 671.812 220.517 671.646 220.281C671.486 220.045 671.281 219.868 671.031 219.75C670.788 219.625 670.5 219.562 670.167 219.562C669.84 219.562 669.562 219.639 669.333 219.792C669.111 219.944 668.93 220.16 668.792 220.437C668.653 220.708 668.552 221.031 668.49 221.406C668.427 221.774 668.396 222.177 668.396 222.615ZM682.781 228.542C681.865 228.542 681.045 228.399 680.323 228.115C679.601 227.823 678.99 227.424 678.49 226.917C677.996 226.41 677.618 225.826 677.354 225.167C677.097 224.507 676.969 223.809 676.969 223.073V222.677C676.969 221.851 677.083 221.087 677.312 220.385C677.542 219.677 677.882 219.059 678.333 218.531C678.785 218.003 679.351 217.594 680.031 217.302C680.712 217.003 681.503 216.854 682.406 216.854C683.205 216.854 683.92 216.983 684.552 217.24C685.184 217.496 685.719 217.865 686.156 218.344C686.601 218.823 686.937 219.403 687.167 220.083C687.403 220.764 687.521 221.528 687.521 222.375V223.802H678.312V221.604H684.094V221.333C684.101 220.958 684.035 220.639 683.896 220.375C683.764 220.111 683.569 219.91 683.312 219.771C683.055 219.632 682.743 219.562 682.375 219.562C681.993 219.562 681.677 219.646 681.427 219.812C681.184 219.979 680.993 220.208 680.854 220.5C680.722 220.785 680.628 221.115 680.573 221.49C680.517 221.865 680.49 222.26 680.49 222.677V223.073C680.49 223.49 680.545 223.868 680.656 224.208C680.774 224.549 680.941 224.84 681.156 225.083C681.378 225.319 681.642 225.503 681.948 225.635C682.26 225.767 682.615 225.833 683.01 225.833C683.49 225.833 683.962 225.743 684.427 225.562C684.892 225.382 685.292 225.083 685.625 224.667L687.219 226.562C686.99 226.889 686.663 227.205 686.24 227.51C685.823 227.816 685.323 228.066 684.74 228.26C684.156 228.448 683.503 228.542 682.781 228.542ZM695.146 223.573V213.167H698.792V223.573C698.792 224.587 698.559 225.465 698.094 226.208C697.635 226.951 697.01 227.528 696.219 227.937C695.434 228.34 694.552 228.542 693.573 228.542C692.559 228.542 691.656 228.371 690.865 228.031C690.08 227.691 689.462 227.167 689.01 226.458C688.566 225.75 688.344 224.847 688.344 223.75H692.01C692.01 224.264 692.069 224.667 692.187 224.958C692.305 225.243 692.479 225.444 692.708 225.562C692.944 225.674 693.233 225.729 693.573 225.729C693.906 225.729 694.187 225.646 694.417 225.479C694.653 225.305 694.833 225.059 694.958 224.74C695.083 224.413 695.146 224.024 695.146 223.573ZM708.927 224.302C708.927 224.066 708.892 223.854 708.823 223.667C708.753 223.472 708.625 223.292 708.437 223.125C708.25 222.958 707.979 222.792 707.625 222.625C707.278 222.451 706.819 222.271 706.25 222.083C705.583 221.861 704.941 221.611 704.323 221.333C703.705 221.049 703.153 220.719 702.667 220.344C702.18 219.962 701.795 219.517 701.51 219.01C701.226 218.496 701.083 217.899 701.083 217.219C701.083 216.566 701.229 215.979 701.521 215.458C701.812 214.93 702.219 214.483 702.74 214.115C703.267 213.74 703.885 213.455 704.594 213.26C705.302 213.059 706.076 212.958 706.917 212.958C708.028 212.958 709.007 213.153 709.854 213.542C710.708 213.924 711.375 214.469 711.854 215.177C712.34 215.878 712.583 216.708 712.583 217.667H708.948C708.948 217.285 708.868 216.948 708.708 216.656C708.555 216.365 708.323 216.135 708.01 215.969C707.698 215.802 707.305 215.719 706.833 215.719C706.375 215.719 705.99 215.788 705.677 215.927C705.365 216.066 705.128 216.253 704.969 216.49C704.809 216.719 704.729 216.972 704.729 217.25C704.729 217.479 704.792 217.687 704.917 217.875C705.049 218.055 705.233 218.226 705.469 218.385C705.712 218.545 706.003 218.698 706.344 218.844C706.691 218.99 707.08 219.132 707.51 219.271C708.316 219.528 709.031 219.816 709.656 220.135C710.288 220.448 710.819 220.805 711.25 221.208C711.687 221.604 712.017 222.055 712.24 222.562C712.469 223.069 712.583 223.642 712.583 224.281C712.583 224.962 712.451 225.566 712.187 226.094C711.924 226.621 711.545 227.069 711.052 227.437C710.559 227.799 709.969 228.073 709.281 228.26C708.594 228.448 707.826 228.542 706.979 228.542C706.201 228.542 705.434 228.444 704.677 228.25C703.927 228.049 703.246 227.743 702.635 227.333C702.024 226.917 701.535 226.385 701.167 225.74C700.805 225.087 700.625 224.312 700.625 223.417H704.292C704.292 223.861 704.351 224.236 704.469 224.542C704.587 224.847 704.76 225.094 704.99 225.281C705.219 225.462 705.5 225.594 705.833 225.677C706.167 225.753 706.549 225.792 706.979 225.792C707.444 225.792 707.819 225.726 708.104 225.594C708.389 225.455 708.597 225.274 708.729 225.052C708.861 224.823 708.927 224.573 708.927 224.302Z" fill="white"/>
<rect x="803.333" y="196.333" width="208" height="49.3333" rx="4.66667" fill="#888888" stroke="#888888" stroke-width="4"/>
<path d="M882.375 213.167V228.333H878.719V213.167H882.375ZM888.271 219.479V222.292H881.333V219.479H888.271ZM888.865 213.167V215.99H881.333V213.167H888.865ZM893.927 217.062V228.333H890.406V217.062H893.927ZM890.198 214.156C890.198 213.656 890.379 213.246 890.74 212.927C891.101 212.608 891.57 212.448 892.146 212.448C892.722 212.448 893.191 212.608 893.552 212.927C893.913 213.246 894.094 213.656 894.094 214.156C894.094 214.656 893.913 215.066 893.552 215.385C893.191 215.705 892.722 215.865 892.146 215.865C891.57 215.865 891.101 215.705 890.74 215.385C890.379 215.066 890.198 214.656 890.198 214.156ZM903.177 217.062H906.365V227.896C906.365 228.937 906.125 229.819 905.646 230.542C905.167 231.271 904.497 231.823 903.636 232.198C902.781 232.58 901.781 232.771 900.636 232.771C900.129 232.771 899.611 232.705 899.083 232.573C898.556 232.448 898.063 232.26 897.604 232.01C897.146 231.76 896.761 231.451 896.448 231.083L897.917 229.021C898.202 229.34 898.559 229.611 898.99 229.833C899.42 230.062 899.927 230.177 900.511 230.177C901.018 230.177 901.441 230.087 901.781 229.906C902.129 229.726 902.393 229.462 902.573 229.115C902.754 228.774 902.844 228.361 902.844 227.875V219.729L903.177 217.062ZM895.688 222.833V222.615C895.688 221.76 895.792 220.983 896 220.281C896.215 219.573 896.521 218.965 896.917 218.458C897.32 217.944 897.806 217.549 898.375 217.271C898.945 216.993 899.587 216.854 900.302 216.854C901.073 216.854 901.705 217.003 902.198 217.302C902.698 217.594 903.097 218.003 903.396 218.531C903.702 219.059 903.938 219.677 904.104 220.385C904.278 221.087 904.424 221.844 904.542 222.656V222.917C904.424 223.68 904.261 224.403 904.052 225.083C903.851 225.757 903.587 226.354 903.261 226.875C902.934 227.396 902.524 227.805 902.031 228.104C901.545 228.396 900.962 228.542 900.281 228.542C899.573 228.542 898.934 228.399 898.365 228.115C897.802 227.83 897.32 227.43 896.917 226.917C896.521 226.403 896.215 225.799 896 225.104C895.792 224.41 895.688 223.653 895.688 222.833ZM899.198 222.615V222.833C899.198 223.257 899.236 223.649 899.313 224.01C899.396 224.371 899.521 224.691 899.688 224.969C899.854 225.24 900.059 225.451 900.302 225.604C900.552 225.757 900.844 225.833 901.177 225.833C901.684 225.833 902.094 225.726 902.406 225.51C902.719 225.295 902.945 224.99 903.083 224.594C903.222 224.198 903.281 223.733 903.261 223.198V222.375C903.274 221.917 903.243 221.514 903.167 221.167C903.09 220.812 902.969 220.517 902.802 220.281C902.643 220.045 902.427 219.868 902.156 219.75C901.893 219.625 901.573 219.562 901.198 219.562C900.872 219.562 900.583 219.639 900.333 219.792C900.083 219.944 899.875 220.16 899.708 220.437C899.542 220.708 899.413 221.031 899.323 221.406C899.24 221.774 899.198 222.177 899.198 222.615ZM911.927 219.448V228.333H908.417V217.062H911.708L911.927 219.448ZM911.5 222.312L910.698 222.333C910.698 221.542 910.792 220.812 910.979 220.146C911.167 219.479 911.445 218.899 911.813 218.406C912.181 217.913 912.632 217.531 913.167 217.26C913.708 216.99 914.333 216.854 915.042 216.854C915.535 216.854 915.983 216.93 916.386 217.083C916.788 217.229 917.136 217.462 917.427 217.781C917.719 218.094 917.941 218.503 918.094 219.01C918.254 219.51 918.333 220.111 918.333 220.812V228.333H914.823V221.26C914.823 220.781 914.768 220.42 914.656 220.177C914.552 219.934 914.399 219.771 914.198 219.687C913.997 219.604 913.75 219.562 913.458 219.562C913.153 219.562 912.879 219.632 912.636 219.771C912.393 219.91 912.184 220.104 912.011 220.354C911.844 220.597 911.715 220.885 911.625 221.219C911.542 221.552 911.5 221.917 911.5 222.312ZM917.938 222.312L916.958 222.333C916.958 221.542 917.045 220.812 917.219 220.146C917.399 219.479 917.667 218.899 918.021 218.406C918.382 217.913 918.83 217.531 919.365 217.26C919.899 216.99 920.521 216.854 921.229 216.854C921.743 216.854 922.215 216.93 922.646 217.083C923.077 217.236 923.448 217.483 923.761 217.823C924.073 218.163 924.316 218.615 924.49 219.177C924.663 219.733 924.75 220.42 924.75 221.24V228.333H921.229V221.24C921.229 220.774 921.174 220.424 921.063 220.187C920.958 219.944 920.806 219.781 920.604 219.698C920.403 219.608 920.163 219.562 919.886 219.562C919.552 219.562 919.264 219.632 919.021 219.771C918.778 219.91 918.573 220.104 918.406 220.354C918.247 220.597 918.129 220.885 918.052 221.219C917.976 221.552 917.938 221.917 917.938 222.312ZM932.615 225.5V220.854C932.615 220.535 932.57 220.26 932.479 220.031C932.389 219.802 932.247 219.625 932.052 219.5C931.858 219.368 931.597 219.302 931.271 219.302C931.007 219.302 930.781 219.347 930.594 219.437C930.406 219.528 930.264 219.663 930.167 219.844C930.07 220.024 930.021 220.253 930.021 220.531H926.511C926.511 220.01 926.625 219.528 926.854 219.083C927.09 218.632 927.424 218.24 927.854 217.906C928.292 217.573 928.813 217.316 929.417 217.135C930.028 216.948 930.708 216.854 931.458 216.854C932.354 216.854 933.153 217.003 933.854 217.302C934.563 217.601 935.122 218.049 935.531 218.646C935.941 219.236 936.146 219.979 936.146 220.875V225.49C936.146 226.226 936.188 226.785 936.271 227.167C936.354 227.542 936.472 227.871 936.625 228.156V228.333H933.104C932.938 227.986 932.813 227.562 932.729 227.062C932.653 226.555 932.615 226.035 932.615 225.5ZM933.042 221.448L933.063 223.323H931.511C931.184 223.323 930.906 223.368 930.677 223.458C930.455 223.549 930.274 223.674 930.136 223.833C930.004 223.986 929.906 224.16 929.844 224.354C929.788 224.549 929.761 224.753 929.761 224.969C929.761 225.177 929.809 225.365 929.906 225.531C930.011 225.691 930.149 225.816 930.323 225.906C930.497 225.996 930.691 226.042 930.906 226.042C931.295 226.042 931.625 225.969 931.896 225.823C932.174 225.67 932.386 225.486 932.531 225.271C932.677 225.055 932.75 224.854 932.75 224.667L933.521 226.104C933.382 226.382 933.222 226.663 933.042 226.948C932.868 227.233 932.649 227.496 932.386 227.74C932.129 227.976 931.813 228.17 931.438 228.323C931.063 228.469 930.608 228.542 930.073 228.542C929.379 228.542 928.74 228.399 928.156 228.115C927.58 227.83 927.118 227.434 926.771 226.927C926.424 226.413 926.25 225.823 926.25 225.156C926.25 224.573 926.354 224.052 926.563 223.594C926.778 223.135 927.101 222.746 927.531 222.427C927.962 222.108 928.511 221.865 929.177 221.698C929.844 221.531 930.629 221.448 931.531 221.448H933.042Z" fill="white"/>
</svg>
