<svg width="1363" height="167" viewBox="0 0 1363 167" fill="none" xmlns="http://www.w3.org/2000/svg">
<rect width="1363" height="167" rx="15" fill="#F0F0F0"/>
<path d="M0 15C0 6.71573 6.71573 0 15 0H37V167H15C6.71573 167 0 160.284 0 152V15Z" fill="#424241"/>
<path d="M100.906 54.9219L93.3945 52.2383V49.0859L103.602 53.375V55.6367L100.906 54.9219ZM93.3945 57.1719L100.918 54.4297L103.602 53.7852V56.0352L93.3945 60.3242V57.1719ZM118.543 55.918H114.195V53.1758H118.543C119.215 53.1758 119.762 53.0664 120.184 52.8477C120.605 52.6211 120.914 52.3086 121.109 51.9102C121.305 51.5117 121.402 51.0625 121.402 50.5625C121.402 50.0547 121.305 49.582 121.109 49.1445C120.914 48.707 120.605 48.3555 120.184 48.0898C119.762 47.8242 119.215 47.6914 118.543 47.6914H115.414V62H111.898V44.9375H118.543C119.879 44.9375 121.023 45.1797 121.977 45.6641C122.938 46.1406 123.672 46.8008 124.18 47.6445C124.688 48.4883 124.941 49.4531 124.941 50.5391C124.941 51.6406 124.688 52.5938 124.18 53.3984C123.672 54.2031 122.938 54.8242 121.977 55.2617C121.023 55.6992 119.879 55.918 118.543 55.918ZM130.531 52.0859V62H127.156V49.3203H130.332L130.531 52.0859ZM134.352 49.2383L134.293 52.3672C134.129 52.3438 133.93 52.3242 133.695 52.3086C133.469 52.2852 133.262 52.2734 133.074 52.2734C132.598 52.2734 132.184 52.3359 131.832 52.4609C131.488 52.5781 131.199 52.7539 130.965 52.9883C130.738 53.2227 130.566 53.5078 130.449 53.8438C130.34 54.1797 130.277 54.5625 130.262 54.9922L129.582 54.7812C129.582 53.9609 129.664 53.207 129.828 52.5195C129.992 51.8242 130.23 51.2188 130.543 50.7031C130.863 50.1875 131.254 49.7891 131.715 49.5078C132.176 49.2266 132.703 49.0859 133.297 49.0859C133.484 49.0859 133.676 49.1016 133.871 49.1328C134.066 49.1562 134.227 49.1914 134.352 49.2383ZM135.055 55.7891V55.543C135.055 54.6133 135.188 53.7578 135.453 52.9766C135.719 52.1875 136.105 51.5039 136.613 50.9258C137.121 50.3477 137.746 49.8984 138.488 49.5781C139.23 49.25 140.082 49.0859 141.043 49.0859C142.004 49.0859 142.859 49.25 143.609 49.5781C144.359 49.8984 144.988 50.3477 145.496 50.9258C146.012 51.5039 146.402 52.1875 146.668 52.9766C146.934 53.7578 147.066 54.6133 147.066 55.543V55.7891C147.066 56.7109 146.934 57.5664 146.668 58.3555C146.402 59.1367 146.012 59.8203 145.496 60.4062C144.988 60.9844 144.363 61.4336 143.621 61.7539C142.879 62.0742 142.027 62.2344 141.066 62.2344C140.105 62.2344 139.25 62.0742 138.5 61.7539C137.758 61.4336 137.129 60.9844 136.613 60.4062C136.105 59.8203 135.719 59.1367 135.453 58.3555C135.188 57.5664 135.055 56.7109 135.055 55.7891ZM138.43 55.543V55.7891C138.43 56.3203 138.477 56.8164 138.57 57.2773C138.664 57.7383 138.812 58.1445 139.016 58.4961C139.227 58.8398 139.5 59.1094 139.836 59.3047C140.172 59.5 140.582 59.5977 141.066 59.5977C141.535 59.5977 141.938 59.5 142.273 59.3047C142.609 59.1094 142.879 58.8398 143.082 58.4961C143.285 58.1445 143.434 57.7383 143.527 57.2773C143.629 56.8164 143.68 56.3203 143.68 55.7891V55.543C143.68 55.0273 143.629 54.543 143.527 54.0898C143.434 53.6289 143.281 53.2227 143.07 52.8711C142.867 52.5117 142.598 52.2305 142.262 52.0273C141.926 51.8242 141.52 51.7227 141.043 51.7227C140.566 51.7227 140.16 51.8242 139.824 52.0273C139.496 52.2305 139.227 52.5117 139.016 52.8711C138.812 53.2227 138.664 53.6289 138.57 54.0898C138.477 54.543 138.43 55.0273 138.43 55.543ZM149.328 49.3203H152.715V62.7617C152.715 63.6992 152.543 64.4922 152.199 65.1406C151.855 65.7891 151.359 66.2812 150.711 66.6172C150.062 66.9531 149.277 67.1211 148.355 67.1211C148.066 67.1211 147.785 67.1055 147.512 67.0742C147.23 67.043 146.941 66.9922 146.645 66.9219L146.656 64.332C146.844 64.3633 147.027 64.3867 147.207 64.4023C147.379 64.4258 147.555 64.4375 147.734 64.4375C148.086 64.4375 148.379 64.3789 148.613 64.2617C148.848 64.1445 149.023 63.9609 149.141 63.7109C149.266 63.4688 149.328 63.1523 149.328 62.7617V49.3203ZM149.059 46.0156C149.059 45.5234 149.23 45.1172 149.574 44.7969C149.926 44.4766 150.387 44.3164 150.957 44.3164C151.535 44.3164 151.996 44.4766 152.34 44.7969C152.684 45.1172 152.855 45.5234 152.855 46.0156C152.855 46.5078 152.684 46.9141 152.34 47.2344C151.996 47.5547 151.535 47.7148 150.957 47.7148C150.387 47.7148 149.926 47.5547 149.574 47.2344C149.23 46.9141 149.059 46.5078 149.059 46.0156ZM161.234 62.2344C160.25 62.2344 159.367 62.0781 158.586 61.7656C157.805 61.4453 157.141 61.0039 156.594 60.4414C156.055 59.8789 155.641 59.2266 155.352 58.4844C155.062 57.7344 154.918 56.9375 154.918 56.0938V55.625C154.918 54.6641 155.055 53.7852 155.328 52.9883C155.602 52.1914 155.992 51.5 156.5 50.9141C157.016 50.3281 157.641 49.8789 158.375 49.5664C159.109 49.2461 159.938 49.0859 160.859 49.0859C161.758 49.0859 162.555 49.2344 163.25 49.5312C163.945 49.8281 164.527 50.25 164.996 50.7969C165.473 51.3438 165.832 52 166.074 52.7656C166.316 53.5234 166.438 54.3672 166.438 55.2969V56.7031H156.359V54.4531H163.121V54.1953C163.121 53.7266 163.035 53.3086 162.863 52.9414C162.699 52.5664 162.449 52.2695 162.113 52.0508C161.777 51.832 161.348 51.7227 160.824 51.7227C160.379 51.7227 159.996 51.8203 159.676 52.0156C159.355 52.2109 159.094 52.4844 158.891 52.8359C158.695 53.1875 158.547 53.6016 158.445 54.0781C158.352 54.5469 158.305 55.0625 158.305 55.625V56.0938C158.305 56.6016 158.375 57.0703 158.516 57.5C158.664 57.9297 158.871 58.3008 159.137 58.6133C159.41 58.9258 159.738 59.168 160.121 59.3398C160.512 59.5117 160.953 59.5977 161.445 59.5977C162.055 59.5977 162.621 59.4805 163.145 59.2461C163.676 59.0039 164.133 58.6406 164.516 58.1562L166.156 59.9375C165.891 60.3203 165.527 60.6875 165.066 61.0391C164.613 61.3906 164.066 61.6797 163.426 61.9062C162.785 62.125 162.055 62.2344 161.234 62.2344ZM173.598 59.5977C174.012 59.5977 174.379 59.5195 174.699 59.3633C175.02 59.1992 175.27 58.9727 175.449 58.6836C175.637 58.3867 175.734 58.0391 175.742 57.6406H178.918C178.91 58.5312 178.672 59.3242 178.203 60.0195C177.734 60.707 177.105 61.25 176.316 61.6484C175.527 62.0391 174.645 62.2344 173.668 62.2344C172.684 62.2344 171.824 62.0703 171.09 61.7422C170.363 61.4141 169.758 60.9609 169.273 60.3828C168.789 59.7969 168.426 59.1172 168.184 58.3438C167.941 57.5625 167.82 56.7266 167.82 55.8359V55.4961C167.82 54.5977 167.941 53.7617 168.184 52.9883C168.426 52.207 168.789 51.5273 169.273 50.9492C169.758 50.3633 170.363 49.9062 171.09 49.5781C171.816 49.25 172.668 49.0859 173.645 49.0859C174.684 49.0859 175.594 49.2852 176.375 49.6836C177.164 50.082 177.781 50.6523 178.227 51.3945C178.68 52.1289 178.91 53 178.918 54.0078H175.742C175.734 53.5859 175.645 53.2031 175.473 52.8594C175.309 52.5156 175.066 52.2422 174.746 52.0391C174.434 51.8281 174.047 51.7227 173.586 51.7227C173.094 51.7227 172.691 51.8281 172.379 52.0391C172.066 52.2422 171.824 52.5234 171.652 52.8828C171.48 53.2344 171.359 53.6367 171.289 54.0898C171.227 54.5352 171.195 55.0039 171.195 55.4961V55.8359C171.195 56.3281 171.227 56.8008 171.289 57.2539C171.352 57.707 171.469 58.1094 171.641 58.4609C171.82 58.8125 172.066 59.0898 172.379 59.293C172.691 59.4961 173.098 59.5977 173.598 59.5977ZM187.086 49.3203V51.7109H179.703V49.3203H187.086ZM181.531 46.1914H184.906V58.1797C184.906 58.5469 184.953 58.8281 185.047 59.0234C185.148 59.2188 185.297 59.3555 185.492 59.4336C185.688 59.5039 185.934 59.5391 186.23 59.5391C186.441 59.5391 186.629 59.5312 186.793 59.5156C186.965 59.4922 187.109 59.4688 187.227 59.4453L187.238 61.9297C186.949 62.0234 186.637 62.0977 186.301 62.1523C185.965 62.207 185.594 62.2344 185.188 62.2344C184.445 62.2344 183.797 62.1133 183.242 61.8711C182.695 61.6211 182.273 61.2227 181.977 60.6758C181.68 60.1289 181.531 59.4102 181.531 58.5195V46.1914ZM209.082 44.9375V62H205.566L198.711 50.5625V62H195.195V44.9375H198.711L205.578 56.3867V44.9375H209.082ZM218.773 59.1406V53.4922C218.773 53.0859 218.707 52.7383 218.574 52.4492C218.441 52.1523 218.234 51.9219 217.953 51.7578C217.68 51.5938 217.324 51.5117 216.887 51.5117C216.512 51.5117 216.188 51.5781 215.914 51.7109C215.641 51.8359 215.43 52.0195 215.281 52.2617C215.133 52.4961 215.059 52.7734 215.059 53.0938H211.684C211.684 52.5547 211.809 52.043 212.059 51.5586C212.309 51.0742 212.672 50.6484 213.148 50.2812C213.625 49.9062 214.191 49.6133 214.848 49.4023C215.512 49.1914 216.254 49.0859 217.074 49.0859C218.059 49.0859 218.934 49.25 219.699 49.5781C220.465 49.9062 221.066 50.3984 221.504 51.0547C221.949 51.7109 222.172 52.5312 222.172 53.5156V58.9414C222.172 59.6367 222.215 60.207 222.301 60.6523C222.387 61.0898 222.512 61.4727 222.676 61.8008V62H219.266C219.102 61.6562 218.977 61.2266 218.891 60.7109C218.812 60.1875 218.773 59.6641 218.773 59.1406ZM219.219 54.2773L219.242 56.1875H217.355C216.91 56.1875 216.523 56.2383 216.195 56.3398C215.867 56.4414 215.598 56.5859 215.387 56.7734C215.176 56.9531 215.02 57.1641 214.918 57.4062C214.824 57.6484 214.777 57.9141 214.777 58.2031C214.777 58.4922 214.844 58.7539 214.977 58.9883C215.109 59.2148 215.301 59.3945 215.551 59.5273C215.801 59.6523 216.094 59.7148 216.43 59.7148C216.938 59.7148 217.379 59.6133 217.754 59.4102C218.129 59.207 218.418 58.957 218.621 58.6602C218.832 58.3633 218.941 58.082 218.949 57.8164L219.84 59.2461C219.715 59.5664 219.543 59.8984 219.324 60.2422C219.113 60.5859 218.844 60.9102 218.516 61.2148C218.188 61.5117 217.793 61.7578 217.332 61.9531C216.871 62.1406 216.324 62.2344 215.691 62.2344C214.887 62.2344 214.156 62.0742 213.5 61.7539C212.852 61.4258 212.336 60.9766 211.953 60.4062C211.578 59.8281 211.391 59.1719 211.391 58.4375C211.391 57.7734 211.516 57.1836 211.766 56.668C212.016 56.1523 212.383 55.7188 212.867 55.3672C213.359 55.0078 213.973 54.7383 214.707 54.5586C215.441 54.3711 216.293 54.2773 217.262 54.2773H219.219ZM228.148 51.9453V62H224.762V49.3203H227.938L228.148 51.9453ZM227.68 55.2148H226.742C226.742 54.332 226.848 53.5195 227.059 52.7773C227.277 52.0273 227.594 51.3789 228.008 50.832C228.43 50.2773 228.949 49.8477 229.566 49.543C230.184 49.2383 230.898 49.0859 231.711 49.0859C232.273 49.0859 232.789 49.1719 233.258 49.3438C233.727 49.5078 234.129 49.7695 234.465 50.1289C234.809 50.4805 235.074 50.9414 235.262 51.5117C235.449 52.0742 235.543 52.75 235.543 53.5391V62H232.168V53.9141C232.168 53.3359 232.09 52.8906 231.934 52.5781C231.777 52.2656 231.555 52.0469 231.266 51.9219C230.984 51.7969 230.645 51.7344 230.246 51.7344C229.809 51.7344 229.426 51.8242 229.098 52.0039C228.777 52.1836 228.512 52.4336 228.301 52.7539C228.09 53.0664 227.934 53.4336 227.832 53.8555C227.73 54.2773 227.68 54.7305 227.68 55.2148ZM235.227 54.8281L234.02 54.9805C234.02 54.1523 234.121 53.3828 234.324 52.6719C234.535 51.9609 234.844 51.3359 235.25 50.7969C235.664 50.2578 236.176 49.8398 236.785 49.543C237.395 49.2383 238.098 49.0859 238.895 49.0859C239.504 49.0859 240.059 49.1758 240.559 49.3555C241.059 49.5273 241.484 49.8047 241.836 50.1875C242.195 50.5625 242.469 51.0547 242.656 51.6641C242.852 52.2734 242.949 53.0195 242.949 53.9023V62H239.562V53.9023C239.562 53.3164 239.484 52.8711 239.328 52.5664C239.18 52.2539 238.961 52.0391 238.672 51.9219C238.391 51.7969 238.055 51.7344 237.664 51.7344C237.258 51.7344 236.902 51.8164 236.598 51.9805C236.293 52.1367 236.039 52.3555 235.836 52.6367C235.633 52.918 235.48 53.2461 235.379 53.6211C235.277 53.9883 235.227 54.3906 235.227 54.8281ZM251.398 62.2344C250.414 62.2344 249.531 62.0781 248.75 61.7656C247.969 61.4453 247.305 61.0039 246.758 60.4414C246.219 59.8789 245.805 59.2266 245.516 58.4844C245.227 57.7344 245.082 56.9375 245.082 56.0938V55.625C245.082 54.6641 245.219 53.7852 245.492 52.9883C245.766 52.1914 246.156 51.5 246.664 50.9141C247.18 50.3281 247.805 49.8789 248.539 49.5664C249.273 49.2461 250.102 49.0859 251.023 49.0859C251.922 49.0859 252.719 49.2344 253.414 49.5312C254.109 49.8281 254.691 50.25 255.16 50.7969C255.637 51.3438 255.996 52 256.238 52.7656C256.48 53.5234 256.602 54.3672 256.602 55.2969V56.7031H246.523V54.4531H253.285V54.1953C253.285 53.7266 253.199 53.3086 253.027 52.9414C252.863 52.5664 252.613 52.2695 252.277 52.0508C251.941 51.832 251.512 51.7227 250.988 51.7227C250.543 51.7227 250.16 51.8203 249.84 52.0156C249.52 52.2109 249.258 52.4844 249.055 52.8359C248.859 53.1875 248.711 53.6016 248.609 54.0781C248.516 54.5469 248.469 55.0625 248.469 55.625V56.0938C248.469 56.6016 248.539 57.0703 248.68 57.5C248.828 57.9297 249.035 58.3008 249.301 58.6133C249.574 58.9258 249.902 59.168 250.285 59.3398C250.676 59.5117 251.117 59.5977 251.609 59.5977C252.219 59.5977 252.785 59.4805 253.309 59.2461C253.84 59.0039 254.297 58.6406 254.68 58.1562L256.32 59.9375C256.055 60.3203 255.691 60.6875 255.23 61.0391C254.777 61.3906 254.23 61.6797 253.59 61.9062C252.949 62.125 252.219 62.2344 251.398 62.2344Z" fill="#888888"/>
<path d="M115.994 95.708V101.641H99.5806V95.708H115.994ZM102.151 83.0078V115H94.439V83.0078H102.151ZM121.18 83.0078V115H113.489V83.0078H121.18ZM124.805 103.354V102.893C124.805 101.15 125.054 99.5459 125.552 98.0811C126.05 96.6016 126.783 95.3198 127.75 94.2358C128.716 93.1519 129.91 92.3096 131.331 91.709C132.752 91.0938 134.393 90.7861 136.253 90.7861C138.128 90.7861 139.776 91.0938 141.197 91.709C142.632 92.3096 143.833 93.1519 144.8 94.2358C145.767 95.3198 146.5 96.6016 146.998 98.0811C147.496 99.5459 147.745 101.15 147.745 102.893V103.354C147.745 105.083 147.496 106.687 146.998 108.167C146.5 109.631 145.767 110.913 144.8 112.012C143.833 113.096 142.64 113.938 141.219 114.539C139.798 115.139 138.157 115.439 136.297 115.439C134.437 115.439 132.789 115.139 131.353 114.539C129.917 113.938 128.716 113.096 127.75 112.012C126.783 110.913 126.05 109.631 125.552 108.167C125.054 106.687 124.805 105.083 124.805 103.354ZM132.21 102.893V103.354C132.21 104.248 132.276 105.083 132.408 105.859C132.54 106.636 132.759 107.317 133.067 107.903C133.375 108.474 133.792 108.921 134.319 109.243C134.847 109.565 135.506 109.727 136.297 109.727C137.073 109.727 137.718 109.565 138.23 109.243C138.758 108.921 139.175 108.474 139.483 107.903C139.791 107.317 140.01 106.636 140.142 105.859C140.274 105.083 140.34 104.248 140.34 103.354V102.893C140.34 102.029 140.274 101.216 140.142 100.454C140.01 99.6777 139.791 98.9966 139.483 98.4106C139.175 97.8101 138.758 97.3413 138.23 97.0044C137.703 96.6675 137.044 96.499 136.253 96.499C135.477 96.499 134.825 96.6675 134.297 97.0044C133.785 97.3413 133.375 97.8101 133.067 98.4106C132.759 98.9966 132.54 99.6777 132.408 100.454C132.276 101.216 132.21 102.029 132.21 102.893ZM158.27 107.925L162.664 91.2256H167.3L165.652 99.5972L161.302 115H157.588L158.27 107.925ZM156.534 91.2256L159.258 107.793L159.566 115H155.062L149.437 91.2256H156.534ZM171.211 107.441L173.958 91.2256H181.055L175.474 115H170.97L171.211 107.441ZM167.828 91.2256L172.266 107.881L172.947 115H169.19L164.927 99.6411L163.345 91.2256H167.828ZM209.466 83.0078V115H201.753V83.0078H209.466ZM219.09 83.0078V88.9624H192.349V83.0078H219.09ZM216.475 103.354V102.893C216.475 101.15 216.724 99.5459 217.222 98.0811C217.72 96.6016 218.453 95.3198 219.419 94.2358C220.386 93.1519 221.58 92.3096 223.001 91.709C224.422 91.0938 226.062 90.7861 227.923 90.7861C229.798 90.7861 231.446 91.0938 232.867 91.709C234.302 92.3096 235.503 93.1519 236.47 94.2358C237.437 95.3198 238.169 96.6016 238.667 98.0811C239.166 99.5459 239.415 101.15 239.415 102.893V103.354C239.415 105.083 239.166 106.687 238.667 108.167C238.169 109.631 237.437 110.913 236.47 112.012C235.503 113.096 234.31 113.938 232.889 114.539C231.468 115.139 229.827 115.439 227.967 115.439C226.106 115.439 224.458 115.139 223.023 114.539C221.587 113.938 220.386 113.096 219.419 112.012C218.453 110.913 217.72 109.631 217.222 108.167C216.724 106.687 216.475 105.083 216.475 103.354ZM223.88 102.893V103.354C223.88 104.248 223.946 105.083 224.078 105.859C224.209 106.636 224.429 107.317 224.737 107.903C225.044 108.474 225.462 108.921 225.989 109.243C226.517 109.565 227.176 109.727 227.967 109.727C228.743 109.727 229.388 109.565 229.9 109.243C230.428 108.921 230.845 108.474 231.153 107.903C231.46 107.317 231.68 106.636 231.812 105.859C231.944 105.083 232.01 104.248 232.01 103.354V102.893C232.01 102.029 231.944 101.216 231.812 100.454C231.68 99.6777 231.46 98.9966 231.153 98.4106C230.845 97.8101 230.428 97.3413 229.9 97.0044C229.373 96.6675 228.714 96.499 227.923 96.499C227.146 96.499 226.495 96.6675 225.967 97.0044C225.455 97.3413 225.044 97.8101 224.737 98.4106C224.429 98.9966 224.209 99.6777 224.078 100.454C223.946 101.216 223.88 102.029 223.88 102.893ZM254.268 83.0078H266.858C269.319 83.0078 271.458 83.374 273.274 84.1064C275.091 84.8389 276.49 85.9229 277.471 87.3584C278.467 88.7939 278.965 90.5664 278.965 92.6758C278.965 94.5068 278.68 96.0376 278.108 97.2681C277.537 98.4985 276.739 99.5166 275.713 100.322C274.703 101.113 273.523 101.765 272.176 102.278L269.649 103.706H259.08L259.036 97.7515H266.858C267.84 97.7515 268.653 97.5757 269.297 97.2241C269.942 96.8726 270.425 96.3745 270.748 95.73C271.084 95.0708 271.253 94.2871 271.253 93.3789C271.253 92.4561 271.084 91.665 270.748 91.0059C270.411 90.3467 269.913 89.8413 269.253 89.4897C268.609 89.1382 267.811 88.9624 266.858 88.9624H261.98V115H254.268V83.0078ZM271.78 115L264.705 100.85L272.879 100.806L280.042 114.67V115H271.78ZM297.159 109.221V91.2256H304.585V115H297.642L297.159 109.221ZM297.862 104.387L299.795 104.343C299.795 105.94 299.605 107.419 299.224 108.782C298.843 110.129 298.279 111.301 297.532 112.297C296.8 113.293 295.892 114.07 294.808 114.626C293.738 115.168 292.5 115.439 291.094 115.439C289.922 115.439 288.846 115.278 287.864 114.956C286.897 114.619 286.062 114.099 285.359 113.396C284.656 112.678 284.107 111.763 283.711 110.649C283.331 109.521 283.14 108.174 283.14 106.606V91.2256H290.545V106.65C290.545 107.178 290.611 107.632 290.743 108.013C290.875 108.394 291.065 108.716 291.314 108.979C291.563 109.229 291.871 109.419 292.237 109.551C292.618 109.668 293.05 109.727 293.533 109.727C294.646 109.727 295.518 109.492 296.148 109.023C296.778 108.555 297.217 107.917 297.466 107.112C297.73 106.306 297.862 105.398 297.862 104.387ZM315.945 96.3013V115H308.541V91.2256H315.484L315.945 96.3013ZM315.066 102.3L313.331 102.344C313.331 100.527 313.55 98.9087 313.99 97.4878C314.429 96.0522 315.052 94.8364 315.857 93.8403C316.663 92.8442 317.623 92.0898 318.736 91.5771C319.864 91.0498 321.116 90.7861 322.493 90.7861C323.592 90.7861 324.595 90.9473 325.503 91.2695C326.426 91.5918 327.217 92.1118 327.876 92.8296C328.55 93.5474 329.063 94.4995 329.415 95.686C329.781 96.8579 329.964 98.3081 329.964 100.037V115H322.515V100.015C322.515 99.0625 322.383 98.3374 322.12 97.8394C321.856 97.3267 321.475 96.9751 320.977 96.7847C320.479 96.5942 319.871 96.499 319.153 96.499C318.392 96.499 317.747 96.6455 317.22 96.9385C316.692 97.2314 316.268 97.6416 315.945 98.1689C315.638 98.6816 315.411 99.2896 315.264 99.9927C315.132 100.696 315.066 101.465 315.066 102.3ZM345.85 104.871H339.544C339.544 103.582 339.632 102.446 339.808 101.465C339.998 100.469 340.32 99.5752 340.774 98.7842C341.229 97.9932 341.844 97.2607 342.62 96.5869C343.309 96.0156 343.902 95.4663 344.4 94.939C344.898 94.4116 345.279 93.877 345.542 93.335C345.806 92.793 345.938 92.2144 345.938 91.5991C345.938 90.8374 345.828 90.2148 345.608 89.7314C345.403 89.248 345.088 88.8892 344.664 88.6548C344.253 88.4058 343.733 88.2812 343.104 88.2812C342.591 88.2812 342.107 88.4058 341.653 88.6548C341.214 88.9038 340.855 89.292 340.577 89.8193C340.298 90.332 340.145 91.0132 340.115 91.8628H332.667C332.71 89.6802 333.194 87.9077 334.117 86.5454C335.054 85.1685 336.299 84.165 337.852 83.5352C339.419 82.8906 341.17 82.5684 343.104 82.5684C345.242 82.5684 347.081 82.8979 348.619 83.5571C350.157 84.2163 351.336 85.1978 352.156 86.5015C352.977 87.7905 353.387 89.3799 353.387 91.2695C353.387 92.5293 353.145 93.6279 352.662 94.5654C352.193 95.4883 351.556 96.3525 350.75 97.1582C349.959 97.9492 349.073 98.7988 348.091 99.707C347.242 100.454 346.663 101.216 346.355 101.992C346.048 102.754 345.879 103.713 345.85 104.871ZM338.643 111.55C338.643 110.496 339.024 109.617 339.786 108.914C340.547 108.196 341.536 107.837 342.752 107.837C343.968 107.837 344.957 108.196 345.718 108.914C346.48 109.617 346.861 110.496 346.861 111.55C346.861 112.605 346.48 113.491 345.718 114.209C344.957 114.912 343.968 115.264 342.752 115.264C341.536 115.264 340.547 114.912 339.786 114.209C339.024 113.491 338.643 112.605 338.643 111.55Z" fill="#424241"/>
<path d="M1363 15C1363 6.71573 1356.28 0 1348 0H1134V167H1348C1356.28 167 1363 160.284 1363 152V15Z" fill="#00DD02"/>
<path d="M1260.77 81.3079C1263.96 81.3079 1267.09 82.2553 1269.74 84.0303C1272.4 85.8053 1274.47 88.3282 1275.69 91.2799C1276.92 94.2317 1277.24 97.4797 1276.61 100.613C1275.99 103.747 1274.45 106.625 1272.19 108.884C1269.93 111.143 1267.05 112.682 1263.92 113.305C1260.79 113.928 1257.54 113.609 1254.59 112.386C1251.64 111.163 1249.11 109.093 1247.34 106.436C1245.56 103.78 1244.62 100.657 1244.62 97.4617C1244.62 93.1775 1246.32 89.0687 1249.35 86.0393C1252.38 83.0099 1256.49 81.3079 1260.77 81.3079V81.3079ZM1260.77 75.9233C1256.51 75.9233 1252.35 77.1865 1248.8 79.5532C1245.26 81.9199 1242.5 85.2837 1240.87 89.2193C1239.24 93.155 1238.81 97.4856 1239.64 101.664C1240.48 105.842 1242.53 109.679 1245.54 112.692C1248.55 115.704 1252.39 117.755 1256.57 118.586C1260.75 119.417 1265.08 118.991 1269.01 117.361C1272.95 115.73 1276.31 112.97 1278.68 109.428C1281.04 105.886 1282.31 101.722 1282.31 97.4617C1282.31 91.7494 1280.04 86.271 1276 82.2318C1271.96 78.1926 1266.48 75.9233 1260.77 75.9233Z" fill="white"/>
<path d="M1274.23 49H1220.38C1218.96 49 1217.59 49.5673 1216.58 50.5771C1215.57 51.5869 1215 52.9565 1215 54.3846V108.231C1215 109.659 1215.57 111.028 1216.58 112.038C1217.59 113.048 1218.96 113.615 1220.38 113.615H1231.15V108.231H1220.38V70.5384H1279.62V54.3846C1279.62 52.9565 1279.05 51.5869 1278.04 50.5771C1277.03 49.5673 1275.66 49 1274.23 49V49ZM1220.38 65.1538V54.3846H1274.23V65.1538H1220.38Z" fill="white"/>
<path d="M1255.38 89.3848V105.539L1268.85 97.4617L1255.38 89.3848Z" fill="white"/>
</svg>
