<svg width="1363" height="282" viewBox="0 0 1363 282" fill="none" xmlns="http://www.w3.org/2000/svg">
<rect width="1363" height="282" rx="10" fill="#F0F0F0"/>
<path d="M0 10C0 4.47716 4.47715 0 10 0H37V282H10C4.47715 282 0 277.523 0 272V10Z" fill="#00DD02"/>
<path d="M105.33 69.7368V52.1172H108.611V69.7368C108.611 71.3774 108.275 72.7617 107.603 73.8896C106.931 75.0176 106.002 75.8778 104.817 76.4702C103.644 77.0513 102.294 77.3418 100.767 77.3418C99.2404 77.3418 97.8846 77.0798 96.6997 76.5557C95.5148 76.0316 94.5863 75.234 93.9141 74.1631C93.2419 73.0921 92.9058 71.742 92.9058 70.1128H96.2041C96.2041 71.161 96.3978 72.0212 96.7852 72.6934C97.1725 73.3656 97.708 73.8612 98.3916 74.1802C99.0866 74.4992 99.8784 74.6587 100.767 74.6587C101.633 74.6587 102.408 74.4764 103.091 74.1118C103.786 73.7358 104.333 73.1833 104.732 72.4541C105.131 71.7135 105.33 70.8078 105.33 69.7368ZM125.035 72.7275V58.5088H128.213V77H125.188L125.035 72.7275ZM125.633 68.8311L126.949 68.7969C126.949 70.0273 126.818 71.1667 126.556 72.2148C126.305 73.2516 125.895 74.1517 125.325 74.915C124.756 75.6784 124.009 76.2765 123.086 76.7095C122.164 77.131 121.041 77.3418 119.72 77.3418C118.82 77.3418 117.994 77.2108 117.242 76.9487C116.501 76.6867 115.863 76.2822 115.328 75.7354C114.792 75.1885 114.376 74.4764 114.08 73.5991C113.795 72.7218 113.653 71.668 113.653 70.4375V58.5088H116.814V70.4717C116.814 71.3034 116.906 71.9927 117.088 72.5396C117.282 73.075 117.538 73.5023 117.857 73.8213C118.187 74.1289 118.552 74.3454 118.951 74.4707C119.361 74.596 119.782 74.6587 120.215 74.6587C121.56 74.6587 122.625 74.4023 123.411 73.8896C124.197 73.3656 124.761 72.6649 125.103 71.7876C125.456 70.8989 125.633 69.9134 125.633 68.8311ZM136.468 50.75V77H133.289V50.75H136.468ZM144.979 58.5088V77H141.8V58.5088H144.979ZM141.561 53.604C141.561 53.0913 141.714 52.6584 142.022 52.3052C142.341 51.952 142.808 51.7754 143.423 51.7754C144.027 51.7754 144.489 51.952 144.808 52.3052C145.138 52.6584 145.303 53.0913 145.303 53.604C145.303 54.0939 145.138 54.5155 144.808 54.8687C144.489 55.2104 144.027 55.3813 143.423 55.3813C142.808 55.3813 142.341 55.2104 142.022 54.8687C141.714 54.5155 141.561 54.0939 141.561 53.604ZM157.728 77.3418C156.44 77.3418 155.272 77.1253 154.224 76.6924C153.187 76.248 152.293 75.6271 151.541 74.8296C150.8 74.0321 150.231 73.0864 149.832 71.9927C149.433 70.8989 149.234 69.7026 149.234 68.4038V67.686C149.234 66.1821 149.456 64.8434 149.9 63.6699C150.345 62.485 150.949 61.4824 151.712 60.6621C152.475 59.8418 153.341 59.2209 154.31 58.7993C155.278 58.3778 156.281 58.167 157.317 58.167C158.639 58.167 159.778 58.3949 160.735 58.8506C161.704 59.3063 162.496 59.9443 163.111 60.7646C163.726 61.5736 164.182 62.5306 164.478 63.6357C164.774 64.7295 164.922 65.9258 164.922 67.2246V68.6431H151.114V66.0625H161.761V65.8232C161.715 65.0029 161.544 64.2054 161.248 63.4307C160.963 62.6559 160.507 62.0179 159.881 61.5166C159.254 61.0153 158.4 60.7646 157.317 60.7646C156.6 60.7646 155.939 60.9185 155.335 61.2261C154.731 61.5223 154.213 61.9666 153.78 62.5591C153.347 63.1515 153.011 63.875 152.771 64.7295C152.532 65.584 152.413 66.5695 152.413 67.686V68.4038C152.413 69.2811 152.532 70.1071 152.771 70.8818C153.022 71.6452 153.381 72.3174 153.848 72.8984C154.327 73.4795 154.902 73.9352 155.574 74.2656C156.258 74.596 157.033 74.7612 157.898 74.7612C159.015 74.7612 159.961 74.5334 160.735 74.0776C161.51 73.6219 162.188 73.0124 162.769 72.249L164.683 73.77C164.284 74.3739 163.777 74.9492 163.162 75.4961C162.547 76.043 161.789 76.4873 160.889 76.8291C160 77.1709 158.947 77.3418 157.728 77.3418ZM171.775 62.4565V77H168.614V58.5088H171.604L171.775 62.4565ZM171.023 67.0537L169.708 67.0024C169.719 65.7378 169.907 64.57 170.271 63.499C170.636 62.4167 171.149 61.4767 171.81 60.6792C172.47 59.8817 173.257 59.2664 174.168 58.8335C175.091 58.3892 176.111 58.167 177.227 58.167C178.139 58.167 178.959 58.2923 179.688 58.543C180.417 58.7822 181.038 59.1696 181.551 59.7051C182.075 60.2406 182.474 60.9355 182.747 61.79C183.021 62.6331 183.157 63.6642 183.157 64.8833V77H179.979V64.8491C179.979 63.8807 179.836 63.106 179.551 62.5249C179.266 61.9325 178.851 61.5052 178.304 61.2432C177.757 60.9697 177.085 60.833 176.287 60.833C175.501 60.833 174.783 60.9982 174.134 61.3286C173.496 61.659 172.943 62.1147 172.476 62.6958C172.02 63.2769 171.661 63.9434 171.399 64.6953C171.149 65.4359 171.023 66.222 171.023 67.0537ZM213.372 62.8154V65.4985H199.905V62.8154H213.372ZM200.418 52.1172V77H197.12V52.1172H200.418ZM216.243 52.1172V77H212.962V52.1172H216.243ZM220.789 67.9595V67.5664C220.789 66.2334 220.983 64.9972 221.37 63.8579C221.757 62.7072 222.316 61.7103 223.045 60.8672C223.774 60.0127 224.657 59.3519 225.694 58.8848C226.731 58.4062 227.893 58.167 229.18 58.167C230.479 58.167 231.647 58.4062 232.684 58.8848C233.732 59.3519 234.62 60.0127 235.35 60.8672C236.09 61.7103 236.654 62.7072 237.042 63.8579C237.429 64.9972 237.623 66.2334 237.623 67.5664V67.9595C237.623 69.2925 237.429 70.5286 237.042 71.668C236.654 72.8073 236.09 73.8042 235.35 74.6587C234.62 75.5018 233.737 76.1626 232.701 76.6411C231.675 77.1082 230.513 77.3418 229.214 77.3418C227.916 77.3418 226.748 77.1082 225.711 76.6411C224.674 76.1626 223.785 75.5018 223.045 74.6587C222.316 73.8042 221.757 72.8073 221.37 71.668C220.983 70.5286 220.789 69.2925 220.789 67.9595ZM223.951 67.5664V67.9595C223.951 68.8823 224.059 69.7539 224.275 70.5742C224.492 71.3831 224.817 72.1009 225.25 72.7275C225.694 73.3542 226.246 73.8498 226.907 74.2144C227.568 74.5675 228.337 74.7441 229.214 74.7441C230.08 74.7441 230.838 74.5675 231.487 74.2144C232.148 73.8498 232.695 73.3542 233.128 72.7275C233.561 72.1009 233.886 71.3831 234.102 70.5742C234.33 69.7539 234.444 68.8823 234.444 67.9595V67.5664C234.444 66.6549 234.33 65.7948 234.102 64.9858C233.886 64.1655 233.555 63.4421 233.111 62.8154C232.678 62.1774 232.131 61.6761 231.47 61.3115C230.821 60.9469 230.057 60.7646 229.18 60.7646C228.314 60.7646 227.551 60.9469 226.89 61.3115C226.241 61.6761 225.694 62.1774 225.25 62.8154C224.817 63.4421 224.492 64.1655 224.275 64.9858C224.059 65.7948 223.951 66.6549 223.951 67.5664ZM252.354 72.0952C252.354 71.6395 252.251 71.2179 252.046 70.8306C251.853 70.4318 251.448 70.0729 250.833 69.7539C250.229 69.4235 249.318 69.1387 248.099 68.8994C247.073 68.6829 246.145 68.4266 245.313 68.1304C244.493 67.8341 243.792 67.4753 243.211 67.0537C242.641 66.6322 242.203 66.1366 241.895 65.5669C241.587 64.9972 241.434 64.3307 241.434 63.5674C241.434 62.8382 241.593 62.1489 241.912 61.4995C242.243 60.8501 242.704 60.2747 243.296 59.7734C243.9 59.2721 244.624 58.8791 245.467 58.5942C246.31 58.3094 247.25 58.167 248.287 58.167C249.768 58.167 251.032 58.429 252.081 58.9531C253.129 59.4772 253.932 60.1779 254.49 61.0552C255.049 61.9211 255.328 62.8838 255.328 63.9434H252.166C252.166 63.4307 252.012 62.9351 251.705 62.4565C251.408 61.9666 250.97 61.5622 250.389 61.2432C249.819 60.9242 249.118 60.7646 248.287 60.7646C247.409 60.7646 246.697 60.9014 246.15 61.1748C245.615 61.4368 245.222 61.7729 244.971 62.1831C244.732 62.5933 244.612 63.0262 244.612 63.4819C244.612 63.8237 244.669 64.1313 244.783 64.4048C244.909 64.6668 245.125 64.9118 245.433 65.1396C245.74 65.3561 246.173 65.5612 246.731 65.7549C247.29 65.9486 248.002 66.1423 248.868 66.3359C250.383 66.6777 251.631 67.0879 252.61 67.5664C253.59 68.0449 254.319 68.6317 254.798 69.3267C255.276 70.0216 255.516 70.8647 255.516 71.856C255.516 72.6649 255.345 73.4054 255.003 74.0776C254.673 74.7498 254.188 75.3309 253.55 75.8208C252.924 76.2993 252.172 76.6753 251.294 76.9487C250.429 77.2108 249.454 77.3418 248.372 77.3418C246.743 77.3418 245.364 77.0513 244.236 76.4702C243.108 75.8892 242.254 75.1372 241.673 74.2144C241.092 73.2915 240.801 72.3174 240.801 71.292H243.98C244.026 72.1579 244.276 72.8472 244.732 73.3599C245.188 73.8612 245.746 74.2201 246.407 74.4365C247.068 74.6416 247.723 74.7441 248.372 74.7441C249.238 74.7441 249.961 74.6302 250.542 74.4023C251.135 74.1745 251.585 73.8612 251.893 73.4624C252.2 73.0636 252.354 72.6079 252.354 72.0952ZM262.83 61.4141V77H259.668V58.5088H262.745L262.83 61.4141ZM268.606 58.4062L268.589 61.3457C268.327 61.2887 268.077 61.2546 267.837 61.2432C267.61 61.2204 267.347 61.209 267.051 61.209C266.322 61.209 265.678 61.3229 265.12 61.5508C264.562 61.7786 264.089 62.0977 263.702 62.5078C263.314 62.918 263.007 63.4079 262.779 63.9775C262.562 64.5358 262.42 65.151 262.352 65.8232L261.463 66.3359C261.463 65.2194 261.571 64.1712 261.788 63.1914C262.015 62.2116 262.363 61.3457 262.83 60.5938C263.297 59.8304 263.89 59.238 264.607 58.8164C265.337 58.3835 266.202 58.167 267.205 58.167C267.433 58.167 267.695 58.1955 267.991 58.2524C268.287 58.298 268.493 58.3493 268.606 58.4062ZM274.964 58.5088V77H271.785V58.5088H274.964ZM271.546 53.604C271.546 53.0913 271.7 52.6584 272.007 52.3052C272.326 51.952 272.793 51.7754 273.409 51.7754C274.013 51.7754 274.474 51.952 274.793 52.3052C275.123 52.6584 275.289 53.0913 275.289 53.604C275.289 54.0939 275.123 54.5155 274.793 54.8687C274.474 55.2104 274.013 55.3813 273.409 55.3813C272.793 55.3813 272.326 55.2104 272.007 54.8687C271.7 54.5155 271.546 54.0939 271.546 53.604ZM115.123 130.607C115.123 129.998 115.033 129.452 114.854 128.969C114.675 128.467 114.344 128.002 113.86 127.572C113.377 127.143 112.679 126.713 111.766 126.283C110.87 125.836 109.689 125.37 108.221 124.887C106.502 124.314 104.846 123.669 103.252 122.953C101.659 122.219 100.236 121.369 98.9824 120.402C97.7292 119.417 96.7355 118.271 96.0015 116.964C95.2674 115.639 94.9004 114.1 94.9004 112.345C94.9004 110.662 95.2764 109.149 96.0283 107.807C96.7803 106.446 97.8276 105.291 99.1704 104.342C100.531 103.375 102.125 102.641 103.951 102.14C105.777 101.621 107.773 101.361 109.939 101.361C112.804 101.361 115.328 101.863 117.513 102.865C119.715 103.85 121.434 105.255 122.669 107.082C123.922 108.89 124.549 111.029 124.549 113.5H115.176C115.176 112.515 114.97 111.647 114.559 110.895C114.165 110.143 113.565 109.552 112.759 109.123C111.954 108.693 110.942 108.478 109.725 108.478C108.543 108.478 107.549 108.657 106.744 109.015C105.938 109.373 105.329 109.857 104.917 110.465C104.506 111.056 104.3 111.71 104.3 112.426C104.3 113.017 104.461 113.554 104.783 114.037C105.123 114.503 105.598 114.941 106.207 115.353C106.833 115.765 107.585 116.159 108.462 116.535C109.358 116.911 110.36 117.278 111.47 117.636C113.547 118.298 115.391 119.041 117.002 119.865C118.632 120.67 120.001 121.592 121.111 122.631C122.239 123.651 123.09 124.815 123.663 126.122C124.253 127.429 124.549 128.906 124.549 130.553C124.549 132.308 124.209 133.865 123.528 135.226C122.848 136.587 121.872 137.742 120.601 138.69C119.33 139.621 117.808 140.329 116.036 140.812C114.263 141.295 112.285 141.537 110.101 141.537C108.095 141.537 106.117 141.286 104.166 140.785C102.232 140.266 100.477 139.478 98.9019 138.422C97.3263 137.348 96.0641 135.978 95.1152 134.313C94.1842 132.63 93.7188 130.634 93.7188 128.324H103.172C103.172 129.47 103.324 130.437 103.628 131.225C103.933 132.012 104.38 132.648 104.971 133.131C105.562 133.597 106.287 133.937 107.146 134.152C108.006 134.349 108.991 134.447 110.101 134.447C111.3 134.447 112.267 134.277 113.001 133.937C113.735 133.579 114.272 133.113 114.612 132.541C114.952 131.95 115.123 131.305 115.123 130.607ZM156.319 133.749V141H135.479V133.749H156.319ZM138.836 101.898V141H129.41V101.898H138.836ZM153.633 117.421V124.43H135.479V117.421H153.633ZM156.399 101.898V109.176H135.479V101.898H156.399ZM169.612 101.898V141H160.186V101.898H169.612ZM184.812 118.173V125.424H166.927V118.173H184.812ZM186.343 101.898V109.176H166.927V101.898H186.343ZM230.306 117.421V124.672H210.245V117.421H230.306ZM213.387 101.898V141H203.96V101.898H213.387ZM236.644 101.898V141H227.244V101.898H236.644ZM251.763 111.942V141H242.686V111.942H251.763ZM242.149 104.45C242.149 103.161 242.614 102.104 243.545 101.281C244.476 100.457 245.685 100.045 247.171 100.045C248.657 100.045 249.865 100.457 250.796 101.281C251.727 102.104 252.193 103.161 252.193 104.45C252.193 105.739 251.727 106.795 250.796 107.619C249.865 108.442 248.657 108.854 247.171 108.854C245.685 108.854 244.476 108.442 243.545 107.619C242.614 106.795 242.149 105.739 242.149 104.45ZM266.48 119.14V141H257.43V111.942H265.889L266.48 119.14ZM275.074 111.728L274.913 120.133C274.555 120.097 274.071 120.053 273.462 119.999C272.854 119.945 272.343 119.918 271.932 119.918C270.875 119.918 269.962 120.044 269.192 120.294C268.44 120.527 267.814 120.885 267.312 121.369C266.829 121.834 266.471 122.425 266.238 123.141C266.023 123.857 265.925 124.69 265.943 125.639L264.305 124.564C264.305 122.613 264.493 120.84 264.869 119.247C265.263 117.636 265.818 116.248 266.534 115.084C267.25 113.903 268.118 112.999 269.139 112.372C270.159 111.728 271.305 111.405 272.576 111.405C273.024 111.405 273.462 111.432 273.892 111.486C274.34 111.54 274.734 111.62 275.074 111.728ZM287.75 111.942V141H278.672V111.942H287.75ZM278.135 104.45C278.135 103.161 278.601 102.104 279.532 101.281C280.463 100.457 281.671 100.045 283.157 100.045C284.643 100.045 285.852 100.457 286.783 101.281C287.714 102.104 288.179 103.161 288.179 104.45C288.179 105.739 287.714 106.795 286.783 107.619C285.852 108.442 284.643 108.854 283.157 108.854C281.671 108.854 280.463 108.442 279.532 107.619C278.601 106.795 278.135 105.739 278.135 104.45ZM302.225 118.146V141H293.174V111.942H301.661L302.225 118.146ZM301.15 125.478L299.029 125.531C299.029 123.311 299.297 121.333 299.834 119.596C300.372 117.842 301.132 116.356 302.117 115.138C303.102 113.921 304.275 112.999 305.635 112.372C307.014 111.728 308.545 111.405 310.228 111.405C311.57 111.405 312.797 111.602 313.907 111.996C315.035 112.39 316.001 113.026 316.807 113.903C317.631 114.78 318.257 115.944 318.687 117.394C319.135 118.826 319.358 120.599 319.358 122.711V141H310.254V122.685C310.254 121.521 310.093 120.635 309.771 120.026C309.449 119.399 308.983 118.97 308.375 118.737C307.766 118.504 307.023 118.388 306.146 118.388C305.215 118.388 304.427 118.567 303.782 118.925C303.138 119.283 302.618 119.784 302.225 120.429C301.849 121.055 301.571 121.798 301.392 122.658C301.231 123.517 301.15 124.457 301.15 125.478ZM342.642 111.942H350.86V139.872C350.86 142.558 350.242 144.831 349.007 146.693C347.771 148.573 346.044 149.997 343.824 150.963C341.622 151.948 339.043 152.44 336.089 152.44C334.782 152.44 333.449 152.27 332.088 151.93C330.727 151.608 329.456 151.125 328.274 150.48C327.093 149.835 326.099 149.039 325.293 148.09L329.08 142.772C329.814 143.596 330.736 144.294 331.846 144.867C332.956 145.458 334.263 145.753 335.767 145.753C337.074 145.753 338.166 145.521 339.043 145.055C339.939 144.59 340.619 143.909 341.084 143.014C341.55 142.137 341.783 141.072 341.783 139.818V118.817L342.642 111.942ZM323.333 126.82V126.256C323.333 124.054 323.602 122.049 324.139 120.241C324.694 118.415 325.481 116.848 326.502 115.541C327.54 114.216 328.794 113.196 330.262 112.479C331.73 111.763 333.386 111.405 335.23 111.405C337.217 111.405 338.847 111.79 340.118 112.56C341.407 113.312 342.436 114.368 343.206 115.729C343.994 117.09 344.603 118.683 345.032 120.509C345.48 122.318 345.856 124.269 346.16 126.364V127.035C345.856 129.005 345.435 130.867 344.898 132.621C344.379 134.358 343.698 135.897 342.857 137.24C342.015 138.583 340.959 139.639 339.688 140.409C338.435 141.161 336.931 141.537 335.176 141.537C333.35 141.537 331.703 141.17 330.235 140.436C328.785 139.702 327.54 138.673 326.502 137.348C325.481 136.023 324.694 134.465 324.139 132.675C323.602 130.884 323.333 128.933 323.333 126.82ZM332.383 126.256V126.82C332.383 127.912 332.482 128.924 332.679 129.855C332.894 130.786 333.216 131.61 333.646 132.326C334.075 133.024 334.603 133.57 335.23 133.964C335.875 134.358 336.626 134.555 337.486 134.555C338.793 134.555 339.849 134.277 340.655 133.722C341.46 133.167 342.042 132.379 342.4 131.359C342.758 130.338 342.911 129.139 342.857 127.76V125.639C342.893 124.457 342.812 123.419 342.615 122.523C342.418 121.61 342.105 120.849 341.675 120.241C341.264 119.632 340.708 119.175 340.01 118.871C339.33 118.549 338.506 118.388 337.54 118.388C336.698 118.388 335.955 118.585 335.311 118.979C334.666 119.372 334.129 119.927 333.699 120.644C333.27 121.342 332.938 122.174 332.706 123.141C332.491 124.09 332.383 125.128 332.383 126.256ZM385.799 127.733H376.077V120.456H385.799C387.124 120.456 388.198 120.232 389.021 119.784C389.845 119.337 390.445 118.719 390.821 117.931C391.215 117.125 391.412 116.221 391.412 115.219C391.412 114.145 391.215 113.151 390.821 112.238C390.445 111.325 389.845 110.591 389.021 110.036C388.198 109.463 387.124 109.176 385.799 109.176H379.622V141H370.196V101.898H385.799C388.932 101.898 391.626 102.471 393.882 103.617C396.156 104.763 397.902 106.339 399.119 108.344C400.337 110.331 400.945 112.605 400.945 115.165C400.945 117.689 400.337 119.892 399.119 121.771C397.902 123.651 396.156 125.119 393.882 126.176C391.626 127.214 388.932 127.733 385.799 127.733ZM404.087 126.767V126.203C404.087 124.072 404.392 122.112 405 120.321C405.609 118.513 406.504 116.946 407.686 115.622C408.868 114.297 410.327 113.267 412.063 112.533C413.8 111.781 415.805 111.405 418.079 111.405C420.371 111.405 422.385 111.781 424.122 112.533C425.876 113.267 427.344 114.297 428.526 115.622C429.708 116.946 430.603 118.513 431.211 120.321C431.82 122.112 432.125 124.072 432.125 126.203V126.767C432.125 128.879 431.82 130.84 431.211 132.648C430.603 134.438 429.708 136.005 428.526 137.348C427.344 138.673 425.885 139.702 424.148 140.436C422.412 141.17 420.407 141.537 418.133 141.537C415.859 141.537 413.845 141.17 412.09 140.436C410.336 139.702 408.868 138.673 407.686 137.348C406.504 136.005 405.609 134.438 405 132.648C404.392 130.84 404.087 128.879 404.087 126.767ZM413.138 126.203V126.767C413.138 127.859 413.218 128.879 413.379 129.828C413.541 130.777 413.809 131.61 414.185 132.326C414.561 133.024 415.071 133.57 415.716 133.964C416.36 134.358 417.166 134.555 418.133 134.555C419.082 134.555 419.869 134.358 420.496 133.964C421.141 133.57 421.651 133.024 422.027 132.326C422.403 131.61 422.671 130.777 422.833 129.828C422.994 128.879 423.074 127.859 423.074 126.767V126.203C423.074 125.146 422.994 124.153 422.833 123.222C422.671 122.273 422.403 121.44 422.027 120.724C421.651 119.99 421.141 119.417 420.496 119.005C419.852 118.594 419.046 118.388 418.079 118.388C417.13 118.388 416.333 118.594 415.689 119.005C415.062 119.417 414.561 119.99 414.185 120.724C413.809 121.44 413.541 122.273 413.379 123.222C413.218 124.153 413.138 125.146 413.138 126.203ZM445.284 119.14V141H436.233V111.942H444.693L445.284 119.14ZM453.877 111.728L453.716 120.133C453.358 120.097 452.875 120.053 452.266 119.999C451.657 119.945 451.147 119.918 450.735 119.918C449.679 119.918 448.766 120.044 447.996 120.294C447.244 120.527 446.618 120.885 446.116 121.369C445.633 121.834 445.275 122.425 445.042 123.141C444.827 123.857 444.729 124.69 444.747 125.639L443.108 124.564C443.108 122.613 443.296 120.84 443.672 119.247C444.066 117.636 444.621 116.248 445.337 115.084C446.054 113.903 446.922 112.999 447.942 112.372C448.963 111.728 450.109 111.405 451.38 111.405C451.827 111.405 452.266 111.432 452.696 111.486C453.143 111.54 453.537 111.62 453.877 111.728ZM473.643 111.942V118.227H456.133V111.942H473.643ZM459.812 104.718H468.863V131.52C468.863 132.29 468.952 132.89 469.131 133.319C469.31 133.731 469.615 134.027 470.044 134.206C470.492 134.367 471.083 134.447 471.817 134.447C472.336 134.447 472.766 134.438 473.106 134.42C473.446 134.385 473.768 134.34 474.073 134.286V140.758C473.303 141.009 472.497 141.197 471.656 141.322C470.814 141.465 469.919 141.537 468.97 141.537C467.037 141.537 465.381 141.233 464.002 140.624C462.641 140.015 461.603 139.057 460.887 137.75C460.171 136.444 459.812 134.743 459.812 132.648V104.718ZM492.334 133.695V121.718C492.334 120.894 492.218 120.187 491.985 119.596C491.753 119.005 491.386 118.549 490.884 118.227C490.383 117.886 489.712 117.716 488.87 117.716C488.19 117.716 487.608 117.833 487.125 118.065C486.641 118.298 486.274 118.647 486.023 119.113C485.773 119.578 485.647 120.169 485.647 120.885H476.597C476.597 119.542 476.893 118.298 477.483 117.152C478.092 115.989 478.951 114.977 480.062 114.118C481.189 113.258 482.532 112.596 484.09 112.13C485.665 111.647 487.42 111.405 489.354 111.405C491.663 111.405 493.722 111.79 495.53 112.56C497.356 113.33 498.798 114.485 499.854 116.024C500.91 117.546 501.438 119.462 501.438 121.771V133.668C501.438 135.566 501.546 137.007 501.761 137.992C501.976 138.959 502.28 139.809 502.674 140.543V141H493.597C493.167 140.105 492.845 139.013 492.63 137.724C492.433 136.417 492.334 135.074 492.334 133.695ZM493.436 123.249L493.489 128.083H489.488C488.646 128.083 487.93 128.199 487.339 128.432C486.766 128.664 486.301 128.987 485.943 129.398C485.603 129.792 485.352 130.24 485.191 130.741C485.048 131.243 484.976 131.771 484.976 132.326C484.976 132.863 485.101 133.346 485.352 133.776C485.621 134.188 485.979 134.51 486.426 134.743C486.874 134.975 487.375 135.092 487.93 135.092C488.933 135.092 489.783 134.904 490.481 134.528C491.198 134.134 491.744 133.66 492.12 133.104C492.496 132.549 492.684 132.03 492.684 131.547L494.671 135.253C494.313 135.969 493.901 136.694 493.436 137.428C492.988 138.162 492.424 138.843 491.744 139.469C491.081 140.078 490.267 140.579 489.3 140.973C488.333 141.349 487.16 141.537 485.782 141.537C483.991 141.537 482.344 141.17 480.84 140.436C479.354 139.702 478.164 138.681 477.269 137.375C476.373 136.05 475.926 134.528 475.926 132.809C475.926 131.305 476.194 129.962 476.731 128.781C477.286 127.599 478.119 126.597 479.229 125.773C480.339 124.949 481.753 124.323 483.472 123.893C485.191 123.463 487.214 123.249 489.542 123.249H493.436ZM516.021 99.75V141H506.944V99.75H516.021Z" fill="black"/>
<rect x="92" y="175" width="1200" height="60" rx="10" fill="#E6E6E6"/>
<rect x="103.5" y="186.5" width="156" height="37" rx="3.5" fill="#CCCCCC" stroke="#CCCCCC" stroke-width="3"/>
<path d="M141.266 208.969L143.531 198.625H144.883L145.617 199.508L143.203 210H141.711L141.266 208.969ZM140.664 198.625L142.578 209.047L142.086 210H140.359L137.945 198.625H140.664ZM146.859 208.992L148.758 198.625H151.469L149.055 210H147.336L146.859 208.992ZM145.859 198.625L148.18 209.031L147.711 210H146.219L143.75 199.492L144.516 198.625H145.859ZM156.266 210.156C155.578 210.156 154.964 210.049 154.422 209.836C153.88 209.617 153.422 209.318 153.047 208.938C152.677 208.557 152.393 208.12 152.195 207.625C152.003 207.13 151.906 206.607 151.906 206.055V205.758C151.906 205.138 151.992 204.565 152.164 204.039C152.336 203.508 152.591 203.044 152.93 202.648C153.268 202.253 153.693 201.945 154.203 201.727C154.714 201.503 155.307 201.391 155.984 201.391C156.583 201.391 157.12 201.487 157.594 201.68C158.068 201.872 158.469 202.148 158.797 202.508C159.13 202.867 159.383 203.302 159.555 203.812C159.732 204.323 159.82 204.896 159.82 205.531V206.602H152.914V204.953H157.25V204.75C157.255 204.469 157.206 204.229 157.102 204.031C157.003 203.833 156.857 203.682 156.664 203.578C156.471 203.474 156.237 203.422 155.961 203.422C155.674 203.422 155.438 203.484 155.25 203.609C155.068 203.734 154.924 203.906 154.82 204.125C154.721 204.339 154.651 204.586 154.609 204.867C154.568 205.148 154.547 205.445 154.547 205.758V206.055C154.547 206.367 154.589 206.651 154.672 206.906C154.76 207.161 154.885 207.38 155.047 207.562C155.214 207.74 155.411 207.878 155.641 207.977C155.875 208.076 156.141 208.125 156.438 208.125C156.797 208.125 157.151 208.057 157.5 207.922C157.849 207.786 158.148 207.562 158.398 207.25L159.594 208.672C159.422 208.917 159.177 209.154 158.859 209.383C158.547 209.612 158.172 209.799 157.734 209.945C157.297 210.086 156.807 210.156 156.266 210.156ZM160.914 198H163.547V207.922L163.273 210H160.914V198ZM168.734 205.68V205.844C168.734 206.484 168.669 207.068 168.539 207.594C168.409 208.12 168.208 208.576 167.938 208.961C167.667 209.341 167.326 209.635 166.914 209.844C166.503 210.052 166.016 210.156 165.453 210.156C164.943 210.156 164.505 210.047 164.141 209.828C163.776 209.604 163.471 209.297 163.227 208.906C162.982 208.51 162.784 208.055 162.633 207.539C162.482 207.018 162.362 206.461 162.273 205.867V205.672C162.362 205.083 162.482 204.531 162.633 204.016C162.784 203.495 162.982 203.039 163.227 202.648C163.471 202.253 163.773 201.945 164.133 201.727C164.497 201.503 164.932 201.391 165.438 201.391C166.005 201.391 166.495 201.497 166.906 201.711C167.323 201.924 167.667 202.224 167.938 202.609C168.208 202.995 168.409 203.448 168.539 203.969C168.669 204.49 168.734 205.06 168.734 205.68ZM166.102 205.844V205.68C166.102 205.372 166.083 205.083 166.047 204.812C166.01 204.542 165.945 204.302 165.852 204.094C165.758 203.885 165.625 203.721 165.453 203.602C165.281 203.482 165.057 203.422 164.781 203.422C164.5 203.422 164.263 203.469 164.07 203.562C163.883 203.656 163.732 203.792 163.617 203.969C163.508 204.141 163.43 204.354 163.383 204.609C163.336 204.859 163.315 205.143 163.32 205.461V206.078C163.31 206.51 163.349 206.88 163.438 207.188C163.526 207.495 163.68 207.729 163.898 207.891C164.117 208.052 164.417 208.133 164.797 208.133C165.078 208.133 165.305 208.078 165.477 207.969C165.654 207.859 165.786 207.703 165.875 207.5C165.964 207.297 166.023 207.055 166.055 206.773C166.086 206.492 166.102 206.182 166.102 205.844ZM178.555 206.141H175.727V204.023H178.555C178.94 204.023 179.253 203.958 179.492 203.828C179.732 203.698 179.906 203.518 180.016 203.289C180.13 203.055 180.188 202.792 180.188 202.5C180.188 202.188 180.13 201.898 180.016 201.633C179.906 201.367 179.732 201.154 179.492 200.992C179.253 200.826 178.94 200.742 178.555 200.742H176.758V210H174.016V198.625H178.555C179.466 198.625 180.25 198.792 180.906 199.125C181.568 199.458 182.076 199.917 182.43 200.5C182.784 201.078 182.961 201.74 182.961 202.484C182.961 203.219 182.784 203.859 182.43 204.406C182.076 204.953 181.568 205.38 180.906 205.688C180.25 205.99 179.466 206.141 178.555 206.141ZM186.969 203.641V210H184.336V201.547H186.797L186.969 203.641ZM189.469 201.484L189.422 203.93C189.318 203.919 189.177 203.906 189 203.891C188.823 203.875 188.674 203.867 188.555 203.867C188.247 203.867 187.982 203.904 187.758 203.977C187.539 204.044 187.357 204.148 187.211 204.289C187.07 204.424 186.966 204.596 186.898 204.805C186.836 205.013 186.807 205.255 186.812 205.531L186.336 205.219C186.336 204.651 186.391 204.135 186.5 203.672C186.615 203.203 186.776 202.799 186.984 202.461C187.193 202.117 187.445 201.854 187.742 201.672C188.039 201.484 188.372 201.391 188.742 201.391C188.872 201.391 189 201.398 189.125 201.414C189.255 201.43 189.37 201.453 189.469 201.484ZM189.766 205.859V205.695C189.766 205.076 189.854 204.505 190.031 203.984C190.208 203.458 190.469 203.003 190.812 202.617C191.156 202.232 191.581 201.932 192.086 201.719C192.591 201.5 193.174 201.391 193.836 201.391C194.503 201.391 195.089 201.5 195.594 201.719C196.104 201.932 196.531 202.232 196.875 202.617C197.219 203.003 197.479 203.458 197.656 203.984C197.833 204.505 197.922 205.076 197.922 205.695V205.859C197.922 206.474 197.833 207.044 197.656 207.57C197.479 208.091 197.219 208.547 196.875 208.938C196.531 209.323 196.107 209.622 195.602 209.836C195.096 210.049 194.513 210.156 193.852 210.156C193.19 210.156 192.604 210.049 192.094 209.836C191.583 209.622 191.156 209.323 190.812 208.938C190.469 208.547 190.208 208.091 190.031 207.57C189.854 207.044 189.766 206.474 189.766 205.859ZM192.398 205.695V205.859C192.398 206.177 192.422 206.474 192.469 206.75C192.516 207.026 192.594 207.268 192.703 207.477C192.812 207.68 192.961 207.839 193.148 207.953C193.336 208.068 193.57 208.125 193.852 208.125C194.128 208.125 194.357 208.068 194.539 207.953C194.727 207.839 194.875 207.68 194.984 207.477C195.094 207.268 195.172 207.026 195.219 206.75C195.266 206.474 195.289 206.177 195.289 205.859V205.695C195.289 205.388 195.266 205.099 195.219 204.828C195.172 204.552 195.094 204.31 194.984 204.102C194.875 203.888 194.727 203.721 194.539 203.602C194.352 203.482 194.117 203.422 193.836 203.422C193.56 203.422 193.328 203.482 193.141 203.602C192.958 203.721 192.812 203.888 192.703 204.102C192.594 204.31 192.516 204.552 192.469 204.828C192.422 205.099 192.398 205.388 192.398 205.695ZM199.289 201.547H201.93V210.273C201.93 210.951 201.799 211.521 201.539 211.984C201.279 212.453 200.906 212.807 200.422 213.047C199.938 213.292 199.359 213.414 198.688 213.414C198.464 213.414 198.258 213.404 198.07 213.383C197.878 213.367 197.667 213.333 197.438 213.281V211.289C197.573 211.31 197.698 211.326 197.812 211.336C197.927 211.352 198.052 211.359 198.188 211.359C198.427 211.359 198.628 211.32 198.789 211.242C198.951 211.164 199.073 211.044 199.156 210.883C199.245 210.721 199.289 210.518 199.289 210.273V201.547ZM199.094 199.367C199.094 198.992 199.229 198.685 199.5 198.445C199.771 198.206 200.122 198.086 200.555 198.086C200.987 198.086 201.339 198.206 201.609 198.445C201.88 198.685 202.016 198.992 202.016 199.367C202.016 199.742 201.88 200.049 201.609 200.289C201.339 200.529 200.987 200.648 200.555 200.648C200.122 200.648 199.771 200.529 199.5 200.289C199.229 200.049 199.094 199.742 199.094 199.367ZM207.516 210.156C206.828 210.156 206.214 210.049 205.672 209.836C205.13 209.617 204.672 209.318 204.297 208.938C203.927 208.557 203.643 208.12 203.445 207.625C203.253 207.13 203.156 206.607 203.156 206.055V205.758C203.156 205.138 203.242 204.565 203.414 204.039C203.586 203.508 203.841 203.044 204.18 202.648C204.518 202.253 204.943 201.945 205.453 201.727C205.964 201.503 206.557 201.391 207.234 201.391C207.833 201.391 208.37 201.487 208.844 201.68C209.318 201.872 209.719 202.148 210.047 202.508C210.38 202.867 210.633 203.302 210.805 203.812C210.982 204.323 211.07 204.896 211.07 205.531V206.602H204.164V204.953H208.5V204.75C208.505 204.469 208.456 204.229 208.352 204.031C208.253 203.833 208.107 203.682 207.914 203.578C207.721 203.474 207.487 203.422 207.211 203.422C206.924 203.422 206.688 203.484 206.5 203.609C206.318 203.734 206.174 203.906 206.07 204.125C205.971 204.339 205.901 204.586 205.859 204.867C205.818 205.148 205.797 205.445 205.797 205.758V206.055C205.797 206.367 205.839 206.651 205.922 206.906C206.01 207.161 206.135 207.38 206.297 207.562C206.464 207.74 206.661 207.878 206.891 207.977C207.125 208.076 207.391 208.125 207.688 208.125C208.047 208.125 208.401 208.057 208.75 207.922C209.099 207.786 209.398 207.562 209.648 207.25L210.844 208.672C210.672 208.917 210.427 209.154 210.109 209.383C209.797 209.612 209.422 209.799 208.984 209.945C208.547 210.086 208.057 210.156 207.516 210.156ZM215.711 208.125C215.956 208.125 216.164 208.081 216.336 207.992C216.513 207.898 216.646 207.768 216.734 207.602C216.828 207.43 216.872 207.224 216.867 206.984H219.344C219.349 207.62 219.193 208.177 218.875 208.656C218.562 209.13 218.135 209.5 217.594 209.766C217.057 210.026 216.451 210.156 215.773 210.156C215.112 210.156 214.534 210.049 214.039 209.836C213.544 209.617 213.13 209.315 212.797 208.93C212.469 208.539 212.221 208.083 212.055 207.562C211.893 207.042 211.812 206.477 211.812 205.867V205.688C211.812 205.078 211.893 204.513 212.055 203.992C212.221 203.466 212.469 203.01 212.797 202.625C213.13 202.234 213.542 201.932 214.031 201.719C214.526 201.5 215.102 201.391 215.758 201.391C216.461 201.391 217.081 201.523 217.617 201.789C218.159 202.055 218.583 202.44 218.891 202.945C219.198 203.451 219.349 204.062 219.344 204.781H216.867C216.872 204.526 216.833 204.297 216.75 204.094C216.667 203.891 216.536 203.729 216.359 203.609C216.188 203.484 215.966 203.422 215.695 203.422C215.424 203.422 215.206 203.482 215.039 203.602C214.872 203.721 214.745 203.888 214.656 204.102C214.573 204.31 214.516 204.549 214.484 204.82C214.458 205.091 214.445 205.38 214.445 205.688V205.867C214.445 206.18 214.458 206.474 214.484 206.75C214.516 207.021 214.576 207.26 214.664 207.469C214.753 207.672 214.88 207.833 215.047 207.953C215.214 208.068 215.435 208.125 215.711 208.125ZM224.922 201.547V203.375H219.828V201.547H224.922ZM220.898 199.445H223.531V207.242C223.531 207.466 223.557 207.641 223.609 207.766C223.661 207.885 223.75 207.971 223.875 208.023C224.005 208.07 224.177 208.094 224.391 208.094C224.542 208.094 224.667 208.091 224.766 208.086C224.865 208.076 224.958 208.062 225.047 208.047V209.93C224.823 210.003 224.589 210.057 224.344 210.094C224.099 210.135 223.839 210.156 223.562 210.156C223 210.156 222.518 210.068 222.117 209.891C221.721 209.714 221.419 209.435 221.211 209.055C221.003 208.674 220.898 208.18 220.898 207.57V199.445Z" fill="#888888"/>
<rect x="277.5" y="186.5" width="156" height="37" rx="3.5" fill="#CCCCCC" stroke="#CCCCCC" stroke-width="3"/>
<path d="M326.117 198.625H330.594C331.469 198.625 332.229 198.755 332.875 199.016C333.521 199.276 334.018 199.661 334.367 200.172C334.721 200.682 334.898 201.312 334.898 202.062C334.898 202.714 334.797 203.258 334.594 203.695C334.391 204.133 334.107 204.495 333.742 204.781C333.383 205.062 332.964 205.294 332.484 205.477L331.586 205.984H327.828L327.812 203.867H330.594C330.943 203.867 331.232 203.805 331.461 203.68C331.69 203.555 331.862 203.378 331.977 203.148C332.096 202.914 332.156 202.635 332.156 202.312C332.156 201.984 332.096 201.703 331.977 201.469C331.857 201.234 331.68 201.055 331.445 200.93C331.216 200.805 330.932 200.742 330.594 200.742H328.859V210H326.117V198.625ZM332.344 210L329.828 204.969L332.734 204.953L335.281 209.883V210H332.344ZM340.523 210.156C339.836 210.156 339.221 210.049 338.68 209.836C338.138 209.617 337.68 209.318 337.305 208.938C336.935 208.557 336.651 208.12 336.453 207.625C336.26 207.13 336.164 206.607 336.164 206.055V205.758C336.164 205.138 336.25 204.565 336.422 204.039C336.594 203.508 336.849 203.044 337.188 202.648C337.526 202.253 337.951 201.945 338.461 201.727C338.971 201.503 339.565 201.391 340.242 201.391C340.841 201.391 341.378 201.487 341.852 201.68C342.326 201.872 342.727 202.148 343.055 202.508C343.388 202.867 343.641 203.302 343.812 203.812C343.99 204.323 344.078 204.896 344.078 205.531V206.602H337.172V204.953H341.508V204.75C341.513 204.469 341.464 204.229 341.359 204.031C341.26 203.833 341.115 203.682 340.922 203.578C340.729 203.474 340.495 203.422 340.219 203.422C339.932 203.422 339.695 203.484 339.508 203.609C339.326 203.734 339.182 203.906 339.078 204.125C338.979 204.339 338.909 204.586 338.867 204.867C338.826 205.148 338.805 205.445 338.805 205.758V206.055C338.805 206.367 338.846 206.651 338.93 206.906C339.018 207.161 339.143 207.38 339.305 207.562C339.471 207.74 339.669 207.878 339.898 207.977C340.133 208.076 340.398 208.125 340.695 208.125C341.055 208.125 341.409 208.057 341.758 207.922C342.107 207.786 342.406 207.562 342.656 207.25L343.852 208.672C343.68 208.917 343.435 209.154 343.117 209.383C342.805 209.612 342.43 209.799 341.992 209.945C341.555 210.086 341.065 210.156 340.523 210.156ZM349.539 207.875V204.391C349.539 204.151 349.505 203.945 349.438 203.773C349.37 203.602 349.263 203.469 349.117 203.375C348.971 203.276 348.776 203.227 348.531 203.227C348.333 203.227 348.164 203.26 348.023 203.328C347.883 203.396 347.776 203.497 347.703 203.633C347.63 203.768 347.594 203.94 347.594 204.148H344.961C344.961 203.758 345.047 203.396 345.219 203.062C345.396 202.724 345.646 202.43 345.969 202.18C346.297 201.93 346.688 201.737 347.141 201.602C347.599 201.461 348.109 201.391 348.672 201.391C349.344 201.391 349.943 201.503 350.469 201.727C351 201.951 351.419 202.286 351.727 202.734C352.034 203.177 352.188 203.734 352.188 204.406V207.867C352.188 208.419 352.219 208.839 352.281 209.125C352.344 209.406 352.432 209.654 352.547 209.867V210H349.906C349.781 209.74 349.688 209.422 349.625 209.047C349.568 208.667 349.539 208.276 349.539 207.875ZM349.859 204.836L349.875 206.242H348.711C348.466 206.242 348.258 206.276 348.086 206.344C347.919 206.411 347.784 206.505 347.68 206.625C347.581 206.74 347.508 206.87 347.461 207.016C347.419 207.161 347.398 207.315 347.398 207.477C347.398 207.633 347.435 207.773 347.508 207.898C347.586 208.018 347.69 208.112 347.82 208.18C347.951 208.247 348.096 208.281 348.258 208.281C348.549 208.281 348.797 208.227 349 208.117C349.208 208.003 349.367 207.865 349.477 207.703C349.586 207.542 349.641 207.391 349.641 207.25L350.219 208.328C350.115 208.536 349.995 208.747 349.859 208.961C349.729 209.174 349.565 209.372 349.367 209.555C349.174 209.732 348.938 209.878 348.656 209.992C348.375 210.102 348.034 210.156 347.633 210.156C347.112 210.156 346.633 210.049 346.195 209.836C345.763 209.622 345.417 209.326 345.156 208.945C344.896 208.56 344.766 208.117 344.766 207.617C344.766 207.18 344.844 206.789 345 206.445C345.161 206.102 345.404 205.81 345.727 205.57C346.049 205.331 346.461 205.148 346.961 205.023C347.461 204.898 348.049 204.836 348.727 204.836H349.859ZM357.219 208.125C357.464 208.125 357.672 208.081 357.844 207.992C358.021 207.898 358.154 207.768 358.242 207.602C358.336 207.43 358.38 207.224 358.375 206.984H360.852C360.857 207.62 360.701 208.177 360.383 208.656C360.07 209.13 359.643 209.5 359.102 209.766C358.565 210.026 357.958 210.156 357.281 210.156C356.62 210.156 356.042 210.049 355.547 209.836C355.052 209.617 354.638 209.315 354.305 208.93C353.977 208.539 353.729 208.083 353.562 207.562C353.401 207.042 353.32 206.477 353.32 205.867V205.688C353.32 205.078 353.401 204.513 353.562 203.992C353.729 203.466 353.977 203.01 354.305 202.625C354.638 202.234 355.049 201.932 355.539 201.719C356.034 201.5 356.609 201.391 357.266 201.391C357.969 201.391 358.589 201.523 359.125 201.789C359.667 202.055 360.091 202.44 360.398 202.945C360.706 203.451 360.857 204.062 360.852 204.781H358.375C358.38 204.526 358.341 204.297 358.258 204.094C358.174 203.891 358.044 203.729 357.867 203.609C357.695 203.484 357.474 203.422 357.203 203.422C356.932 203.422 356.714 203.482 356.547 203.602C356.38 203.721 356.253 203.888 356.164 204.102C356.081 204.31 356.023 204.549 355.992 204.82C355.966 205.091 355.953 205.38 355.953 205.688V205.867C355.953 206.18 355.966 206.474 355.992 206.75C356.023 207.021 356.083 207.26 356.172 207.469C356.26 207.672 356.388 207.833 356.555 207.953C356.721 208.068 356.943 208.125 357.219 208.125ZM366.43 201.547V203.375H361.336V201.547H366.43ZM362.406 199.445H365.039V207.242C365.039 207.466 365.065 207.641 365.117 207.766C365.169 207.885 365.258 207.971 365.383 208.023C365.513 208.07 365.685 208.094 365.898 208.094C366.049 208.094 366.174 208.091 366.273 208.086C366.372 208.076 366.466 208.062 366.555 208.047V209.93C366.331 210.003 366.096 210.057 365.852 210.094C365.607 210.135 365.346 210.156 365.07 210.156C364.508 210.156 364.026 210.068 363.625 209.891C363.229 209.714 362.927 209.435 362.719 209.055C362.51 208.674 362.406 208.18 362.406 207.57V199.445ZM372.125 206.43V198.625H374.859V206.43C374.859 207.19 374.685 207.849 374.336 208.406C373.992 208.964 373.523 209.396 372.93 209.703C372.341 210.005 371.68 210.156 370.945 210.156C370.185 210.156 369.508 210.029 368.914 209.773C368.326 209.518 367.862 209.125 367.523 208.594C367.19 208.062 367.023 207.385 367.023 206.562H369.773C369.773 206.948 369.818 207.25 369.906 207.469C369.995 207.682 370.125 207.833 370.297 207.922C370.474 208.005 370.69 208.047 370.945 208.047C371.195 208.047 371.406 207.984 371.578 207.859C371.755 207.729 371.891 207.544 371.984 207.305C372.078 207.06 372.125 206.768 372.125 206.43ZM382.461 206.977C382.461 206.799 382.435 206.641 382.383 206.5C382.331 206.354 382.234 206.219 382.094 206.094C381.953 205.969 381.75 205.844 381.484 205.719C381.224 205.589 380.88 205.453 380.453 205.312C379.953 205.146 379.471 204.958 379.008 204.75C378.544 204.536 378.13 204.289 377.766 204.008C377.401 203.721 377.112 203.388 376.898 203.008C376.685 202.622 376.578 202.174 376.578 201.664C376.578 201.174 376.688 200.734 376.906 200.344C377.125 199.948 377.43 199.612 377.82 199.336C378.216 199.055 378.68 198.841 379.211 198.695C379.742 198.544 380.323 198.469 380.953 198.469C381.786 198.469 382.521 198.615 383.156 198.906C383.797 199.193 384.297 199.602 384.656 200.133C385.021 200.659 385.203 201.281 385.203 202H382.477C382.477 201.714 382.417 201.461 382.297 201.242C382.182 201.023 382.008 200.852 381.773 200.727C381.539 200.602 381.245 200.539 380.891 200.539C380.547 200.539 380.258 200.591 380.023 200.695C379.789 200.799 379.612 200.94 379.492 201.117C379.372 201.289 379.312 201.479 379.312 201.688C379.312 201.859 379.359 202.016 379.453 202.156C379.552 202.292 379.69 202.419 379.867 202.539C380.049 202.659 380.268 202.773 380.523 202.883C380.784 202.992 381.076 203.099 381.398 203.203C382.003 203.396 382.539 203.612 383.008 203.852C383.482 204.086 383.88 204.354 384.203 204.656C384.531 204.953 384.779 205.292 384.945 205.672C385.117 206.052 385.203 206.482 385.203 206.961C385.203 207.471 385.104 207.924 384.906 208.32C384.708 208.716 384.424 209.052 384.055 209.328C383.685 209.599 383.242 209.805 382.727 209.945C382.211 210.086 381.635 210.156 381 210.156C380.417 210.156 379.841 210.083 379.273 209.938C378.711 209.786 378.201 209.557 377.742 209.25C377.284 208.938 376.917 208.539 376.641 208.055C376.37 207.565 376.234 206.984 376.234 206.312H378.984C378.984 206.646 379.029 206.927 379.117 207.156C379.206 207.385 379.336 207.57 379.508 207.711C379.68 207.846 379.891 207.945 380.141 208.008C380.391 208.065 380.677 208.094 381 208.094C381.349 208.094 381.63 208.044 381.844 207.945C382.057 207.841 382.214 207.706 382.312 207.539C382.411 207.367 382.461 207.18 382.461 206.977Z" fill="#888888"/>
<rect x="451.5" y="186.5" width="156" height="37" rx="3.5" fill="#CCCCCC" stroke="#CCCCCC" stroke-width="3"/>
<path d="M511.383 198.625V210H508.648L504.625 202.922V210H501.883V198.625H504.625L508.648 205.703V198.625H511.383ZM512.664 205.859V205.695C512.664 205.076 512.753 204.505 512.93 203.984C513.107 203.458 513.367 203.003 513.711 202.617C514.055 202.232 514.479 201.932 514.984 201.719C515.49 201.5 516.073 201.391 516.734 201.391C517.401 201.391 517.987 201.5 518.492 201.719C519.003 201.932 519.43 202.232 519.773 202.617C520.117 203.003 520.378 203.458 520.555 203.984C520.732 204.505 520.82 205.076 520.82 205.695V205.859C520.82 206.474 520.732 207.044 520.555 207.57C520.378 208.091 520.117 208.547 519.773 208.938C519.43 209.323 519.005 209.622 518.5 209.836C517.995 210.049 517.411 210.156 516.75 210.156C516.089 210.156 515.503 210.049 514.992 209.836C514.482 209.622 514.055 209.323 513.711 208.938C513.367 208.547 513.107 208.091 512.93 207.57C512.753 207.044 512.664 206.474 512.664 205.859ZM515.297 205.695V205.859C515.297 206.177 515.32 206.474 515.367 206.75C515.414 207.026 515.492 207.268 515.602 207.477C515.711 207.68 515.859 207.839 516.047 207.953C516.234 208.068 516.469 208.125 516.75 208.125C517.026 208.125 517.255 208.068 517.438 207.953C517.625 207.839 517.773 207.68 517.883 207.477C517.992 207.268 518.07 207.026 518.117 206.75C518.164 206.474 518.188 206.177 518.188 205.859V205.695C518.188 205.388 518.164 205.099 518.117 204.828C518.07 204.552 517.992 204.31 517.883 204.102C517.773 203.888 517.625 203.721 517.438 203.602C517.25 203.482 517.016 203.422 516.734 203.422C516.458 203.422 516.227 203.482 516.039 203.602C515.857 203.721 515.711 203.888 515.602 204.102C515.492 204.31 515.414 204.552 515.367 204.828C515.32 205.099 515.297 205.388 515.297 205.695ZM526.852 208.062V198H529.5V210H527.125L526.852 208.062ZM521.664 205.875V205.711C521.664 205.07 521.734 204.487 521.875 203.961C522.016 203.43 522.224 202.974 522.5 202.594C522.776 202.208 523.12 201.911 523.531 201.703C523.943 201.495 524.417 201.391 524.953 201.391C525.432 201.391 525.852 201.503 526.211 201.727C526.57 201.945 526.878 202.253 527.133 202.648C527.388 203.044 527.596 203.508 527.758 204.039C527.919 204.565 528.042 205.133 528.125 205.742V205.938C528.042 206.51 527.919 207.052 527.758 207.562C527.596 208.068 527.388 208.516 527.133 208.906C526.878 209.297 526.568 209.604 526.203 209.828C525.844 210.047 525.422 210.156 524.938 210.156C524.401 210.156 523.927 210.049 523.516 209.836C523.109 209.622 522.768 209.323 522.492 208.938C522.221 208.552 522.016 208.099 521.875 207.578C521.734 207.057 521.664 206.49 521.664 205.875ZM524.297 205.711V205.875C524.297 206.193 524.318 206.487 524.359 206.758C524.401 207.029 524.471 207.268 524.57 207.477C524.674 207.68 524.81 207.839 524.977 207.953C525.148 208.068 525.359 208.125 525.609 208.125C525.948 208.125 526.227 208.044 526.445 207.883C526.669 207.721 526.833 207.492 526.938 207.195C527.047 206.898 527.094 206.549 527.078 206.148V205.531C527.089 205.188 527.065 204.885 527.008 204.625C526.951 204.359 526.859 204.138 526.734 203.961C526.615 203.784 526.461 203.651 526.273 203.562C526.091 203.469 525.875 203.422 525.625 203.422C525.38 203.422 525.172 203.479 525 203.594C524.833 203.708 524.698 203.87 524.594 204.078C524.49 204.281 524.414 204.523 524.367 204.805C524.32 205.081 524.297 205.383 524.297 205.711ZM535.086 210.156C534.398 210.156 533.784 210.049 533.242 209.836C532.701 209.617 532.242 209.318 531.867 208.938C531.497 208.557 531.214 208.12 531.016 207.625C530.823 207.13 530.727 206.607 530.727 206.055V205.758C530.727 205.138 530.812 204.565 530.984 204.039C531.156 203.508 531.411 203.044 531.75 202.648C532.089 202.253 532.513 201.945 533.023 201.727C533.534 201.503 534.128 201.391 534.805 201.391C535.404 201.391 535.94 201.487 536.414 201.68C536.888 201.872 537.289 202.148 537.617 202.508C537.951 202.867 538.203 203.302 538.375 203.812C538.552 204.323 538.641 204.896 538.641 205.531V206.602H531.734V204.953H536.07V204.75C536.076 204.469 536.026 204.229 535.922 204.031C535.823 203.833 535.677 203.682 535.484 203.578C535.292 203.474 535.057 203.422 534.781 203.422C534.495 203.422 534.258 203.484 534.07 203.609C533.888 203.734 533.745 203.906 533.641 204.125C533.542 204.339 533.471 204.586 533.43 204.867C533.388 205.148 533.367 205.445 533.367 205.758V206.055C533.367 206.367 533.409 206.651 533.492 206.906C533.581 207.161 533.706 207.38 533.867 207.562C534.034 207.74 534.232 207.878 534.461 207.977C534.695 208.076 534.961 208.125 535.258 208.125C535.617 208.125 535.971 208.057 536.32 207.922C536.669 207.786 536.969 207.562 537.219 207.25L538.414 208.672C538.242 208.917 537.997 209.154 537.68 209.383C537.367 209.612 536.992 209.799 536.555 209.945C536.117 210.086 535.628 210.156 535.086 210.156ZM544.359 206.43V198.625H547.094V206.43C547.094 207.19 546.919 207.849 546.57 208.406C546.227 208.964 545.758 209.396 545.164 209.703C544.576 210.005 543.914 210.156 543.18 210.156C542.419 210.156 541.742 210.029 541.148 209.773C540.56 209.518 540.096 209.125 539.758 208.594C539.424 208.062 539.258 207.385 539.258 206.562H542.008C542.008 206.948 542.052 207.25 542.141 207.469C542.229 207.682 542.359 207.833 542.531 207.922C542.708 208.005 542.924 208.047 543.18 208.047C543.43 208.047 543.641 207.984 543.812 207.859C543.99 207.729 544.125 207.544 544.219 207.305C544.312 207.06 544.359 206.768 544.359 206.43ZM554.695 206.977C554.695 206.799 554.669 206.641 554.617 206.5C554.565 206.354 554.469 206.219 554.328 206.094C554.188 205.969 553.984 205.844 553.719 205.719C553.458 205.589 553.115 205.453 552.688 205.312C552.188 205.146 551.706 204.958 551.242 204.75C550.779 204.536 550.365 204.289 550 204.008C549.635 203.721 549.346 203.388 549.133 203.008C548.919 202.622 548.812 202.174 548.812 201.664C548.812 201.174 548.922 200.734 549.141 200.344C549.359 199.948 549.664 199.612 550.055 199.336C550.451 199.055 550.914 198.841 551.445 198.695C551.977 198.544 552.557 198.469 553.188 198.469C554.021 198.469 554.755 198.615 555.391 198.906C556.031 199.193 556.531 199.602 556.891 200.133C557.255 200.659 557.438 201.281 557.438 202H554.711C554.711 201.714 554.651 201.461 554.531 201.242C554.417 201.023 554.242 200.852 554.008 200.727C553.773 200.602 553.479 200.539 553.125 200.539C552.781 200.539 552.492 200.591 552.258 200.695C552.023 200.799 551.846 200.94 551.727 201.117C551.607 201.289 551.547 201.479 551.547 201.688C551.547 201.859 551.594 202.016 551.688 202.156C551.786 202.292 551.924 202.419 552.102 202.539C552.284 202.659 552.503 202.773 552.758 202.883C553.018 202.992 553.31 203.099 553.633 203.203C554.237 203.396 554.773 203.612 555.242 203.852C555.716 204.086 556.115 204.354 556.438 204.656C556.766 204.953 557.013 205.292 557.18 205.672C557.352 206.052 557.438 206.482 557.438 206.961C557.438 207.471 557.339 207.924 557.141 208.32C556.943 208.716 556.659 209.052 556.289 209.328C555.919 209.599 555.477 209.805 554.961 209.945C554.445 210.086 553.87 210.156 553.234 210.156C552.651 210.156 552.076 210.083 551.508 209.938C550.945 209.786 550.435 209.557 549.977 209.25C549.518 208.938 549.151 208.539 548.875 208.055C548.604 207.565 548.469 206.984 548.469 206.312H551.219C551.219 206.646 551.263 206.927 551.352 207.156C551.44 207.385 551.57 207.57 551.742 207.711C551.914 207.846 552.125 207.945 552.375 208.008C552.625 208.065 552.911 208.094 553.234 208.094C553.583 208.094 553.865 208.044 554.078 207.945C554.292 207.841 554.448 207.706 554.547 207.539C554.646 207.367 554.695 207.18 554.695 206.977Z" fill="#888888"/>
<rect x="625.5" y="186.5" width="156" height="37" rx="3.5" fill="#CCCCCC" stroke="#CCCCCC" stroke-width="3"/>
<path d="M684.781 198.625V210H682.039V198.625H684.781ZM689.203 203.359V205.469H684V203.359H689.203ZM689.648 198.625V200.742H684V198.625H689.648ZM693.445 201.547V210H690.805V201.547H693.445ZM690.648 199.367C690.648 198.992 690.784 198.685 691.055 198.445C691.326 198.206 691.677 198.086 692.109 198.086C692.542 198.086 692.893 198.206 693.164 198.445C693.435 198.685 693.57 198.992 693.57 199.367C693.57 199.742 693.435 200.049 693.164 200.289C692.893 200.529 692.542 200.648 692.109 200.648C691.677 200.648 691.326 200.529 691.055 200.289C690.784 200.049 690.648 199.742 690.648 199.367ZM700.383 201.547H702.773V209.672C702.773 210.453 702.594 211.115 702.234 211.656C701.875 212.203 701.372 212.617 700.727 212.898C700.086 213.185 699.336 213.328 698.477 213.328C698.096 213.328 697.708 213.279 697.312 213.18C696.917 213.086 696.547 212.945 696.203 212.758C695.859 212.57 695.57 212.339 695.336 212.062L696.438 210.516C696.651 210.755 696.919 210.958 697.242 211.125C697.565 211.297 697.945 211.383 698.383 211.383C698.763 211.383 699.081 211.315 699.336 211.18C699.596 211.044 699.794 210.846 699.93 210.586C700.065 210.331 700.133 210.021 700.133 209.656V203.547L700.383 201.547ZM694.766 205.875V205.711C694.766 205.07 694.844 204.487 695 203.961C695.161 203.43 695.391 202.974 695.688 202.594C695.99 202.208 696.354 201.911 696.781 201.703C697.208 201.495 697.69 201.391 698.227 201.391C698.805 201.391 699.279 201.503 699.648 201.727C700.023 201.945 700.323 202.253 700.547 202.648C700.776 203.044 700.953 203.508 701.078 204.039C701.208 204.565 701.318 205.133 701.406 205.742V205.938C701.318 206.51 701.195 207.052 701.039 207.562C700.888 208.068 700.69 208.516 700.445 208.906C700.201 209.297 699.893 209.604 699.523 209.828C699.159 210.047 698.721 210.156 698.211 210.156C697.68 210.156 697.201 210.049 696.773 209.836C696.352 209.622 695.99 209.323 695.688 208.938C695.391 208.552 695.161 208.099 695 207.578C694.844 207.057 694.766 206.49 694.766 205.875ZM697.398 205.711V205.875C697.398 206.193 697.427 206.487 697.484 206.758C697.547 207.029 697.641 207.268 697.766 207.477C697.891 207.68 698.044 207.839 698.227 207.953C698.414 208.068 698.633 208.125 698.883 208.125C699.263 208.125 699.57 208.044 699.805 207.883C700.039 207.721 700.208 207.492 700.312 207.195C700.417 206.898 700.461 206.549 700.445 206.148V205.531C700.456 205.188 700.432 204.885 700.375 204.625C700.318 204.359 700.227 204.138 700.102 203.961C699.982 203.784 699.82 203.651 699.617 203.562C699.419 203.469 699.18 203.422 698.898 203.422C698.654 203.422 698.438 203.479 698.25 203.594C698.062 203.708 697.906 203.87 697.781 204.078C697.656 204.281 697.56 204.523 697.492 204.805C697.43 205.081 697.398 205.383 697.398 205.711ZM706.945 203.336V210H704.312V201.547H706.781L706.945 203.336ZM706.625 205.484L706.023 205.5C706.023 204.906 706.094 204.359 706.234 203.859C706.375 203.359 706.583 202.924 706.859 202.555C707.135 202.185 707.474 201.898 707.875 201.695C708.281 201.492 708.75 201.391 709.281 201.391C709.651 201.391 709.987 201.448 710.289 201.562C710.591 201.672 710.852 201.846 711.07 202.086C711.289 202.32 711.456 202.628 711.57 203.008C711.69 203.383 711.75 203.833 711.75 204.359V210H709.117V204.695C709.117 204.336 709.076 204.065 708.992 203.883C708.914 203.701 708.799 203.578 708.648 203.516C708.497 203.453 708.312 203.422 708.094 203.422C707.865 203.422 707.659 203.474 707.477 203.578C707.294 203.682 707.138 203.828 707.008 204.016C706.883 204.198 706.786 204.414 706.719 204.664C706.656 204.914 706.625 205.188 706.625 205.484ZM711.453 205.484L710.719 205.5C710.719 204.906 710.784 204.359 710.914 203.859C711.049 203.359 711.25 202.924 711.516 202.555C711.786 202.185 712.122 201.898 712.523 201.695C712.924 201.492 713.391 201.391 713.922 201.391C714.307 201.391 714.661 201.448 714.984 201.562C715.307 201.677 715.586 201.862 715.82 202.117C716.055 202.372 716.237 202.711 716.367 203.133C716.497 203.549 716.562 204.065 716.562 204.68V210H713.922V204.68C713.922 204.331 713.88 204.068 713.797 203.891C713.719 203.708 713.604 203.586 713.453 203.523C713.302 203.456 713.122 203.422 712.914 203.422C712.664 203.422 712.448 203.474 712.266 203.578C712.083 203.682 711.93 203.828 711.805 204.016C711.685 204.198 711.596 204.414 711.539 204.664C711.482 204.914 711.453 205.188 711.453 205.484ZM722.461 207.875V204.391C722.461 204.151 722.427 203.945 722.359 203.773C722.292 203.602 722.185 203.469 722.039 203.375C721.893 203.276 721.698 203.227 721.453 203.227C721.255 203.227 721.086 203.26 720.945 203.328C720.805 203.396 720.698 203.497 720.625 203.633C720.552 203.768 720.516 203.94 720.516 204.148H717.883C717.883 203.758 717.969 203.396 718.141 203.062C718.318 202.724 718.568 202.43 718.891 202.18C719.219 201.93 719.609 201.737 720.062 201.602C720.521 201.461 721.031 201.391 721.594 201.391C722.266 201.391 722.865 201.503 723.391 201.727C723.922 201.951 724.341 202.286 724.648 202.734C724.956 203.177 725.109 203.734 725.109 204.406V207.867C725.109 208.419 725.141 208.839 725.203 209.125C725.266 209.406 725.354 209.654 725.469 209.867V210H722.828C722.703 209.74 722.609 209.422 722.547 209.047C722.49 208.667 722.461 208.276 722.461 207.875ZM722.781 204.836L722.797 206.242H721.633C721.388 206.242 721.18 206.276 721.008 206.344C720.841 206.411 720.706 206.505 720.602 206.625C720.503 206.74 720.43 206.87 720.383 207.016C720.341 207.161 720.32 207.315 720.32 207.477C720.32 207.633 720.357 207.773 720.43 207.898C720.508 208.018 720.612 208.112 720.742 208.18C720.872 208.247 721.018 208.281 721.18 208.281C721.471 208.281 721.719 208.227 721.922 208.117C722.13 208.003 722.289 207.865 722.398 207.703C722.508 207.542 722.562 207.391 722.562 207.25L723.141 208.328C723.036 208.536 722.917 208.747 722.781 208.961C722.651 209.174 722.487 209.372 722.289 209.555C722.096 209.732 721.859 209.878 721.578 209.992C721.297 210.102 720.956 210.156 720.555 210.156C720.034 210.156 719.555 210.049 719.117 209.836C718.685 209.622 718.339 209.326 718.078 208.945C717.818 208.56 717.688 208.117 717.688 207.617C717.688 207.18 717.766 206.789 717.922 206.445C718.083 206.102 718.326 205.81 718.648 205.57C718.971 205.331 719.383 205.148 719.883 205.023C720.383 204.898 720.971 204.836 721.648 204.836H722.781Z" fill="#888888"/>
</svg>
