<svg width="1363" height="167" viewBox="0 0 1363 167" fill="none" xmlns="http://www.w3.org/2000/svg">
<rect width="1363" height="167" rx="10" fill="#F0F0F0"/>
<path d="M0 10C0 4.47716 4.47715 0 10 0H37V167H10C4.47715 167 0 162.523 0 157V10Z" fill="#00DD02"/>
<path d="M104.088 60.7552C104.088 60.3202 104.02 59.9365 103.883 59.6039C103.755 59.2628 103.525 58.9558 103.192 58.6829C102.868 58.4101 102.416 58.15 101.837 57.9027C101.265 57.6554 100.54 57.4038 99.6621 57.148C98.7411 56.8751 97.9096 56.5724 97.1677 56.2398C96.4258 55.8987 95.7905 55.5107 95.2618 55.0758C94.7331 54.6409 94.328 54.142 94.0466 53.5792C93.7652 53.0163 93.6245 52.3725 93.6245 51.6477C93.6245 50.9228 93.7737 50.2534 94.0722 49.6394C94.3707 49.0254 94.7971 48.4924 95.3514 48.0405C95.9142 47.58 96.5836 47.2218 97.3596 46.966C98.1356 46.7102 99.0012 46.5823 99.9563 46.5823C101.355 46.5823 102.54 46.8509 103.512 47.3881C104.493 47.9168 105.239 48.6118 105.751 49.4731C106.262 50.3259 106.518 51.2383 106.518 52.2105H104.062C104.062 51.5112 103.913 50.893 103.615 50.3557C103.316 49.81 102.864 49.3836 102.259 49.0766C101.653 48.7611 100.886 48.6033 99.9563 48.6033C99.0779 48.6033 98.3531 48.7355 97.7817 48.9998C97.2104 49.2642 96.784 49.6224 96.5026 50.0743C96.2297 50.5263 96.0933 51.0422 96.0933 51.6221C96.0933 52.0143 96.1743 52.3725 96.3363 52.6966C96.5068 53.0121 96.7669 53.3063 97.1166 53.5792C97.4747 53.8521 97.9267 54.1036 98.4725 54.3339C99.0268 54.5641 99.6876 54.7858 100.455 54.999C101.513 55.2975 102.425 55.6301 103.192 55.9967C103.96 56.3634 104.591 56.777 105.086 57.2375C105.589 57.6895 105.96 58.2054 106.198 58.7853C106.446 59.3566 106.569 60.0047 106.569 60.7296C106.569 61.4885 106.416 62.175 106.109 62.789C105.802 63.403 105.363 63.9274 104.791 64.3623C104.22 64.7972 103.534 65.1341 102.732 65.3729C101.939 65.6031 101.052 65.7182 100.071 65.7182C99.2101 65.7182 98.3616 65.5988 97.5259 65.3601C96.6987 65.1213 95.944 64.7631 95.2618 64.2856C94.5881 63.808 94.0466 63.2196 93.6373 62.5204C93.2365 61.8126 93.0361 60.9939 93.0361 60.0644H95.4921C95.4921 60.704 95.6157 61.254 95.863 61.7145C96.1103 62.1665 96.4472 62.5417 96.8735 62.8402C97.3084 63.1386 97.7988 63.3603 98.3445 63.5053C98.8988 63.6418 99.4745 63.71 100.071 63.71C100.933 63.71 101.662 63.5906 102.259 63.3518C102.856 63.113 103.308 62.7719 103.615 62.3285C103.93 61.8851 104.088 61.3606 104.088 60.7552ZM121.548 63.4541V65.4624H111.686V63.4541H121.548ZM112.185 46.8381V65.4624H109.716V46.8381H112.185ZM120.243 54.8455V56.8538H111.686V54.8455H120.243ZM121.42 46.8381V48.8591H111.686V46.8381H121.42ZM127.074 46.8381V65.4624H124.605V46.8381H127.074ZM134.877 55.2165V57.2375H126.537V55.2165H134.877ZM136.143 46.8381V48.8591H126.537V46.8381H136.143ZM157.748 54.8455V56.8538H147.668V54.8455H157.748ZM148.052 46.8381V65.4624H145.583V46.8381H148.052ZM159.897 46.8381V65.4624H157.441V46.8381H159.897ZM166.497 51.6221V65.4624H164.118V51.6221H166.497ZM163.939 47.9509C163.939 47.5672 164.054 47.2431 164.284 46.9788C164.523 46.7144 164.873 46.5823 165.333 46.5823C165.785 46.5823 166.131 46.7144 166.369 46.9788C166.617 47.2431 166.74 47.5672 166.74 47.9509C166.74 48.3176 166.617 48.6331 166.369 48.8975C166.131 49.1533 165.785 49.2812 165.333 49.2812C164.873 49.2812 164.523 49.1533 164.284 48.8975C164.054 48.6331 163.939 48.3176 163.939 47.9509ZM172.663 53.7966V65.4624H170.296V51.6221H172.599L172.663 53.7966ZM176.986 51.5453L176.973 53.7455C176.777 53.7028 176.59 53.6772 176.411 53.6687C176.24 53.6517 176.044 53.6431 175.822 53.6431C175.276 53.6431 174.795 53.7284 174.377 53.899C173.959 54.0695 173.605 54.3083 173.315 54.6153C173.025 54.9223 172.795 55.289 172.624 55.7153C172.462 56.1332 172.356 56.5937 172.305 57.0968L171.639 57.4806C171.639 56.6448 171.72 55.8603 171.882 55.1269C172.053 54.3936 172.313 53.7455 172.663 53.1826C173.012 52.6113 173.456 52.1678 173.993 51.8523C174.539 51.5283 175.187 51.3663 175.937 51.3663C176.108 51.3663 176.304 51.3876 176.526 51.4302C176.747 51.4643 176.901 51.5027 176.986 51.5453ZM181.745 51.6221V65.4624H179.365V51.6221H181.745ZM179.186 47.9509C179.186 47.5672 179.301 47.2431 179.532 46.9788C179.771 46.7144 180.12 46.5823 180.581 46.5823C181.033 46.5823 181.378 46.7144 181.617 46.9788C181.864 47.2431 181.988 47.5672 181.988 47.9509C181.988 48.3176 181.864 48.6331 181.617 48.8975C181.378 49.1533 181.033 49.2812 180.581 49.2812C180.12 49.2812 179.771 49.1533 179.532 48.8975C179.301 48.6331 179.186 48.3176 179.186 47.9509ZM187.91 54.5769V65.4624H185.544V51.6221H187.782L187.91 54.5769ZM187.347 58.0178L186.362 57.9794C186.371 57.0329 186.512 56.1588 186.784 55.3572C187.057 54.5471 187.441 53.8435 187.936 53.2466C188.43 52.6497 189.019 52.1892 189.701 51.8651C190.392 51.5325 191.155 51.3663 191.991 51.3663C192.673 51.3663 193.287 51.4601 193.833 51.6477C194.378 51.8267 194.843 52.1167 195.227 52.5175C195.619 52.9183 195.918 53.4385 196.122 54.078C196.327 54.7091 196.429 55.4808 196.429 56.3933V65.4624H194.05V56.3677C194.05 55.6429 193.943 55.063 193.73 54.6281C193.517 54.1846 193.206 53.8648 192.796 53.6687C192.387 53.464 191.884 53.3617 191.287 53.3617C190.699 53.3617 190.161 53.4854 189.675 53.7327C189.198 53.98 188.784 54.3211 188.435 54.756C188.093 55.1909 187.825 55.6898 187.629 56.2526C187.441 56.8069 187.347 57.3953 187.347 58.0178ZM208.99 51.6221H211.139V65.1682C211.139 66.3876 210.892 67.428 210.397 68.2893C209.903 69.1506 209.212 69.803 208.325 70.2464C207.447 70.6984 206.432 70.9243 205.281 70.9243C204.803 70.9243 204.24 70.8476 203.592 70.6941C202.953 70.5491 202.322 70.2976 201.699 69.9394C201.085 69.5898 200.569 69.1165 200.152 68.5196L201.392 67.1125C201.972 67.8118 202.578 68.2978 203.209 68.5707C203.848 68.8436 204.479 68.98 205.102 68.98C205.852 68.98 206.5 68.8393 207.046 68.5579C207.592 68.2765 208.014 67.8587 208.312 67.3044C208.619 66.7586 208.773 66.0849 208.773 65.2833V54.6664L208.99 51.6221ZM199.461 58.6957V58.4271C199.461 57.3697 199.584 56.4103 199.832 55.549C200.088 54.6792 200.45 53.9331 200.919 53.3105C201.397 52.688 201.972 52.2105 202.646 51.8779C203.32 51.5368 204.078 51.3663 204.923 51.3663C205.793 51.3663 206.551 51.5197 207.2 51.8267C207.856 52.1252 208.411 52.5644 208.862 53.1443C209.323 53.7156 209.685 54.4063 209.95 55.2165C210.214 56.0266 210.397 56.9433 210.5 57.9666V59.1434C210.406 60.1582 210.223 61.0707 209.95 61.8808C209.685 62.6909 209.323 63.3817 208.862 63.953C208.411 64.5244 207.856 64.9635 207.2 65.2705C206.543 65.569 205.775 65.7182 204.897 65.7182C204.07 65.7182 203.32 65.5434 202.646 65.1938C201.981 64.8442 201.409 64.3538 200.932 63.7228C200.454 63.0917 200.088 62.3498 199.832 61.4971C199.584 60.6358 199.461 59.702 199.461 58.6957ZM201.827 58.4271V58.6957C201.827 59.3865 201.895 60.0346 202.032 60.64C202.177 61.2455 202.394 61.7785 202.684 62.239C202.983 62.6995 203.362 63.0619 203.823 63.3262C204.283 63.5821 204.833 63.71 205.473 63.71C206.257 63.71 206.905 63.5437 207.417 63.2111C207.929 62.8785 208.334 62.4394 208.632 61.8936C208.939 61.3478 209.178 60.7552 209.349 60.1156V57.0329C209.255 56.5638 209.11 56.1119 208.914 55.677C208.726 55.2335 208.479 54.8413 208.172 54.5002C207.873 54.1505 207.502 53.8734 207.059 53.6687C206.615 53.464 206.095 53.3617 205.498 53.3617C204.85 53.3617 204.292 53.4982 203.823 53.771C203.362 54.0354 202.983 54.4021 202.684 54.8711C202.394 55.3316 202.177 55.8688 202.032 56.4828C201.895 57.0883 201.827 57.7364 201.827 58.4271ZM228.459 58.1585H223.483V56.1502H228.459C229.423 56.1502 230.203 55.9967 230.8 55.6898C231.397 55.3828 231.832 54.9564 232.104 54.4106C232.386 53.8648 232.527 53.2423 232.527 52.5431C232.527 51.9035 232.386 51.3023 232.104 50.7395C231.832 50.1766 231.397 49.7247 230.8 49.3836C230.203 49.0339 229.423 48.8591 228.459 48.8591H224.059V65.4624H221.59V46.8381H228.459C229.866 46.8381 231.056 47.0811 232.028 47.5672C233 48.0533 233.738 48.727 234.241 49.5882C234.744 50.441 234.995 51.4174 234.995 52.5175C234.995 53.7113 234.744 54.7304 234.241 55.5746C233.738 56.4189 233 57.0627 232.028 57.5061C231.056 57.941 229.866 58.1585 228.459 58.1585ZM236.952 58.6957V58.4015C236.952 57.4038 237.097 56.4786 237.387 55.6258C237.677 54.7645 238.095 54.0183 238.641 53.3873C239.187 52.7477 239.848 52.2531 240.624 51.9035C241.4 51.5453 242.269 51.3663 243.233 51.3663C244.205 51.3663 245.079 51.5453 245.855 51.9035C246.64 52.2531 247.305 52.7477 247.851 53.3873C248.405 54.0183 248.827 54.7645 249.117 55.6258C249.407 56.4786 249.552 57.4038 249.552 58.4015V58.6957C249.552 59.6935 249.407 60.6187 249.117 61.4715C248.827 62.3242 248.405 63.0704 247.851 63.71C247.305 64.341 246.644 64.8356 245.868 65.1938C245.101 65.5434 244.231 65.7182 243.259 65.7182C242.286 65.7182 241.412 65.5434 240.636 65.1938C239.86 64.8356 239.195 64.341 238.641 63.71C238.095 63.0704 237.677 62.3242 237.387 61.4715C237.097 60.6187 236.952 59.6935 236.952 58.6957ZM239.319 58.4015V58.6957C239.319 59.3865 239.4 60.0388 239.562 60.6528C239.724 61.2583 239.967 61.7955 240.291 62.2645C240.624 62.7336 241.037 63.1045 241.532 63.3774C242.026 63.6418 242.602 63.7739 243.259 63.7739C243.907 63.7739 244.474 63.6418 244.96 63.3774C245.454 63.1045 245.864 62.7336 246.188 62.2645C246.512 61.7955 246.755 61.2583 246.917 60.6528C247.088 60.0388 247.173 59.3865 247.173 58.6957V58.4015C247.173 57.7193 247.088 57.0755 246.917 56.47C246.755 55.856 246.508 55.3145 246.175 54.8455C245.851 54.368 245.442 53.9928 244.947 53.7199C244.461 53.447 243.89 53.3105 243.233 53.3105C242.585 53.3105 242.014 53.447 241.519 53.7199C241.033 53.9928 240.624 54.368 240.291 54.8455C239.967 55.3145 239.724 55.856 239.562 56.47C239.4 57.0755 239.319 57.7193 239.319 58.4015ZM254.886 53.7966V65.4624H252.52V51.6221H254.822L254.886 53.7966ZM259.21 51.5453L259.197 53.7455C259.001 53.7028 258.813 53.6772 258.634 53.6687C258.463 53.6517 258.267 53.6431 258.046 53.6431C257.5 53.6431 257.018 53.7284 256.6 53.899C256.182 54.0695 255.828 54.3083 255.538 54.6153C255.248 54.9223 255.018 55.289 254.848 55.7153C254.686 56.1332 254.579 56.5937 254.528 57.0968L253.863 57.4806C253.863 56.6448 253.944 55.8603 254.106 55.1269C254.276 54.3936 254.536 53.7455 254.886 53.1826C255.236 52.6113 255.679 52.1678 256.216 51.8523C256.762 51.5283 257.41 51.3663 258.161 51.3663C258.331 51.3663 258.527 51.3876 258.749 51.4302C258.971 51.4643 259.124 51.5027 259.21 51.5453ZM267.831 51.6221V53.4385H260.348V51.6221H267.831ZM262.881 48.2579H265.247V62.0343C265.247 62.5033 265.32 62.8572 265.465 63.096C265.609 63.3348 265.797 63.4925 266.027 63.5693C266.258 63.646 266.505 63.6844 266.769 63.6844C266.965 63.6844 267.17 63.6673 267.383 63.6332C267.605 63.5906 267.771 63.5565 267.882 63.5309L267.895 65.4624C267.707 65.5221 267.46 65.5775 267.153 65.6287C266.855 65.6884 266.492 65.7182 266.066 65.7182C265.486 65.7182 264.953 65.6031 264.467 65.3729C263.981 65.1426 263.593 64.7589 263.303 64.2216C263.021 63.6759 262.881 62.9425 262.881 62.0215V48.2579ZM278.768 63.096V55.9712C278.768 55.4254 278.657 54.9521 278.435 54.5513C278.222 54.142 277.898 53.8265 277.463 53.6048C277.028 53.383 276.491 53.2722 275.851 53.2722C275.254 53.2722 274.73 53.3745 274.278 53.5792C273.834 53.7838 273.485 54.0525 273.229 54.385C272.982 54.7176 272.858 55.0758 272.858 55.4595H270.492C270.492 54.9649 270.619 54.4746 270.875 53.9885C271.131 53.5024 271.498 53.0632 271.975 52.671C272.461 52.2702 273.041 51.9547 273.715 51.7244C274.397 51.4856 275.156 51.3663 275.992 51.3663C276.998 51.3663 277.885 51.5368 278.652 51.8779C279.428 52.219 280.034 52.7349 280.469 53.4257C280.912 54.1079 281.134 54.9649 281.134 55.9967V62.4436C281.134 62.9041 281.172 63.3945 281.249 63.9146C281.334 64.4348 281.458 64.8825 281.62 65.2577V65.4624H279.151C279.032 65.1895 278.938 64.8271 278.87 64.3751C278.802 63.9146 278.768 63.4883 278.768 63.096ZM279.177 57.0712L279.203 58.7341H276.811C276.137 58.7341 275.536 58.7895 275.007 58.9004C274.478 59.0027 274.035 59.1605 273.677 59.3737C273.318 59.5869 273.046 59.8555 272.858 60.1795C272.67 60.4951 272.577 60.866 272.577 61.2924C272.577 61.7273 272.675 62.1238 272.871 62.482C273.067 62.8402 273.361 63.1258 273.753 63.339C274.154 63.5437 274.645 63.646 275.224 63.646C275.949 63.646 276.589 63.4925 277.143 63.1855C277.697 62.8785 278.137 62.5033 278.461 62.0599C278.793 61.6164 278.972 61.1858 278.998 60.7679L280.008 61.9064C279.949 62.2645 279.787 62.6611 279.522 63.096C279.258 63.5309 278.904 63.9488 278.461 64.3495C278.026 64.7418 277.506 65.0701 276.9 65.3345C276.303 65.5903 275.629 65.7182 274.879 65.7182C273.941 65.7182 273.118 65.5349 272.41 65.1682C271.711 64.8015 271.165 64.3112 270.773 63.6972C270.389 63.0747 270.197 62.3797 270.197 61.6122C270.197 60.8703 270.342 60.2179 270.632 59.6551C270.922 59.0837 271.34 58.6105 271.886 58.2352C272.432 57.8515 273.088 57.5616 273.856 57.3654C274.623 57.1693 275.48 57.0712 276.427 57.0712H279.177ZM287.427 45.8148V65.4624H285.048V45.8148H287.427ZM105.91 103.533H98.6333V98.0853H105.91C106.901 98.0853 107.705 97.9178 108.322 97.5828C108.938 97.2477 109.387 96.7854 109.669 96.1958C109.963 95.5928 110.111 94.9161 110.111 94.1656C110.111 93.3616 109.963 92.6179 109.669 91.9344C109.387 91.251 108.938 90.7016 108.322 90.2862C107.705 89.8573 106.901 89.6429 105.91 89.6429H101.287V113.462H94.2312V84.1956H105.91C108.255 84.1956 110.272 84.6244 111.96 85.4821C113.662 86.3397 114.969 87.519 115.88 89.0198C116.791 90.5073 117.247 92.2091 117.247 94.1254C117.247 96.0149 116.791 97.6632 115.88 99.0702C114.969 100.477 113.662 101.576 111.96 102.367C110.272 103.144 108.255 103.533 105.91 103.533ZM127.558 97.1003V113.462H120.784V91.7133H127.116L127.558 97.1003ZM133.991 91.5525L133.87 97.8441C133.602 97.8173 133.24 97.7838 132.785 97.7436C132.329 97.7034 131.947 97.6833 131.639 97.6833C130.848 97.6833 130.165 97.7771 129.589 97.9647C129.026 98.1389 128.557 98.4069 128.181 98.7687C127.82 99.1171 127.552 99.5593 127.377 100.095C127.217 100.631 127.143 101.255 127.156 101.965L125.93 101.161C125.93 99.7 126.071 98.3734 126.352 97.1807C126.647 95.9747 127.063 94.9362 127.599 94.0651C128.135 93.1807 128.784 92.504 129.548 92.0349C130.312 91.5525 131.17 91.3113 132.121 91.3113C132.456 91.3113 132.785 91.3314 133.106 91.3716C133.441 91.4118 133.736 91.4721 133.991 91.5525ZM134.754 102.809V102.387C134.754 100.792 134.982 99.3248 135.438 97.9848C135.893 96.6313 136.563 95.4588 137.448 94.4671C138.332 93.4755 139.425 92.705 140.724 92.1555C142.024 91.5927 143.525 91.3113 145.227 91.3113C146.942 91.3113 148.45 91.5927 149.75 92.1555C151.063 92.705 152.162 93.4755 153.046 94.4671C153.931 95.4588 154.601 96.6313 155.056 97.9848C155.512 99.3248 155.74 100.792 155.74 102.387V102.809C155.74 104.39 155.512 105.858 155.056 107.211C154.601 108.551 153.931 109.724 153.046 110.729C152.162 111.72 151.07 112.491 149.77 113.04C148.47 113.59 146.969 113.864 145.267 113.864C143.565 113.864 142.058 113.59 140.744 113.04C139.431 112.491 138.332 111.72 137.448 110.729C136.563 109.724 135.893 108.551 135.438 107.211C134.982 105.858 134.754 104.39 134.754 102.809ZM141.528 102.387V102.809C141.528 103.626 141.589 104.39 141.709 105.1C141.83 105.811 142.031 106.434 142.312 106.97C142.594 107.492 142.976 107.901 143.458 108.196C143.94 108.491 144.544 108.638 145.267 108.638C145.977 108.638 146.567 108.491 147.036 108.196C147.518 107.901 147.9 107.492 148.182 106.97C148.463 106.434 148.664 105.811 148.785 105.1C148.905 104.39 148.966 103.626 148.966 102.809V102.387C148.966 101.596 148.905 100.852 148.785 100.156C148.664 99.4454 148.463 98.8223 148.182 98.2863C147.9 97.7369 147.518 97.3081 147.036 96.9998C146.554 96.6916 145.951 96.5375 145.227 96.5375C144.517 96.5375 143.92 96.6916 143.438 96.9998C142.969 97.3081 142.594 97.7369 142.312 98.2863C142.031 98.8223 141.83 99.4454 141.709 100.156C141.589 100.852 141.528 101.596 141.528 102.387ZM159.257 91.7133H166.051V114.166C166.051 115.908 165.716 117.375 165.046 118.568C164.376 119.774 163.418 120.685 162.172 121.302C160.926 121.932 159.438 122.246 157.71 122.246C157.133 122.246 156.604 122.22 156.122 122.166C155.626 122.126 155.083 122.039 154.493 121.905V116.779C154.842 116.833 155.163 116.873 155.458 116.9C155.753 116.94 156.075 116.96 156.423 116.96C157.04 116.96 157.555 116.859 157.971 116.658C158.386 116.457 158.701 116.149 158.916 115.734C159.143 115.318 159.257 114.796 159.257 114.166V91.7133ZM158.755 86.1052C158.755 85.1404 159.103 84.3497 159.8 83.7333C160.497 83.1169 161.401 82.8087 162.514 82.8087C163.626 82.8087 164.53 83.1169 165.227 83.7333C165.924 84.3497 166.272 85.1404 166.272 86.1052C166.272 87.07 165.924 87.8607 165.227 88.4771C164.53 89.0935 163.626 89.4017 162.514 89.4017C161.401 89.4017 160.497 89.0935 159.8 88.4771C159.103 87.8607 158.755 87.07 158.755 86.1052ZM180.423 113.864C178.655 113.864 177.073 113.59 175.68 113.04C174.286 112.477 173.107 111.707 172.142 110.729C171.19 109.75 170.46 108.625 169.951 107.352C169.455 106.079 169.207 104.732 169.207 103.311V102.548C169.207 100.953 169.428 99.4789 169.871 98.1255C170.313 96.7586 170.969 95.566 171.84 94.5475C172.711 93.5291 173.804 92.7385 175.117 92.1756C176.43 91.5994 177.958 91.3113 179.7 91.3113C181.241 91.3113 182.621 91.5592 183.841 92.055C185.06 92.5509 186.092 93.2611 186.936 94.1857C187.794 95.1104 188.444 96.2293 188.886 97.5426C189.342 98.8558 189.569 100.33 189.569 101.965V104.719H171.8V100.477H182.956V99.9547C182.97 99.231 182.842 98.6146 182.574 98.1054C182.32 97.5962 181.944 97.2075 181.449 96.9395C180.953 96.6715 180.35 96.5375 179.64 96.5375C178.903 96.5375 178.293 96.6983 177.81 97.0199C177.341 97.3416 176.973 97.7838 176.705 98.3466C176.45 98.896 176.269 99.5325 176.162 100.256C176.055 100.98 176.001 101.744 176.001 102.548V103.311C176.001 104.116 176.108 104.846 176.323 105.502C176.551 106.159 176.872 106.722 177.288 107.191C177.717 107.647 178.226 108.002 178.815 108.256C179.418 108.511 180.102 108.638 180.866 108.638C181.79 108.638 182.702 108.464 183.599 108.116C184.497 107.767 185.268 107.191 185.911 106.387L188.986 110.045C188.544 110.675 187.914 111.285 187.097 111.874C186.293 112.464 185.328 112.946 184.202 113.322C183.077 113.684 181.817 113.864 180.423 113.864ZM201.509 108.638C202.139 108.638 202.675 108.524 203.117 108.296C203.573 108.055 203.915 107.72 204.142 107.291C204.384 106.849 204.498 106.32 204.484 105.703H210.856C210.87 107.338 210.467 108.772 209.65 110.005C208.846 111.225 207.747 112.176 206.354 112.859C204.973 113.529 203.412 113.864 201.67 113.864C199.968 113.864 198.481 113.59 197.208 113.04C195.935 112.477 194.869 111.7 194.012 110.709C193.167 109.704 192.531 108.531 192.102 107.191C191.687 105.851 191.479 104.397 191.479 102.829V102.367C191.479 100.799 191.687 99.3449 192.102 98.0049C192.531 96.6514 193.167 95.4789 194.012 94.4872C194.869 93.4822 195.928 92.705 197.188 92.1555C198.461 91.5927 199.941 91.3113 201.63 91.3113C203.439 91.3113 205.034 91.653 206.414 92.3364C207.807 93.0199 208.9 94.0115 209.69 95.3114C210.481 96.6112 210.87 98.1858 210.856 100.035H204.484C204.498 99.3784 204.397 98.7888 204.183 98.2662C203.968 97.7436 203.633 97.3282 203.178 97.0199C202.735 96.6983 202.166 96.5375 201.469 96.5375C200.772 96.5375 200.209 96.6916 199.781 96.9998C199.352 97.3081 199.023 97.7369 198.796 98.2863C198.581 98.8223 198.434 99.4387 198.353 100.136C198.286 100.832 198.253 101.576 198.253 102.367V102.829C198.253 103.633 198.286 104.39 198.353 105.1C198.434 105.797 198.588 106.414 198.816 106.95C199.044 107.472 199.372 107.888 199.801 108.196C200.229 108.491 200.799 108.638 201.509 108.638ZM225.208 91.7133V96.4169H212.102V91.7133H225.208ZM214.856 86.3062H221.63V106.367C221.63 106.943 221.697 107.392 221.831 107.714C221.965 108.022 222.193 108.243 222.515 108.377C222.85 108.498 223.292 108.558 223.841 108.558C224.23 108.558 224.551 108.551 224.806 108.538C225.061 108.511 225.302 108.477 225.53 108.437V113.281C224.953 113.469 224.35 113.61 223.721 113.704C223.091 113.811 222.421 113.864 221.711 113.864C220.263 113.864 219.024 113.637 217.992 113.181C216.973 112.725 216.196 112.008 215.66 111.03C215.124 110.052 214.856 108.779 214.856 107.211V86.3062ZM250.153 103.533H242.877V98.0853H250.153C251.145 98.0853 251.949 97.9178 252.565 97.5828C253.182 97.2477 253.631 96.7854 253.912 96.1958C254.207 95.5928 254.354 94.9161 254.354 94.1656C254.354 93.3616 254.207 92.6179 253.912 91.9344C253.631 91.251 253.182 90.7016 252.565 90.2862C251.949 89.8573 251.145 89.6429 250.153 89.6429H245.53V113.462H238.475V84.1956H250.153C252.498 84.1956 254.515 84.6244 256.204 85.4821C257.905 86.3397 259.212 87.519 260.123 89.0198C261.034 90.5073 261.49 92.2091 261.49 94.1254C261.49 96.0149 261.034 97.6632 260.123 99.0702C259.212 100.477 257.905 101.576 256.204 102.367C254.515 103.144 252.498 103.533 250.153 103.533ZM271.601 82.5876V113.462H264.827V82.5876H271.601ZM270.797 101.844L269.209 101.884C269.209 100.357 269.396 98.9496 269.772 97.6632C270.147 96.3767 270.683 95.2578 271.38 94.3063C272.076 93.3549 272.914 92.6179 273.892 92.0952C274.87 91.5726 275.956 91.3113 277.149 91.3113C278.221 91.3113 279.199 91.4654 280.083 91.7736C280.981 92.0818 281.752 92.5777 282.395 93.2611C283.052 93.9445 283.554 94.8357 283.902 95.9345C284.264 97.0333 284.445 98.3734 284.445 99.9547V113.462H277.631V99.9145C277.631 99.03 277.504 98.3466 277.249 97.8642C277.008 97.3684 276.659 97.0266 276.204 96.839C275.748 96.638 275.192 96.5375 274.535 96.5375C273.745 96.5375 273.102 96.6715 272.606 96.9395C272.11 97.2075 271.728 97.5828 271.46 98.0652C271.205 98.5342 271.031 99.0903 270.937 99.7335C270.844 100.377 270.797 101.08 270.797 101.844ZM295.36 91.7133V113.462H288.566V91.7133H295.36ZM288.164 86.1052C288.164 85.1404 288.512 84.3497 289.209 83.7333C289.906 83.1169 290.81 82.8087 291.923 82.8087C293.035 82.8087 293.939 83.1169 294.636 83.7333C295.333 84.3497 295.682 85.1404 295.682 86.1052C295.682 87.07 295.333 87.8607 294.636 88.4771C293.939 89.0935 293.035 89.4017 291.923 89.4017C290.81 89.4017 289.906 89.0935 289.209 88.4771C288.512 87.8607 288.164 87.07 288.164 86.1052ZM306.697 82.5876V113.462H299.903V82.5876H306.697ZM310.033 102.809V102.387C310.033 100.792 310.261 99.3248 310.717 97.9848C311.173 96.6313 311.843 95.4588 312.727 94.4671C313.611 93.4755 314.704 92.705 316.003 92.1555C317.303 91.5927 318.804 91.3113 320.506 91.3113C322.221 91.3113 323.729 91.5927 325.029 92.1555C326.342 92.705 327.441 93.4755 328.325 94.4671C329.21 95.4588 329.88 96.6313 330.335 97.9848C330.791 99.3248 331.019 100.792 331.019 102.387V102.809C331.019 104.39 330.791 105.858 330.335 107.211C329.88 108.551 329.21 109.724 328.325 110.729C327.441 111.72 326.349 112.491 325.049 113.04C323.749 113.59 322.248 113.864 320.546 113.864C318.844 113.864 317.337 113.59 316.024 113.04C314.71 112.491 313.611 111.72 312.727 110.729C311.843 109.724 311.173 108.551 310.717 107.211C310.261 105.858 310.033 104.39 310.033 102.809ZM316.807 102.387V102.809C316.807 103.626 316.868 104.39 316.988 105.1C317.109 105.811 317.31 106.434 317.591 106.97C317.873 107.492 318.255 107.901 318.737 108.196C319.22 108.491 319.823 108.638 320.546 108.638C321.256 108.638 321.846 108.491 322.315 108.196C322.798 107.901 323.179 107.492 323.461 106.97C323.742 106.434 323.943 105.811 324.064 105.1C324.184 104.39 324.245 103.626 324.245 102.809V102.387C324.245 101.596 324.184 100.852 324.064 100.156C323.943 99.4454 323.742 98.8223 323.461 98.2863C323.179 97.7369 322.798 97.3081 322.315 96.9998C321.833 96.6916 321.23 96.5375 320.506 96.5375C319.796 96.5375 319.199 96.6916 318.717 96.9998C318.248 97.3081 317.873 97.7369 317.591 98.2863C317.31 98.8223 317.109 99.4454 316.988 100.156C316.868 100.852 316.807 101.596 316.807 102.387ZM345.431 107.352C345.431 106.977 345.304 106.655 345.049 106.387C344.808 106.106 344.379 105.851 343.763 105.623C343.146 105.382 342.282 105.141 341.17 104.899C340.111 104.672 339.113 104.37 338.175 103.995C337.25 103.62 336.439 103.164 335.742 102.628C335.046 102.092 334.496 101.456 334.094 100.718C333.706 99.9815 333.511 99.1372 333.511 98.1858C333.511 97.2611 333.706 96.3901 334.094 95.5727C334.496 94.7418 335.079 94.0115 335.843 93.3817C336.62 92.7385 337.565 92.2359 338.677 91.8741C339.789 91.4989 341.056 91.3113 342.476 91.3113C344.433 91.3113 346.121 91.6128 347.542 92.2158C348.962 92.8055 350.054 93.6363 350.818 94.7083C351.595 95.767 351.984 96.9931 351.984 98.3868H345.21C345.21 97.8374 345.116 97.3684 344.929 96.9797C344.754 96.5911 344.466 96.2963 344.064 96.0953C343.662 95.8809 343.126 95.7737 342.456 95.7737C341.987 95.7737 341.558 95.8608 341.17 96.035C340.794 96.2092 340.493 96.4504 340.265 96.7586C340.037 97.0668 339.923 97.4287 339.923 97.8441C339.923 98.1389 339.99 98.4069 340.124 98.6481C340.272 98.8759 340.493 99.0903 340.788 99.2913C341.083 99.4789 341.458 99.6531 341.913 99.814C342.369 99.9614 342.918 100.095 343.562 100.216C345.022 100.484 346.389 100.866 347.662 101.362C348.935 101.858 349.967 102.561 350.758 103.472C351.562 104.384 351.964 105.61 351.964 107.151C351.964 108.116 351.743 109.007 351.3 109.824C350.858 110.628 350.222 111.338 349.391 111.955C348.56 112.558 347.562 113.027 346.396 113.362C345.23 113.697 343.917 113.864 342.456 113.864C340.379 113.864 338.624 113.496 337.19 112.759C335.756 112.008 334.67 111.07 333.933 109.945C333.21 108.806 332.848 107.653 332.848 106.487H339.16C339.186 107.157 339.347 107.707 339.642 108.136C339.95 108.565 340.359 108.879 340.868 109.08C341.377 109.281 341.967 109.382 342.637 109.382C343.253 109.382 343.763 109.295 344.165 109.121C344.58 108.946 344.895 108.712 345.109 108.417C345.324 108.109 345.431 107.754 345.431 107.352ZM354.296 102.809V102.387C354.296 100.792 354.523 99.3248 354.979 97.9848C355.435 96.6313 356.105 95.4588 356.989 94.4671C357.873 93.4755 358.966 92.705 360.265 92.1555C361.565 91.5927 363.066 91.3113 364.768 91.3113C366.483 91.3113 367.991 91.5927 369.291 92.1555C370.604 92.705 371.703 93.4755 372.587 94.4671C373.472 95.4588 374.142 96.6313 374.597 97.9848C375.053 99.3248 375.281 100.792 375.281 102.387V102.809C375.281 104.39 375.053 105.858 374.597 107.211C374.142 108.551 373.472 109.724 372.587 110.729C371.703 111.72 370.611 112.491 369.311 113.04C368.011 113.59 366.51 113.864 364.808 113.864C363.106 113.864 361.599 113.59 360.286 113.04C358.972 112.491 357.873 111.72 356.989 110.729C356.105 109.724 355.435 108.551 354.979 107.211C354.523 105.858 354.296 104.39 354.296 102.809ZM361.069 102.387V102.809C361.069 103.626 361.13 104.39 361.25 105.1C361.371 105.811 361.572 106.434 361.853 106.97C362.135 107.492 362.517 107.901 362.999 108.196C363.482 108.491 364.085 108.638 364.808 108.638C365.518 108.638 366.108 108.491 366.577 108.196C367.06 107.901 367.441 107.492 367.723 106.97C368.004 106.434 368.205 105.811 368.326 105.1C368.446 104.39 368.507 103.626 368.507 102.809V102.387C368.507 101.596 368.446 100.852 368.326 100.156C368.205 99.4454 368.004 98.8223 367.723 98.2863C367.441 97.7369 367.06 97.3081 366.577 96.9998C366.095 96.6916 365.492 96.5375 364.768 96.5375C364.058 96.5375 363.461 96.6916 362.979 96.9998C362.51 97.3081 362.135 97.7369 361.853 98.2863C361.572 98.8223 361.371 99.4454 361.25 100.156C361.13 100.852 361.069 101.596 361.069 102.387ZM385.13 95.8943V121.824H378.356V91.7133H384.668L385.13 95.8943ZM398.477 102.327V102.749C398.477 104.33 398.296 105.797 397.934 107.151C397.573 108.504 397.037 109.683 396.326 110.688C395.616 111.694 394.732 112.477 393.673 113.04C392.628 113.59 391.415 113.864 390.035 113.864C388.735 113.864 387.616 113.576 386.678 113C385.74 112.424 384.956 111.627 384.326 110.608C383.696 109.59 383.187 108.424 382.798 107.111C382.41 105.797 382.102 104.41 381.874 102.95V102.407C382.102 100.839 382.41 99.3851 382.798 98.0451C383.187 96.6916 383.696 95.5124 384.326 94.5073C384.956 93.5023 385.733 92.7184 386.658 92.1555C387.596 91.5927 388.715 91.3113 390.015 91.3113C391.395 91.3113 392.608 91.5726 393.653 92.0952C394.712 92.6179 395.596 93.3683 396.306 94.3465C397.03 95.3114 397.573 96.4705 397.934 97.824C398.296 99.1774 398.477 100.678 398.477 102.327ZM391.703 102.749V102.327C391.703 101.482 391.643 100.712 391.522 100.015C391.402 99.3047 391.207 98.6883 390.939 98.1657C390.685 97.6431 390.343 97.241 389.914 96.9596C389.485 96.6782 388.956 96.5375 388.326 96.5375C387.603 96.5375 386.993 96.6514 386.497 96.8792C386.015 97.0936 385.626 97.4287 385.331 97.8843C385.05 98.3265 384.849 98.8826 384.728 99.5526C384.621 100.209 384.574 100.98 384.587 101.864V103.513C384.561 104.531 384.661 105.429 384.889 106.206C385.117 106.97 385.512 107.566 386.075 107.995C386.638 108.424 387.402 108.638 388.366 108.638C389.01 108.638 389.546 108.491 389.974 108.196C390.403 107.888 390.745 107.466 391 106.93C391.254 106.38 391.435 105.75 391.542 105.04C391.65 104.33 391.703 103.566 391.703 102.749ZM408.125 82.5876V113.462H401.351V82.5876H408.125ZM407.321 101.844L405.733 101.884C405.733 100.357 405.921 98.9496 406.296 97.6632C406.671 96.3767 407.208 95.2578 407.904 94.3063C408.601 93.3549 409.439 92.6179 410.417 92.0952C411.395 91.5726 412.481 91.3113 413.673 91.3113C414.745 91.3113 415.724 91.4654 416.608 91.7736C417.506 92.0818 418.276 92.5777 418.92 93.2611C419.576 93.9445 420.079 94.8357 420.427 95.9345C420.789 97.0333 420.97 98.3734 420.97 99.9547V113.462H414.156V99.9145C414.156 99.03 414.028 98.3466 413.774 97.8642C413.533 97.3684 413.184 97.0266 412.729 96.839C412.273 96.638 411.717 96.5375 411.06 96.5375C410.27 96.5375 409.626 96.6715 409.13 96.9395C408.635 97.2075 408.253 97.5828 407.985 98.0652C407.73 98.5342 407.556 99.0903 407.462 99.7335C407.368 100.377 407.321 101.08 407.321 101.844ZM431.402 110.91L437.03 91.7133H444.307L435.563 116.699C435.375 117.248 435.128 117.838 434.819 118.468C434.511 119.111 434.089 119.72 433.553 120.297C433.017 120.873 432.327 121.342 431.483 121.704C430.652 122.066 429.62 122.246 428.387 122.246C427.73 122.246 427.248 122.213 426.94 122.146C426.645 122.092 426.189 121.992 425.573 121.844V117C425.747 117 425.895 117 426.015 117C426.149 117 426.297 117 426.457 117C427.181 117 427.757 116.926 428.186 116.779C428.628 116.632 428.963 116.417 429.191 116.136C429.432 115.854 429.62 115.513 429.754 115.111L431.402 110.91ZM429.975 91.7133L434.257 106.93L435 114.106H430.457L422.719 91.7133H429.975Z" fill="black"/>
</svg>
