<svg width="1363" height="167" viewBox="0 0 1363 167" fill="none" xmlns="http://www.w3.org/2000/svg">
<rect width="1363" height="167" rx="15" fill="#F0F0F0"/>
<path d="M0 15C0 6.71573 6.71573 0 15 0H37V167H15C6.71573 167 0 160.284 0 152V15Z" fill="#424241"/>
<path d="M100.906 54.9219L93.3945 52.2383V49.0859L103.602 53.375V55.6367L100.906 54.9219ZM93.3945 57.1719L100.918 54.4297L103.602 53.7852V56.0352L93.3945 60.3242V57.1719ZM118.543 55.918H114.195V53.1758H118.543C119.215 53.1758 119.762 53.0664 120.184 52.8477C120.605 52.6211 120.914 52.3086 121.109 51.9102C121.305 51.5117 121.402 51.0625 121.402 50.5625C121.402 50.0547 121.305 49.582 121.109 49.1445C120.914 48.707 120.605 48.3555 120.184 48.0898C119.762 47.8242 119.215 47.6914 118.543 47.6914H115.414V62H111.898V44.9375H118.543C119.879 44.9375 121.023 45.1797 121.977 45.6641C122.938 46.1406 123.672 46.8008 124.18 47.6445C124.688 48.4883 124.941 49.4531 124.941 50.5391C124.941 51.6406 124.688 52.5938 124.18 53.3984C123.672 54.2031 122.938 54.8242 121.977 55.2617C121.023 55.6992 119.879 55.918 118.543 55.918ZM130.531 52.0859V62H127.156V49.3203H130.332L130.531 52.0859ZM134.352 49.2383L134.293 52.3672C134.129 52.3438 133.93 52.3242 133.695 52.3086C133.469 52.2852 133.262 52.2734 133.074 52.2734C132.598 52.2734 132.184 52.3359 131.832 52.4609C131.488 52.5781 131.199 52.7539 130.965 52.9883C130.738 53.2227 130.566 53.5078 130.449 53.8438C130.34 54.1797 130.277 54.5625 130.262 54.9922L129.582 54.7812C129.582 53.9609 129.664 53.207 129.828 52.5195C129.992 51.8242 130.23 51.2188 130.543 50.7031C130.863 50.1875 131.254 49.7891 131.715 49.5078C132.176 49.2266 132.703 49.0859 133.297 49.0859C133.484 49.0859 133.676 49.1016 133.871 49.1328C134.066 49.1562 134.227 49.1914 134.352 49.2383ZM135.055 55.7891V55.543C135.055 54.6133 135.188 53.7578 135.453 52.9766C135.719 52.1875 136.105 51.5039 136.613 50.9258C137.121 50.3477 137.746 49.8984 138.488 49.5781C139.23 49.25 140.082 49.0859 141.043 49.0859C142.004 49.0859 142.859 49.25 143.609 49.5781C144.359 49.8984 144.988 50.3477 145.496 50.9258C146.012 51.5039 146.402 52.1875 146.668 52.9766C146.934 53.7578 147.066 54.6133 147.066 55.543V55.7891C147.066 56.7109 146.934 57.5664 146.668 58.3555C146.402 59.1367 146.012 59.8203 145.496 60.4062C144.988 60.9844 144.363 61.4336 143.621 61.7539C142.879 62.0742 142.027 62.2344 141.066 62.2344C140.105 62.2344 139.25 62.0742 138.5 61.7539C137.758 61.4336 137.129 60.9844 136.613 60.4062C136.105 59.8203 135.719 59.1367 135.453 58.3555C135.188 57.5664 135.055 56.7109 135.055 55.7891ZM138.43 55.543V55.7891C138.43 56.3203 138.477 56.8164 138.57 57.2773C138.664 57.7383 138.812 58.1445 139.016 58.4961C139.227 58.8398 139.5 59.1094 139.836 59.3047C140.172 59.5 140.582 59.5977 141.066 59.5977C141.535 59.5977 141.938 59.5 142.273 59.3047C142.609 59.1094 142.879 58.8398 143.082 58.4961C143.285 58.1445 143.434 57.7383 143.527 57.2773C143.629 56.8164 143.68 56.3203 143.68 55.7891V55.543C143.68 55.0273 143.629 54.543 143.527 54.0898C143.434 53.6289 143.281 53.2227 143.07 52.8711C142.867 52.5117 142.598 52.2305 142.262 52.0273C141.926 51.8242 141.52 51.7227 141.043 51.7227C140.566 51.7227 140.16 51.8242 139.824 52.0273C139.496 52.2305 139.227 52.5117 139.016 52.8711C138.812 53.2227 138.664 53.6289 138.57 54.0898C138.477 54.543 138.43 55.0273 138.43 55.543ZM149.328 49.3203H152.715V62.7617C152.715 63.6992 152.543 64.4922 152.199 65.1406C151.855 65.7891 151.359 66.2812 150.711 66.6172C150.062 66.9531 149.277 67.1211 148.355 67.1211C148.066 67.1211 147.785 67.1055 147.512 67.0742C147.23 67.043 146.941 66.9922 146.645 66.9219L146.656 64.332C146.844 64.3633 147.027 64.3867 147.207 64.4023C147.379 64.4258 147.555 64.4375 147.734 64.4375C148.086 64.4375 148.379 64.3789 148.613 64.2617C148.848 64.1445 149.023 63.9609 149.141 63.7109C149.266 63.4688 149.328 63.1523 149.328 62.7617V49.3203ZM149.059 46.0156C149.059 45.5234 149.23 45.1172 149.574 44.7969C149.926 44.4766 150.387 44.3164 150.957 44.3164C151.535 44.3164 151.996 44.4766 152.34 44.7969C152.684 45.1172 152.855 45.5234 152.855 46.0156C152.855 46.5078 152.684 46.9141 152.34 47.2344C151.996 47.5547 151.535 47.7148 150.957 47.7148C150.387 47.7148 149.926 47.5547 149.574 47.2344C149.23 46.9141 149.059 46.5078 149.059 46.0156ZM161.234 62.2344C160.25 62.2344 159.367 62.0781 158.586 61.7656C157.805 61.4453 157.141 61.0039 156.594 60.4414C156.055 59.8789 155.641 59.2266 155.352 58.4844C155.062 57.7344 154.918 56.9375 154.918 56.0938V55.625C154.918 54.6641 155.055 53.7852 155.328 52.9883C155.602 52.1914 155.992 51.5 156.5 50.9141C157.016 50.3281 157.641 49.8789 158.375 49.5664C159.109 49.2461 159.938 49.0859 160.859 49.0859C161.758 49.0859 162.555 49.2344 163.25 49.5312C163.945 49.8281 164.527 50.25 164.996 50.7969C165.473 51.3438 165.832 52 166.074 52.7656C166.316 53.5234 166.438 54.3672 166.438 55.2969V56.7031H156.359V54.4531H163.121V54.1953C163.121 53.7266 163.035 53.3086 162.863 52.9414C162.699 52.5664 162.449 52.2695 162.113 52.0508C161.777 51.832 161.348 51.7227 160.824 51.7227C160.379 51.7227 159.996 51.8203 159.676 52.0156C159.355 52.2109 159.094 52.4844 158.891 52.8359C158.695 53.1875 158.547 53.6016 158.445 54.0781C158.352 54.5469 158.305 55.0625 158.305 55.625V56.0938C158.305 56.6016 158.375 57.0703 158.516 57.5C158.664 57.9297 158.871 58.3008 159.137 58.6133C159.41 58.9258 159.738 59.168 160.121 59.3398C160.512 59.5117 160.953 59.5977 161.445 59.5977C162.055 59.5977 162.621 59.4805 163.145 59.2461C163.676 59.0039 164.133 58.6406 164.516 58.1562L166.156 59.9375C165.891 60.3203 165.527 60.6875 165.066 61.0391C164.613 61.3906 164.066 61.6797 163.426 61.9062C162.785 62.125 162.055 62.2344 161.234 62.2344ZM173.598 59.5977C174.012 59.5977 174.379 59.5195 174.699 59.3633C175.02 59.1992 175.27 58.9727 175.449 58.6836C175.637 58.3867 175.734 58.0391 175.742 57.6406H178.918C178.91 58.5312 178.672 59.3242 178.203 60.0195C177.734 60.707 177.105 61.25 176.316 61.6484C175.527 62.0391 174.645 62.2344 173.668 62.2344C172.684 62.2344 171.824 62.0703 171.09 61.7422C170.363 61.4141 169.758 60.9609 169.273 60.3828C168.789 59.7969 168.426 59.1172 168.184 58.3438C167.941 57.5625 167.82 56.7266 167.82 55.8359V55.4961C167.82 54.5977 167.941 53.7617 168.184 52.9883C168.426 52.207 168.789 51.5273 169.273 50.9492C169.758 50.3633 170.363 49.9062 171.09 49.5781C171.816 49.25 172.668 49.0859 173.645 49.0859C174.684 49.0859 175.594 49.2852 176.375 49.6836C177.164 50.082 177.781 50.6523 178.227 51.3945C178.68 52.1289 178.91 53 178.918 54.0078H175.742C175.734 53.5859 175.645 53.2031 175.473 52.8594C175.309 52.5156 175.066 52.2422 174.746 52.0391C174.434 51.8281 174.047 51.7227 173.586 51.7227C173.094 51.7227 172.691 51.8281 172.379 52.0391C172.066 52.2422 171.824 52.5234 171.652 52.8828C171.48 53.2344 171.359 53.6367 171.289 54.0898C171.227 54.5352 171.195 55.0039 171.195 55.4961V55.8359C171.195 56.3281 171.227 56.8008 171.289 57.2539C171.352 57.707 171.469 58.1094 171.641 58.4609C171.82 58.8125 172.066 59.0898 172.379 59.293C172.691 59.4961 173.098 59.5977 173.598 59.5977ZM187.086 49.3203V51.7109H179.703V49.3203H187.086ZM181.531 46.1914H184.906V58.1797C184.906 58.5469 184.953 58.8281 185.047 59.0234C185.148 59.2188 185.297 59.3555 185.492 59.4336C185.688 59.5039 185.934 59.5391 186.23 59.5391C186.441 59.5391 186.629 59.5312 186.793 59.5156C186.965 59.4922 187.109 59.4688 187.227 59.4453L187.238 61.9297C186.949 62.0234 186.637 62.0977 186.301 62.1523C185.965 62.207 185.594 62.2344 185.188 62.2344C184.445 62.2344 183.797 62.1133 183.242 61.8711C182.695 61.6211 182.273 61.2227 181.977 60.6758C181.68 60.1289 181.531 59.4102 181.531 58.5195V46.1914ZM209.082 44.9375V62H205.566L198.711 50.5625V62H195.195V44.9375H198.711L205.578 56.3867V44.9375H209.082ZM218.773 59.1406V53.4922C218.773 53.0859 218.707 52.7383 218.574 52.4492C218.441 52.1523 218.234 51.9219 217.953 51.7578C217.68 51.5938 217.324 51.5117 216.887 51.5117C216.512 51.5117 216.188 51.5781 215.914 51.7109C215.641 51.8359 215.43 52.0195 215.281 52.2617C215.133 52.4961 215.059 52.7734 215.059 53.0938H211.684C211.684 52.5547 211.809 52.043 212.059 51.5586C212.309 51.0742 212.672 50.6484 213.148 50.2812C213.625 49.9062 214.191 49.6133 214.848 49.4023C215.512 49.1914 216.254 49.0859 217.074 49.0859C218.059 49.0859 218.934 49.25 219.699 49.5781C220.465 49.9062 221.066 50.3984 221.504 51.0547C221.949 51.7109 222.172 52.5312 222.172 53.5156V58.9414C222.172 59.6367 222.215 60.207 222.301 60.6523C222.387 61.0898 222.512 61.4727 222.676 61.8008V62H219.266C219.102 61.6562 218.977 61.2266 218.891 60.7109C218.812 60.1875 218.773 59.6641 218.773 59.1406ZM219.219 54.2773L219.242 56.1875H217.355C216.91 56.1875 216.523 56.2383 216.195 56.3398C215.867 56.4414 215.598 56.5859 215.387 56.7734C215.176 56.9531 215.02 57.1641 214.918 57.4062C214.824 57.6484 214.777 57.9141 214.777 58.2031C214.777 58.4922 214.844 58.7539 214.977 58.9883C215.109 59.2148 215.301 59.3945 215.551 59.5273C215.801 59.6523 216.094 59.7148 216.43 59.7148C216.938 59.7148 217.379 59.6133 217.754 59.4102C218.129 59.207 218.418 58.957 218.621 58.6602C218.832 58.3633 218.941 58.082 218.949 57.8164L219.84 59.2461C219.715 59.5664 219.543 59.8984 219.324 60.2422C219.113 60.5859 218.844 60.9102 218.516 61.2148C218.188 61.5117 217.793 61.7578 217.332 61.9531C216.871 62.1406 216.324 62.2344 215.691 62.2344C214.887 62.2344 214.156 62.0742 213.5 61.7539C212.852 61.4258 212.336 60.9766 211.953 60.4062C211.578 59.8281 211.391 59.1719 211.391 58.4375C211.391 57.7734 211.516 57.1836 211.766 56.668C212.016 56.1523 212.383 55.7188 212.867 55.3672C213.359 55.0078 213.973 54.7383 214.707 54.5586C215.441 54.3711 216.293 54.2773 217.262 54.2773H219.219ZM228.148 51.9453V62H224.762V49.3203H227.938L228.148 51.9453ZM227.68 55.2148H226.742C226.742 54.332 226.848 53.5195 227.059 52.7773C227.277 52.0273 227.594 51.3789 228.008 50.832C228.43 50.2773 228.949 49.8477 229.566 49.543C230.184 49.2383 230.898 49.0859 231.711 49.0859C232.273 49.0859 232.789 49.1719 233.258 49.3438C233.727 49.5078 234.129 49.7695 234.465 50.1289C234.809 50.4805 235.074 50.9414 235.262 51.5117C235.449 52.0742 235.543 52.75 235.543 53.5391V62H232.168V53.9141C232.168 53.3359 232.09 52.8906 231.934 52.5781C231.777 52.2656 231.555 52.0469 231.266 51.9219C230.984 51.7969 230.645 51.7344 230.246 51.7344C229.809 51.7344 229.426 51.8242 229.098 52.0039C228.777 52.1836 228.512 52.4336 228.301 52.7539C228.09 53.0664 227.934 53.4336 227.832 53.8555C227.73 54.2773 227.68 54.7305 227.68 55.2148ZM235.227 54.8281L234.02 54.9805C234.02 54.1523 234.121 53.3828 234.324 52.6719C234.535 51.9609 234.844 51.3359 235.25 50.7969C235.664 50.2578 236.176 49.8398 236.785 49.543C237.395 49.2383 238.098 49.0859 238.895 49.0859C239.504 49.0859 240.059 49.1758 240.559 49.3555C241.059 49.5273 241.484 49.8047 241.836 50.1875C242.195 50.5625 242.469 51.0547 242.656 51.6641C242.852 52.2734 242.949 53.0195 242.949 53.9023V62H239.562V53.9023C239.562 53.3164 239.484 52.8711 239.328 52.5664C239.18 52.2539 238.961 52.0391 238.672 51.9219C238.391 51.7969 238.055 51.7344 237.664 51.7344C237.258 51.7344 236.902 51.8164 236.598 51.9805C236.293 52.1367 236.039 52.3555 235.836 52.6367C235.633 52.918 235.48 53.2461 235.379 53.6211C235.277 53.9883 235.227 54.3906 235.227 54.8281ZM251.398 62.2344C250.414 62.2344 249.531 62.0781 248.75 61.7656C247.969 61.4453 247.305 61.0039 246.758 60.4414C246.219 59.8789 245.805 59.2266 245.516 58.4844C245.227 57.7344 245.082 56.9375 245.082 56.0938V55.625C245.082 54.6641 245.219 53.7852 245.492 52.9883C245.766 52.1914 246.156 51.5 246.664 50.9141C247.18 50.3281 247.805 49.8789 248.539 49.5664C249.273 49.2461 250.102 49.0859 251.023 49.0859C251.922 49.0859 252.719 49.2344 253.414 49.5312C254.109 49.8281 254.691 50.25 255.16 50.7969C255.637 51.3438 255.996 52 256.238 52.7656C256.48 53.5234 256.602 54.3672 256.602 55.2969V56.7031H246.523V54.4531H253.285V54.1953C253.285 53.7266 253.199 53.3086 253.027 52.9414C252.863 52.5664 252.613 52.2695 252.277 52.0508C251.941 51.832 251.512 51.7227 250.988 51.7227C250.543 51.7227 250.16 51.8203 249.84 52.0156C249.52 52.2109 249.258 52.4844 249.055 52.8359C248.859 53.1875 248.711 53.6016 248.609 54.0781C248.516 54.5469 248.469 55.0625 248.469 55.625V56.0938C248.469 56.6016 248.539 57.0703 248.68 57.5C248.828 57.9297 249.035 58.3008 249.301 58.6133C249.574 58.9258 249.902 59.168 250.285 59.3398C250.676 59.5117 251.117 59.5977 251.609 59.5977C252.219 59.5977 252.785 59.4805 253.309 59.2461C253.84 59.0039 254.297 58.6406 254.68 58.1562L256.32 59.9375C256.055 60.3203 255.691 60.6875 255.23 61.0391C254.777 61.3906 254.23 61.6797 253.59 61.9062C252.949 62.125 252.219 62.2344 251.398 62.2344Z" fill="#888888"/>
<path d="M107.205 104.146H99.251V98.1909H107.205C108.289 98.1909 109.168 98.0078 109.842 97.6416C110.516 97.2754 111.006 96.77 111.314 96.1255C111.636 95.4663 111.797 94.7266 111.797 93.9062C111.797 93.0273 111.636 92.2144 111.314 91.4673C111.006 90.7202 110.516 90.1196 109.842 89.6655C109.168 89.1968 108.289 88.9624 107.205 88.9624H102.151V115H94.439V83.0078H107.205C109.769 83.0078 111.973 83.4766 113.819 84.4141C115.679 85.3516 117.107 86.6406 118.104 88.2812C119.1 89.9072 119.598 91.7676 119.598 93.8623C119.598 95.9277 119.1 97.7295 118.104 99.2676C117.107 100.806 115.679 102.007 113.819 102.871C111.973 103.721 109.769 104.146 107.205 104.146ZM130.87 97.1143V115H123.465V91.2256H130.386L130.87 97.1143ZM137.901 91.0498L137.769 97.9272C137.476 97.8979 137.081 97.8613 136.583 97.8174C136.084 97.7734 135.667 97.7515 135.33 97.7515C134.466 97.7515 133.719 97.854 133.089 98.0591C132.474 98.2495 131.961 98.5425 131.551 98.938C131.155 99.3188 130.862 99.8022 130.672 100.388C130.496 100.974 130.416 101.655 130.43 102.432L129.09 101.553C129.09 99.9561 129.244 98.5059 129.551 97.2021C129.874 95.8838 130.328 94.7485 130.914 93.7964C131.5 92.8296 132.21 92.0898 133.045 91.5771C133.88 91.0498 134.817 90.7861 135.857 90.7861C136.224 90.7861 136.583 90.8081 136.934 90.8521C137.3 90.896 137.623 90.9619 137.901 91.0498ZM138.736 103.354V102.893C138.736 101.15 138.985 99.5459 139.483 98.0811C139.981 96.6016 140.713 95.3198 141.68 94.2358C142.647 93.1519 143.841 92.3096 145.262 91.709C146.683 91.0938 148.323 90.7861 150.184 90.7861C152.059 90.7861 153.707 91.0938 155.127 91.709C156.563 92.3096 157.764 93.1519 158.731 94.2358C159.698 95.3198 160.43 96.6016 160.928 98.0811C161.426 99.5459 161.675 101.15 161.675 102.893V103.354C161.675 105.083 161.426 106.687 160.928 108.167C160.43 109.631 159.698 110.913 158.731 112.012C157.764 113.096 156.57 113.938 155.149 114.539C153.729 115.139 152.088 115.439 150.228 115.439C148.367 115.439 146.719 115.139 145.284 114.539C143.848 113.938 142.647 113.096 141.68 112.012C140.713 110.913 139.981 109.631 139.483 108.167C138.985 106.687 138.736 105.083 138.736 103.354ZM146.141 102.893V103.354C146.141 104.248 146.207 105.083 146.338 105.859C146.47 106.636 146.69 107.317 146.998 107.903C147.305 108.474 147.723 108.921 148.25 109.243C148.777 109.565 149.437 109.727 150.228 109.727C151.004 109.727 151.648 109.565 152.161 109.243C152.688 108.921 153.106 108.474 153.414 107.903C153.721 107.317 153.941 106.636 154.073 105.859C154.205 105.083 154.271 104.248 154.271 103.354V102.893C154.271 102.029 154.205 101.216 154.073 100.454C153.941 99.6777 153.721 98.9966 153.414 98.4106C153.106 97.8101 152.688 97.3413 152.161 97.0044C151.634 96.6675 150.975 96.499 150.184 96.499C149.407 96.499 148.755 96.6675 148.228 97.0044C147.715 97.3413 147.305 97.8101 146.998 98.4106C146.69 98.9966 146.47 99.6777 146.338 100.454C146.207 101.216 146.141 102.029 146.141 102.893ZM165.521 91.2256H172.947V115.769C172.947 117.673 172.581 119.277 171.849 120.581C171.116 121.899 170.069 122.896 168.707 123.569C167.344 124.258 165.718 124.602 163.829 124.602C163.199 124.602 162.62 124.573 162.093 124.514C161.551 124.47 160.958 124.375 160.313 124.229V118.625C160.694 118.684 161.045 118.728 161.368 118.757C161.69 118.801 162.042 118.823 162.422 118.823C163.096 118.823 163.66 118.713 164.114 118.494C164.568 118.274 164.913 117.937 165.147 117.483C165.396 117.029 165.521 116.458 165.521 115.769V91.2256ZM164.971 85.0952C164.971 84.0405 165.352 83.1763 166.114 82.5024C166.875 81.8286 167.864 81.4917 169.08 81.4917C170.296 81.4917 171.285 81.8286 172.046 82.5024C172.808 83.1763 173.189 84.0405 173.189 85.0952C173.189 86.1499 172.808 87.0142 172.046 87.688C171.285 88.3618 170.296 88.6987 169.08 88.6987C167.864 88.6987 166.875 88.3618 166.114 87.688C165.352 87.0142 164.971 86.1499 164.971 85.0952ZM188.658 115.439C186.724 115.439 184.996 115.139 183.472 114.539C181.949 113.923 180.66 113.081 179.605 112.012C178.565 110.942 177.767 109.712 177.21 108.32C176.668 106.929 176.397 105.457 176.397 103.904V103.069C176.397 101.326 176.639 99.7144 177.122 98.2349C177.605 96.7407 178.323 95.437 179.275 94.3237C180.228 93.2104 181.421 92.3462 182.857 91.731C184.292 91.1011 185.962 90.7861 187.867 90.7861C189.551 90.7861 191.06 91.0571 192.393 91.5991C193.726 92.1411 194.854 92.9175 195.777 93.9282C196.714 94.939 197.425 96.1621 197.908 97.5977C198.406 99.0332 198.655 100.645 198.655 102.432V105.442H179.231V100.806H191.426V100.234C191.441 99.4434 191.302 98.7695 191.009 98.2129C190.73 97.6562 190.32 97.2314 189.778 96.9385C189.236 96.6455 188.577 96.499 187.801 96.499C186.995 96.499 186.329 96.6748 185.801 97.0264C185.289 97.3779 184.886 97.8613 184.593 98.4766C184.314 99.0771 184.117 99.7729 184 100.564C183.882 101.355 183.824 102.19 183.824 103.069V103.904C183.824 104.783 183.941 105.581 184.175 106.299C184.424 107.017 184.776 107.632 185.23 108.145C185.699 108.643 186.255 109.031 186.9 109.309C187.559 109.587 188.306 109.727 189.141 109.727C190.152 109.727 191.148 109.536 192.129 109.155C193.111 108.774 193.953 108.145 194.656 107.266L198.018 111.265C197.535 111.953 196.846 112.62 195.953 113.264C195.074 113.909 194.019 114.436 192.789 114.846C191.558 115.242 190.181 115.439 188.658 115.439ZM211.707 109.727C212.396 109.727 212.981 109.602 213.465 109.353C213.963 109.089 214.336 108.723 214.585 108.254C214.849 107.771 214.974 107.192 214.959 106.519H221.924C221.939 108.306 221.5 109.873 220.606 111.221C219.727 112.554 218.526 113.594 217.002 114.341C215.494 115.073 213.787 115.439 211.883 115.439C210.022 115.439 208.396 115.139 207.005 114.539C205.613 113.923 204.449 113.074 203.511 111.99C202.588 110.891 201.893 109.609 201.424 108.145C200.97 106.68 200.743 105.09 200.743 103.376V102.871C200.743 101.157 200.97 99.5679 201.424 98.103C201.893 96.6235 202.588 95.3418 203.511 94.2578C204.449 93.1592 205.606 92.3096 206.983 91.709C208.375 91.0938 209.993 90.7861 211.839 90.7861C213.816 90.7861 215.56 91.1597 217.068 91.9067C218.592 92.6538 219.786 93.7378 220.65 95.1587C221.514 96.5796 221.939 98.3008 221.924 100.322H214.959C214.974 99.6045 214.864 98.96 214.629 98.3887C214.395 97.8174 214.029 97.3633 213.531 97.0264C213.047 96.6748 212.425 96.499 211.663 96.499C210.901 96.499 210.286 96.6675 209.817 97.0044C209.349 97.3413 208.99 97.8101 208.741 98.4106C208.506 98.9966 208.345 99.6704 208.257 100.432C208.184 101.194 208.147 102.007 208.147 102.871V103.376C208.147 104.255 208.184 105.083 208.257 105.859C208.345 106.621 208.514 107.295 208.763 107.881C209.012 108.452 209.371 108.906 209.839 109.243C210.308 109.565 210.931 109.727 211.707 109.727ZM237.613 91.2256V96.3672H223.287V91.2256H237.613ZM226.297 85.3149H233.702V107.244C233.702 107.874 233.775 108.364 233.921 108.716C234.068 109.053 234.317 109.294 234.668 109.441C235.035 109.573 235.518 109.639 236.119 109.639C236.543 109.639 236.895 109.631 237.173 109.617C237.452 109.587 237.715 109.551 237.964 109.507V114.802C237.334 115.007 236.675 115.161 235.987 115.264C235.298 115.381 234.566 115.439 233.79 115.439C232.208 115.439 230.853 115.19 229.725 114.692C228.611 114.194 227.762 113.411 227.176 112.341C226.59 111.272 226.297 109.88 226.297 108.167V85.3149ZM264.881 104.146H256.927V98.1909H264.881C265.965 98.1909 266.844 98.0078 267.518 97.6416C268.191 97.2754 268.682 96.77 268.99 96.1255C269.312 95.4663 269.473 94.7266 269.473 93.9062C269.473 93.0273 269.312 92.2144 268.99 91.4673C268.682 90.7202 268.191 90.1196 267.518 89.6655C266.844 89.1968 265.965 88.9624 264.881 88.9624H259.827V115H252.115V83.0078H264.881C267.444 83.0078 269.649 83.4766 271.495 84.4141C273.355 85.3516 274.783 86.6406 275.779 88.2812C276.775 89.9072 277.273 91.7676 277.273 93.8623C277.273 95.9277 276.775 97.7295 275.779 99.2676C274.783 100.806 273.355 102.007 271.495 102.871C269.649 103.721 267.444 104.146 264.881 104.146ZM288.326 81.25V115H280.921V81.25H288.326ZM287.447 102.3L285.711 102.344C285.711 100.674 285.916 99.1357 286.326 97.7295C286.736 96.3232 287.322 95.1001 288.084 94.0601C288.846 93.02 289.761 92.2144 290.831 91.6431C291.9 91.0718 293.086 90.7861 294.39 90.7861C295.562 90.7861 296.631 90.9546 297.598 91.2915C298.58 91.6284 299.422 92.1704 300.125 92.9175C300.843 93.6646 301.392 94.6387 301.773 95.8398C302.168 97.041 302.366 98.5059 302.366 100.234V115H294.917V100.19C294.917 99.2236 294.778 98.4766 294.5 97.9492C294.236 97.4072 293.855 97.0337 293.357 96.8286C292.859 96.6089 292.251 96.499 291.534 96.499C290.669 96.499 289.966 96.6455 289.424 96.9385C288.882 97.2314 288.465 97.6416 288.172 98.1689C287.894 98.6816 287.703 99.2896 287.601 99.9927C287.498 100.696 287.447 101.465 287.447 102.3ZM314.297 91.2256V115H306.871V91.2256H314.297ZM306.431 85.0952C306.431 84.0405 306.812 83.1763 307.574 82.5024C308.335 81.8286 309.324 81.4917 310.54 81.4917C311.756 81.4917 312.745 81.8286 313.506 82.5024C314.268 83.1763 314.649 84.0405 314.649 85.0952C314.649 86.1499 314.268 87.0142 313.506 87.688C312.745 88.3618 311.756 88.6987 310.54 88.6987C309.324 88.6987 308.335 88.3618 307.574 87.688C306.812 87.0142 306.431 86.1499 306.431 85.0952ZM326.69 81.25V115H319.263V81.25H326.69ZM330.337 103.354V102.893C330.337 101.15 330.586 99.5459 331.084 98.0811C331.583 96.6016 332.315 95.3198 333.282 94.2358C334.249 93.1519 335.442 92.3096 336.863 91.709C338.284 91.0938 339.925 90.7861 341.785 90.7861C343.66 90.7861 345.308 91.0938 346.729 91.709C348.165 92.3096 349.366 93.1519 350.333 94.2358C351.299 95.3198 352.032 96.6016 352.53 98.0811C353.028 99.5459 353.277 101.15 353.277 102.893V103.354C353.277 105.083 353.028 106.687 352.53 108.167C352.032 109.631 351.299 110.913 350.333 112.012C349.366 113.096 348.172 113.938 346.751 114.539C345.33 115.139 343.689 115.439 341.829 115.439C339.969 115.439 338.321 115.139 336.885 114.539C335.45 113.938 334.249 113.096 333.282 112.012C332.315 110.913 331.583 109.631 331.084 108.167C330.586 106.687 330.337 105.083 330.337 103.354ZM337.742 102.893V103.354C337.742 104.248 337.808 105.083 337.94 105.859C338.072 106.636 338.292 107.317 338.599 107.903C338.907 108.474 339.324 108.921 339.852 109.243C340.379 109.565 341.038 109.727 341.829 109.727C342.605 109.727 343.25 109.565 343.763 109.243C344.29 108.921 344.708 108.474 345.015 107.903C345.323 107.317 345.542 106.636 345.674 105.859C345.806 105.083 345.872 104.248 345.872 103.354V102.893C345.872 102.029 345.806 101.216 345.674 100.454C345.542 99.6777 345.323 98.9966 345.015 98.4106C344.708 97.8101 344.29 97.3413 343.763 97.0044C343.235 96.6675 342.576 96.499 341.785 96.499C341.009 96.499 340.357 96.6675 339.83 97.0044C339.317 97.3413 338.907 97.8101 338.599 98.4106C338.292 98.9966 338.072 99.6777 337.94 100.454C337.808 101.216 337.742 102.029 337.742 102.893ZM369.031 108.32C369.031 107.91 368.892 107.559 368.614 107.266C368.35 106.958 367.881 106.68 367.208 106.431C366.534 106.167 365.589 105.903 364.373 105.64C363.216 105.391 362.125 105.061 361.099 104.651C360.088 104.241 359.202 103.743 358.44 103.157C357.679 102.571 357.078 101.875 356.639 101.069C356.214 100.264 356.001 99.3408 356.001 98.3008C356.001 97.29 356.214 96.3379 356.639 95.4443C357.078 94.5361 357.715 93.7378 358.55 93.0493C359.4 92.3462 360.433 91.7969 361.648 91.4014C362.864 90.9912 364.249 90.7861 365.801 90.7861C367.94 90.7861 369.786 91.1157 371.338 91.7749C372.891 92.4194 374.085 93.3276 374.92 94.4995C375.77 95.6567 376.194 96.9971 376.194 98.5205H368.79C368.79 97.9199 368.687 97.4072 368.482 96.9824C368.292 96.5576 367.977 96.2354 367.537 96.0156C367.098 95.7812 366.512 95.6641 365.779 95.6641C365.267 95.6641 364.798 95.7593 364.373 95.9497C363.963 96.1401 363.633 96.4038 363.384 96.7407C363.135 97.0776 363.011 97.4731 363.011 97.9272C363.011 98.2495 363.084 98.5425 363.23 98.8062C363.392 99.0552 363.633 99.2896 363.956 99.5093C364.278 99.7144 364.688 99.9048 365.186 100.081C365.684 100.242 366.285 100.388 366.988 100.52C368.584 100.813 370.079 101.23 371.47 101.772C372.862 102.314 373.99 103.083 374.854 104.08C375.733 105.076 376.172 106.416 376.172 108.101C376.172 109.155 375.931 110.129 375.447 111.023C374.964 111.902 374.268 112.678 373.36 113.352C372.452 114.011 371.36 114.524 370.086 114.89C368.812 115.256 367.376 115.439 365.779 115.439C363.509 115.439 361.59 115.037 360.022 114.231C358.455 113.411 357.269 112.385 356.463 111.155C355.672 109.91 355.276 108.65 355.276 107.375H362.176C362.205 108.108 362.381 108.708 362.703 109.177C363.04 109.646 363.487 109.99 364.043 110.21C364.6 110.43 365.245 110.54 365.977 110.54C366.651 110.54 367.208 110.444 367.647 110.254C368.101 110.063 368.445 109.807 368.68 109.485C368.914 109.148 369.031 108.76 369.031 108.32ZM378.721 103.354V102.893C378.721 101.15 378.97 99.5459 379.468 98.0811C379.966 96.6016 380.699 95.3198 381.666 94.2358C382.632 93.1519 383.826 92.3096 385.247 91.709C386.668 91.0938 388.309 90.7861 390.169 90.7861C392.044 90.7861 393.692 91.0938 395.113 91.709C396.548 92.3096 397.75 93.1519 398.716 94.2358C399.683 95.3198 400.416 96.6016 400.914 98.0811C401.412 99.5459 401.661 101.15 401.661 102.893V103.354C401.661 105.083 401.412 106.687 400.914 108.167C400.416 109.631 399.683 110.913 398.716 112.012C397.75 113.096 396.556 113.938 395.135 114.539C393.714 115.139 392.073 115.439 390.213 115.439C388.353 115.439 386.705 115.139 385.269 114.539C383.833 113.938 382.632 113.096 381.666 112.012C380.699 110.913 379.966 109.631 379.468 108.167C378.97 106.687 378.721 105.083 378.721 103.354ZM386.126 102.893V103.354C386.126 104.248 386.192 105.083 386.324 105.859C386.456 106.636 386.675 107.317 386.983 107.903C387.291 108.474 387.708 108.921 388.235 109.243C388.763 109.565 389.422 109.727 390.213 109.727C390.989 109.727 391.634 109.565 392.146 109.243C392.674 108.921 393.091 108.474 393.399 107.903C393.707 107.317 393.926 106.636 394.058 105.859C394.19 105.083 394.256 104.248 394.256 103.354V102.893C394.256 102.029 394.19 101.216 394.058 100.454C393.926 99.6777 393.707 98.9966 393.399 98.4106C393.091 97.8101 392.674 97.3413 392.146 97.0044C391.619 96.6675 390.96 96.499 390.169 96.499C389.393 96.499 388.741 96.6675 388.213 97.0044C387.701 97.3413 387.291 97.8101 386.983 98.4106C386.675 98.9966 386.456 99.6777 386.324 100.454C386.192 101.216 386.126 102.029 386.126 102.893ZM412.427 95.7959V124.141H405.022V91.2256H411.922L412.427 95.7959ZM427.017 102.827V103.289C427.017 105.017 426.819 106.621 426.424 108.101C426.028 109.58 425.442 110.869 424.666 111.968C423.89 113.066 422.923 113.923 421.766 114.539C420.623 115.139 419.297 115.439 417.789 115.439C416.368 115.439 415.145 115.125 414.119 114.495C413.094 113.865 412.237 112.993 411.548 111.88C410.86 110.767 410.303 109.492 409.878 108.057C409.454 106.621 409.117 105.105 408.868 103.508V102.915C409.117 101.201 409.454 99.6118 409.878 98.147C410.303 96.6675 410.86 95.3784 411.548 94.2798C412.237 93.1812 413.086 92.3242 414.097 91.709C415.123 91.0938 416.346 90.7861 417.767 90.7861C419.275 90.7861 420.601 91.0718 421.744 91.6431C422.901 92.2144 423.868 93.0347 424.644 94.104C425.435 95.1587 426.028 96.4258 426.424 97.9053C426.819 99.3848 427.017 101.025 427.017 102.827ZM419.612 103.289V102.827C419.612 101.904 419.546 101.062 419.415 100.3C419.283 99.5239 419.07 98.8501 418.777 98.2788C418.499 97.7075 418.125 97.2681 417.657 96.9604C417.188 96.6528 416.609 96.499 415.921 96.499C415.13 96.499 414.463 96.6235 413.921 96.8726C413.394 97.1069 412.969 97.4731 412.647 97.9712C412.339 98.4546 412.12 99.0625 411.988 99.7949C411.871 100.513 411.819 101.355 411.834 102.322V104.124C411.805 105.237 411.915 106.218 412.164 107.068C412.413 107.903 412.845 108.555 413.46 109.023C414.075 109.492 414.91 109.727 415.965 109.727C416.668 109.727 417.254 109.565 417.723 109.243C418.191 108.906 418.565 108.445 418.843 107.859C419.122 107.258 419.319 106.57 419.437 105.793C419.554 105.017 419.612 104.182 419.612 103.289ZM437.564 81.25V115H430.159V81.25H437.564ZM436.685 102.3L434.949 102.344C434.949 100.674 435.154 99.1357 435.564 97.7295C435.975 96.3232 436.561 95.1001 437.322 94.0601C438.084 93.02 439 92.2144 440.069 91.6431C441.138 91.0718 442.325 90.7861 443.628 90.7861C444.8 90.7861 445.87 90.9546 446.836 91.2915C447.818 91.6284 448.66 92.1704 449.363 92.9175C450.081 93.6646 450.63 94.6387 451.011 95.8398C451.407 97.041 451.604 98.5059 451.604 100.234V115H444.156V100.19C444.156 99.2236 444.017 98.4766 443.738 97.9492C443.475 97.4072 443.094 97.0337 442.596 96.8286C442.098 96.6089 441.49 96.499 440.772 96.499C439.908 96.499 439.205 96.6455 438.663 96.9385C438.121 97.2314 437.703 97.6416 437.41 98.1689C437.132 98.6816 436.941 99.2896 436.839 99.9927C436.736 100.696 436.685 101.465 436.685 102.3ZM463.008 112.209L469.161 91.2256H477.115L467.557 118.538C467.352 119.138 467.081 119.783 466.744 120.471C466.407 121.174 465.945 121.841 465.359 122.471C464.773 123.101 464.019 123.613 463.096 124.009C462.188 124.404 461.06 124.602 459.712 124.602C458.995 124.602 458.467 124.565 458.13 124.492C457.808 124.434 457.31 124.324 456.636 124.163V118.867C456.827 118.867 456.988 118.867 457.12 118.867C457.266 118.867 457.427 118.867 457.603 118.867C458.394 118.867 459.024 118.787 459.493 118.625C459.976 118.464 460.342 118.23 460.591 117.922C460.855 117.615 461.06 117.241 461.207 116.802L463.008 112.209ZM461.448 91.2256L466.128 107.859L466.941 115.703H461.976L453.516 91.2256H461.448Z" fill="#424241"/>
<path d="M1363 15C1363 6.71573 1356.28 0 1348 0H1134V167H1348C1356.28 167 1363 160.284 1363 152V15Z" fill="#00DD02"/>
<path d="M1234.26 106.286H1262.74V111.857H1234.26V106.286ZM1239.96 117.429H1257.04V123H1239.96V117.429ZM1248.5 45C1240.95 45 1233.71 47.9349 1228.37 53.1592C1223.03 58.3834 1220.03 65.469 1220.03 72.8571C1219.84 76.9057 1220.63 80.9412 1222.34 84.6315C1224.05 88.3219 1226.64 91.5616 1229.88 94.0843C1232.73 96.675 1234.26 98.1514 1234.26 100.714H1239.96C1239.96 95.5886 1236.8 92.7193 1233.72 89.9614C1231.06 87.9676 1228.94 85.3658 1227.55 82.3838C1226.15 79.4019 1225.53 76.1308 1225.72 72.8571C1225.72 66.9466 1228.12 61.2781 1232.39 57.0988C1236.67 52.9194 1242.46 50.5714 1248.5 50.5714C1254.54 50.5714 1260.33 52.9194 1264.61 57.0988C1268.88 61.2781 1271.28 66.9466 1271.28 72.8571C1271.47 76.1333 1270.84 79.4059 1269.44 82.388C1268.04 85.3701 1265.92 87.9706 1263.25 89.9614C1260.2 92.7471 1257.04 95.5329 1257.04 100.714H1262.74C1262.74 98.1514 1264.25 96.675 1267.12 94.0564C1270.36 91.5381 1272.94 88.3031 1274.66 84.6176C1276.37 80.9321 1277.16 76.9014 1276.97 72.8571C1276.97 69.1989 1276.24 65.5765 1274.81 62.1967C1273.37 58.8169 1271.28 55.7459 1268.63 53.1592C1265.99 50.5724 1262.85 48.5205 1259.4 47.1205C1255.94 45.7205 1252.24 45 1248.5 45V45Z" fill="white"/>
</svg>
