<svg width="1363" height="301" viewBox="0 0 1363 301" fill="none" xmlns="http://www.w3.org/2000/svg">
<g style="mix-blend-mode:exclusion">
<rect width="1363" height="301" rx="15" fill="white" fill-opacity="0.05"/>
</g>
<path d="M0 15C0 6.71573 6.71573 0 15 0H37V301H15C6.71573 301 0 294.284 0 286V15Z" fill="#00DD02"/>
<g style="mix-blend-mode:exclusion">
<path d="M110.584 130.733H100.862V123.456H110.584C111.909 123.456 112.983 123.232 113.807 122.784C114.63 122.337 115.23 121.719 115.606 120.931C116 120.125 116.197 119.221 116.197 118.219C116.197 117.145 116 116.151 115.606 115.238C115.23 114.325 114.63 113.591 113.807 113.036C112.983 112.463 111.909 112.176 110.584 112.176H104.407V144H94.981V104.898H110.584C113.717 104.898 116.412 105.471 118.667 106.617C120.941 107.763 122.687 109.339 123.904 111.344C125.122 113.331 125.73 115.605 125.73 118.165C125.73 120.689 125.122 122.892 123.904 124.771C122.687 126.651 120.941 128.119 118.667 129.176C116.412 130.214 113.717 130.733 110.584 130.733ZM139.507 122.14V144H130.457V114.942H138.917L139.507 122.14ZM148.101 114.728L147.94 123.133C147.582 123.097 147.098 123.053 146.49 122.999C145.881 122.945 145.371 122.918 144.959 122.918C143.903 122.918 142.99 123.044 142.22 123.294C141.468 123.527 140.841 123.885 140.34 124.369C139.856 124.834 139.498 125.425 139.266 126.141C139.051 126.857 138.952 127.69 138.97 128.639L137.332 127.564C137.332 125.613 137.52 123.84 137.896 122.247C138.29 120.636 138.845 119.248 139.561 118.084C140.277 116.903 141.146 115.999 142.166 115.372C143.187 114.728 144.332 114.405 145.604 114.405C146.051 114.405 146.49 114.432 146.919 114.486C147.367 114.54 147.761 114.62 148.101 114.728ZM149.122 129.767V129.203C149.122 127.072 149.426 125.112 150.035 123.321C150.643 121.513 151.539 119.946 152.72 118.622C153.902 117.297 155.361 116.267 157.098 115.533C158.834 114.781 160.84 114.405 163.113 114.405C165.405 114.405 167.419 114.781 169.156 115.533C170.91 116.267 172.378 117.297 173.56 118.622C174.742 119.946 175.637 121.513 176.246 123.321C176.854 125.112 177.159 127.072 177.159 129.203V129.767C177.159 131.879 176.854 133.84 176.246 135.648C175.637 137.438 174.742 139.005 173.56 140.348C172.378 141.673 170.919 142.702 169.183 143.436C167.446 144.17 165.441 144.537 163.167 144.537C160.893 144.537 158.879 144.17 157.125 143.436C155.37 142.702 153.902 141.673 152.72 140.348C151.539 139.005 150.643 137.438 150.035 135.648C149.426 133.84 149.122 131.879 149.122 129.767ZM158.172 129.203V129.767C158.172 130.859 158.252 131.879 158.414 132.828C158.575 133.777 158.843 134.61 159.219 135.326C159.595 136.024 160.105 136.57 160.75 136.964C161.395 137.358 162.2 137.555 163.167 137.555C164.116 137.555 164.904 137.358 165.53 136.964C166.175 136.57 166.685 136.024 167.061 135.326C167.437 134.61 167.706 133.777 167.867 132.828C168.028 131.879 168.108 130.859 168.108 129.767V129.203C168.108 128.146 168.028 127.153 167.867 126.222C167.706 125.273 167.437 124.44 167.061 123.724C166.685 122.99 166.175 122.417 165.53 122.005C164.886 121.594 164.08 121.388 163.113 121.388C162.164 121.388 161.368 121.594 160.723 122.005C160.097 122.417 159.595 122.99 159.219 123.724C158.843 124.44 158.575 125.273 158.414 126.222C158.252 127.153 158.172 128.146 158.172 129.203ZM181.858 114.942H190.936V144.94C190.936 147.267 190.488 149.228 189.593 150.821C188.698 152.433 187.417 153.65 185.752 154.474C184.087 155.315 182.1 155.736 179.791 155.736C179.021 155.736 178.313 155.7 177.669 155.628C177.007 155.575 176.281 155.458 175.494 155.279V148.431C175.959 148.503 176.389 148.556 176.783 148.592C177.177 148.646 177.606 148.673 178.072 148.673C178.895 148.673 179.585 148.539 180.14 148.27C180.695 148.001 181.115 147.59 181.402 147.035C181.706 146.48 181.858 145.781 181.858 144.94V114.942ZM181.187 107.45C181.187 106.161 181.653 105.104 182.583 104.281C183.514 103.457 184.723 103.045 186.209 103.045C187.695 103.045 188.903 103.457 189.834 104.281C190.765 105.104 191.231 106.161 191.231 107.45C191.231 108.739 190.765 109.795 189.834 110.619C188.903 111.442 187.695 111.854 186.209 111.854C184.723 111.854 183.514 111.442 182.583 110.619C181.653 109.795 181.187 108.739 181.187 107.45ZM210.137 144.537C207.774 144.537 205.661 144.17 203.799 143.436C201.937 142.684 200.362 141.655 199.073 140.348C197.802 139.041 196.826 137.537 196.146 135.836C195.483 134.135 195.152 132.336 195.152 130.438V129.417C195.152 127.287 195.447 125.318 196.038 123.509C196.629 121.683 197.506 120.09 198.67 118.729C199.834 117.368 201.293 116.312 203.047 115.56C204.802 114.79 206.843 114.405 209.17 114.405C211.229 114.405 213.073 114.736 214.703 115.399C216.332 116.061 217.71 117.01 218.838 118.246C219.984 119.481 220.853 120.976 221.443 122.73C222.052 124.485 222.356 126.454 222.356 128.639V132.318H198.616V126.651H213.521V125.953C213.539 124.986 213.369 124.163 213.011 123.482C212.671 122.802 212.169 122.283 211.507 121.925C210.844 121.567 210.039 121.388 209.09 121.388C208.105 121.388 207.291 121.603 206.646 122.032C206.019 122.462 205.527 123.053 205.169 123.805C204.829 124.539 204.587 125.389 204.444 126.356C204.301 127.323 204.229 128.343 204.229 129.417V130.438C204.229 131.512 204.372 132.488 204.659 133.365C204.963 134.243 205.393 134.994 205.948 135.621C206.521 136.23 207.201 136.704 207.989 137.044C208.794 137.385 209.708 137.555 210.728 137.555C211.963 137.555 213.181 137.322 214.38 136.856C215.58 136.391 216.609 135.621 217.469 134.547L221.578 139.435C220.987 140.276 220.145 141.091 219.053 141.878C217.979 142.666 216.69 143.311 215.186 143.812C213.682 144.295 211.999 144.537 210.137 144.537ZM238.309 137.555C239.15 137.555 239.866 137.403 240.457 137.098C241.066 136.776 241.522 136.328 241.827 135.755C242.149 135.165 242.301 134.457 242.283 133.634H250.796C250.814 135.818 250.277 137.734 249.185 139.381C248.111 141.01 246.643 142.281 244.781 143.194C242.937 144.09 240.851 144.537 238.523 144.537C236.25 144.537 234.262 144.17 232.562 143.436C230.861 142.684 229.437 141.646 228.292 140.321C227.164 138.978 226.313 137.411 225.74 135.621C225.185 133.831 224.908 131.888 224.908 129.793V129.176C224.908 127.081 225.185 125.139 225.74 123.348C226.313 121.54 227.164 119.973 228.292 118.648C229.437 117.306 230.852 116.267 232.535 115.533C234.236 114.781 236.214 114.405 238.47 114.405C240.887 114.405 243.017 114.862 244.861 115.775C246.723 116.688 248.182 118.013 249.239 119.75C250.295 121.486 250.814 123.59 250.796 126.061H242.283C242.301 125.183 242.167 124.396 241.88 123.697C241.594 122.999 241.146 122.444 240.538 122.032C239.947 121.603 239.186 121.388 238.255 121.388C237.324 121.388 236.572 121.594 235.999 122.005C235.426 122.417 234.987 122.99 234.683 123.724C234.397 124.44 234.2 125.264 234.092 126.195C234.003 127.126 233.958 128.119 233.958 129.176V129.793C233.958 130.868 234.003 131.879 234.092 132.828C234.2 133.759 234.406 134.583 234.71 135.299C235.014 135.997 235.453 136.552 236.026 136.964C236.599 137.358 237.36 137.555 238.309 137.555ZM269.971 114.942V121.227H252.461V114.942H269.971ZM256.141 107.718H265.191V134.52C265.191 135.29 265.28 135.89 265.459 136.319C265.639 136.731 265.943 137.027 266.373 137.206C266.82 137.367 267.411 137.447 268.145 137.447C268.664 137.447 269.094 137.438 269.434 137.42C269.774 137.385 270.097 137.34 270.401 137.286V143.758C269.631 144.009 268.825 144.197 267.984 144.322C267.142 144.465 266.247 144.537 265.298 144.537C263.365 144.537 261.709 144.233 260.33 143.624C258.969 143.015 257.931 142.057 257.215 140.75C256.499 139.444 256.141 137.743 256.141 135.648V107.718ZM320.352 104.898V144H310.953L297.122 119.669V144H287.696V104.898H297.122L310.953 129.229V104.898H320.352ZM340.977 136.695V124.718C340.977 123.894 340.861 123.187 340.628 122.596C340.395 122.005 340.028 121.549 339.527 121.227C339.026 120.886 338.354 120.716 337.513 120.716C336.832 120.716 336.25 120.833 335.767 121.065C335.284 121.298 334.917 121.647 334.666 122.113C334.415 122.578 334.29 123.169 334.29 123.885H325.24C325.24 122.542 325.535 121.298 326.126 120.152C326.735 118.989 327.594 117.977 328.704 117.118C329.832 116.258 331.175 115.596 332.732 115.13C334.308 114.647 336.062 114.405 337.996 114.405C340.306 114.405 342.365 114.79 344.173 115.56C345.999 116.33 347.44 117.485 348.497 119.024C349.553 120.546 350.081 122.462 350.081 124.771V136.668C350.081 138.566 350.188 140.007 350.403 140.992C350.618 141.959 350.923 142.809 351.316 143.543V144H342.239C341.81 143.105 341.487 142.013 341.272 140.724C341.076 139.417 340.977 138.074 340.977 136.695ZM342.078 126.249L342.132 131.083H338.13C337.289 131.083 336.573 131.199 335.982 131.432C335.409 131.664 334.944 131.987 334.585 132.398C334.245 132.792 333.995 133.24 333.833 133.741C333.69 134.243 333.619 134.771 333.619 135.326C333.619 135.863 333.744 136.346 333.995 136.776C334.263 137.188 334.621 137.51 335.069 137.743C335.516 137.975 336.018 138.092 336.573 138.092C337.575 138.092 338.426 137.904 339.124 137.528C339.84 137.134 340.386 136.66 340.762 136.104C341.138 135.549 341.326 135.03 341.326 134.547L343.313 138.253C342.955 138.969 342.544 139.694 342.078 140.428C341.631 141.162 341.067 141.843 340.386 142.469C339.724 143.078 338.909 143.579 337.942 143.973C336.976 144.349 335.803 144.537 334.424 144.537C332.634 144.537 330.987 144.17 329.483 143.436C327.997 142.702 326.806 141.681 325.911 140.375C325.016 139.05 324.568 137.528 324.568 135.809C324.568 134.305 324.837 132.962 325.374 131.781C325.929 130.599 326.762 129.597 327.872 128.773C328.982 127.949 330.396 127.323 332.115 126.893C333.833 126.463 335.857 126.249 338.184 126.249H342.078ZM364.234 121.092V144H355.184V114.942H363.67L364.234 121.092ZM363.133 128.478L361.065 128.531C361.065 126.49 361.307 124.61 361.79 122.892C362.273 121.173 362.99 119.678 363.938 118.407C364.887 117.136 366.051 116.151 367.43 115.453C368.826 114.754 370.438 114.405 372.264 114.405C373.535 114.405 374.69 114.602 375.728 114.996C376.766 115.372 377.662 115.972 378.414 116.795C379.166 117.601 379.738 118.657 380.132 119.964C380.544 121.253 380.75 122.802 380.75 124.61V144H371.7V125.765C371.7 124.53 371.556 123.599 371.27 122.972C371.001 122.346 370.608 121.925 370.088 121.71C369.569 121.495 368.934 121.388 368.182 121.388C367.394 121.388 366.687 121.567 366.06 121.925C365.433 122.283 364.896 122.784 364.449 123.429C364.019 124.055 363.688 124.798 363.455 125.658C363.24 126.517 363.133 127.457 363.133 128.478ZM379.729 128.478L377.205 128.531C377.205 126.49 377.429 124.61 377.876 122.892C378.342 121.173 379.031 119.678 379.944 118.407C380.875 117.136 382.03 116.151 383.409 115.453C384.787 114.754 386.39 114.405 388.216 114.405C389.541 114.405 390.758 114.602 391.868 114.996C392.978 115.39 393.936 116.026 394.742 116.903C395.547 117.78 396.174 118.944 396.622 120.394C397.069 121.826 397.293 123.599 397.293 125.711V144H388.216V125.711C388.216 124.512 388.073 123.608 387.786 122.999C387.518 122.372 387.124 121.952 386.604 121.737C386.085 121.504 385.468 121.388 384.751 121.388C383.892 121.388 383.149 121.567 382.522 121.925C381.896 122.283 381.368 122.784 380.938 123.429C380.526 124.055 380.222 124.798 380.025 125.658C379.828 126.517 379.729 127.457 379.729 128.478ZM416.548 144.537C414.185 144.537 412.072 144.17 410.21 143.436C408.348 142.684 406.773 141.655 405.484 140.348C404.213 139.041 403.237 137.537 402.557 135.836C401.894 134.135 401.563 132.336 401.563 130.438V129.417C401.563 127.287 401.858 125.318 402.449 123.509C403.04 121.683 403.917 120.09 405.081 118.729C406.245 117.368 407.704 116.312 409.458 115.56C411.213 114.79 413.254 114.405 415.582 114.405C417.64 114.405 419.485 114.736 421.114 115.399C422.743 116.061 424.122 117.01 425.25 118.246C426.395 119.481 427.264 120.976 427.854 122.73C428.463 124.485 428.768 126.454 428.768 128.639V132.318H405.027V126.651H419.932V125.953C419.95 124.986 419.78 124.163 419.422 123.482C419.082 122.802 418.58 122.283 417.918 121.925C417.256 121.567 416.45 121.388 415.501 121.388C414.516 121.388 413.702 121.603 413.057 122.032C412.431 122.462 411.938 123.053 411.58 123.805C411.24 124.539 410.998 125.389 410.855 126.356C410.712 127.323 410.64 128.343 410.64 129.417V130.438C410.64 131.512 410.783 132.488 411.07 133.365C411.374 134.243 411.804 134.994 412.359 135.621C412.932 136.23 413.612 136.704 414.4 137.044C415.206 137.385 416.119 137.555 417.139 137.555C418.375 137.555 419.592 137.322 420.792 136.856C421.991 136.391 423.021 135.621 423.88 134.547L427.989 139.435C427.398 140.276 426.556 141.091 425.464 141.878C424.39 142.666 423.101 143.311 421.597 143.812C420.093 144.295 418.41 144.537 416.548 144.537Z" fill="white"/>
</g>
<g style="mix-blend-mode:exclusion">
<path d="M97.6396 55.1172L102.835 66.4648L108.03 55.1172H113.619L105.433 70.9424V80H100.237V70.9424L92.0342 55.1172H97.6396ZM113.67 70.9424V70.5835C113.67 69.2277 113.864 67.9801 114.251 66.8408C114.638 65.6901 115.202 64.6932 115.943 63.8501C116.683 63.007 117.595 62.3519 118.677 61.8848C119.76 61.4062 121.001 61.167 122.403 61.167C123.804 61.167 125.052 61.4062 126.146 61.8848C127.239 62.3519 128.156 63.007 128.897 63.8501C129.649 64.6932 130.219 65.6901 130.606 66.8408C130.993 67.9801 131.187 69.2277 131.187 70.5835V70.9424C131.187 72.2868 130.993 73.5343 130.606 74.6851C130.219 75.8244 129.649 76.8213 128.897 77.6758C128.156 78.5189 127.245 79.174 126.163 79.6411C125.08 80.1082 123.838 80.3418 122.437 80.3418C121.036 80.3418 119.788 80.1082 118.694 79.6411C117.612 79.174 116.695 78.5189 115.943 77.6758C115.202 76.8213 114.638 75.8244 114.251 74.6851C113.864 73.5343 113.67 72.2868 113.67 70.9424ZM118.592 70.5835V70.9424C118.592 71.7171 118.66 72.4406 118.797 73.1128C118.934 73.785 119.15 74.3774 119.446 74.8901C119.754 75.3914 120.153 75.7845 120.643 76.0693C121.132 76.3542 121.731 76.4966 122.437 76.4966C123.121 76.4966 123.707 76.3542 124.197 76.0693C124.687 75.7845 125.08 75.3914 125.376 74.8901C125.673 74.3774 125.889 73.785 126.026 73.1128C126.174 72.4406 126.248 71.7171 126.248 70.9424V70.5835C126.248 69.8315 126.174 69.1252 126.026 68.4644C125.889 67.7922 125.667 67.1997 125.359 66.687C125.063 66.1629 124.67 65.7528 124.18 65.4565C123.69 65.1603 123.098 65.0122 122.403 65.0122C121.708 65.0122 121.115 65.1603 120.625 65.4565C120.147 65.7528 119.754 66.1629 119.446 66.687C119.15 67.1997 118.934 67.7922 118.797 68.4644C118.66 69.1252 118.592 69.8315 118.592 70.5835ZM145.149 75.5737V61.5088H150.071V80H145.44L145.149 75.5737ZM145.696 71.7798L147.149 71.7456C147.149 72.9761 147.007 74.1211 146.722 75.1807C146.437 76.2288 146.01 77.1403 145.44 77.915C144.87 78.6784 144.153 79.2765 143.287 79.7095C142.421 80.131 141.401 80.3418 140.228 80.3418C139.327 80.3418 138.496 80.2165 137.732 79.9658C136.98 79.7038 136.331 79.2993 135.784 78.7524C135.249 78.1942 134.827 77.4821 134.52 76.6162C134.223 75.7389 134.075 74.6851 134.075 73.4546V61.5088H138.997V73.4888C138.997 74.0356 139.06 74.4971 139.185 74.873C139.322 75.249 139.51 75.5566 139.749 75.7959C139.988 76.0352 140.267 76.2061 140.586 76.3086C140.917 76.4111 141.281 76.4624 141.68 76.4624C142.694 76.4624 143.492 76.2573 144.073 75.8472C144.665 75.437 145.081 74.8787 145.32 74.1724C145.571 73.4546 145.696 72.6571 145.696 71.7798ZM158.753 65.542V80H153.831V61.5088H158.462L158.753 65.542ZM164.324 61.3892L164.239 65.9521C164 65.918 163.709 65.8895 163.367 65.8667C163.037 65.8325 162.735 65.8154 162.461 65.8154C161.766 65.8154 161.163 65.9066 160.65 66.0889C160.149 66.2598 159.727 66.5161 159.385 66.8579C159.055 67.1997 158.804 67.6156 158.633 68.1055C158.474 68.5954 158.383 69.1536 158.36 69.7803L157.369 69.4727C157.369 68.2764 157.488 67.1769 157.728 66.1743C157.967 65.1603 158.314 64.2773 158.77 63.5254C159.237 62.7734 159.807 62.1924 160.479 61.7822C161.151 61.3721 161.92 61.167 162.786 61.167C163.06 61.167 163.339 61.1898 163.624 61.2354C163.908 61.2695 164.142 61.3208 164.324 61.3892ZM195.923 55.1172V80H190.796L180.799 63.3203V80H175.672V55.1172H180.799L190.813 71.814V55.1172H195.923ZM210.057 75.8301V67.5928C210.057 67.0003 209.96 66.4933 209.766 66.0718C209.572 65.6388 209.271 65.3027 208.86 65.0635C208.462 64.8242 207.943 64.7046 207.305 64.7046C206.758 64.7046 206.285 64.8014 205.887 64.9951C205.488 65.1774 205.18 65.4451 204.964 65.7983C204.747 66.1401 204.639 66.5446 204.639 67.0117H199.717C199.717 66.2256 199.9 65.4793 200.264 64.7729C200.629 64.0666 201.159 63.4456 201.854 62.9102C202.549 62.3633 203.375 61.936 204.332 61.6284C205.3 61.3208 206.382 61.167 207.579 61.167C209.014 61.167 210.29 61.4062 211.407 61.8848C212.523 62.3633 213.401 63.0811 214.039 64.0381C214.688 64.9951 215.013 66.1914 215.013 67.627V75.5396C215.013 76.5535 215.075 77.3853 215.201 78.0347C215.326 78.6727 215.508 79.231 215.748 79.7095V80H210.774C210.535 79.4987 210.353 78.8721 210.228 78.1201C210.114 77.3568 210.057 76.5934 210.057 75.8301ZM210.706 68.7378L210.74 71.5234H207.989C207.339 71.5234 206.775 71.5975 206.297 71.7456C205.818 71.8937 205.425 72.1045 205.118 72.3779C204.81 72.64 204.582 72.9476 204.434 73.3008C204.297 73.654 204.229 74.0413 204.229 74.4629C204.229 74.8844 204.326 75.2661 204.52 75.6079C204.713 75.9383 204.992 76.2004 205.357 76.394C205.722 76.5763 206.149 76.6675 206.639 76.6675C207.379 76.6675 208.023 76.5194 208.57 76.2231C209.117 75.9269 209.538 75.5623 209.834 75.1294C210.142 74.6965 210.302 74.2863 210.313 73.8989L211.612 75.9839C211.43 76.451 211.179 76.9352 210.86 77.4365C210.552 77.9378 210.159 78.4106 209.681 78.855C209.202 79.2879 208.627 79.6468 207.955 79.9316C207.282 80.2051 206.485 80.3418 205.562 80.3418C204.389 80.3418 203.323 80.1082 202.366 79.6411C201.421 79.1626 200.669 78.5075 200.11 77.6758C199.563 76.8327 199.29 75.8757 199.29 74.8047C199.29 73.8363 199.472 72.9761 199.837 72.2241C200.201 71.4722 200.737 70.8398 201.443 70.3271C202.161 69.8031 203.056 69.41 204.126 69.1479C205.197 68.8745 206.439 68.7378 207.852 68.7378H210.706ZM223.729 65.3369V80H218.79V61.5088H223.421L223.729 65.3369ZM223.045 70.105H221.678C221.678 68.8175 221.832 67.6326 222.139 66.5503C222.458 65.4565 222.92 64.5109 223.523 63.7134C224.139 62.9045 224.896 62.2778 225.796 61.8335C226.696 61.3892 227.739 61.167 228.924 61.167C229.744 61.167 230.496 61.2923 231.18 61.543C231.863 61.7822 232.45 62.1639 232.94 62.688C233.441 63.2007 233.829 63.8729 234.102 64.7046C234.375 65.5249 234.512 66.5104 234.512 67.6611V80H229.59V68.208C229.59 67.3649 229.476 66.7155 229.249 66.2598C229.021 65.804 228.696 65.485 228.274 65.3027C227.864 65.1204 227.369 65.0293 226.788 65.0293C226.15 65.0293 225.591 65.1603 225.113 65.4224C224.646 65.6844 224.258 66.049 223.951 66.5161C223.643 66.9718 223.415 67.5073 223.267 68.1226C223.119 68.7378 223.045 69.3986 223.045 70.105ZM234.051 69.541L232.291 69.7632C232.291 68.5555 232.439 67.4333 232.735 66.3965C233.042 65.3597 233.493 64.4482 234.085 63.6621C234.689 62.876 235.435 62.2664 236.324 61.8335C237.212 61.3892 238.238 61.167 239.4 61.167C240.289 61.167 241.097 61.298 241.827 61.5601C242.556 61.8107 243.177 62.2152 243.689 62.7734C244.214 63.3203 244.612 64.0381 244.886 64.9268C245.171 65.8154 245.313 66.9035 245.313 68.1909V80H240.374V68.1909C240.374 67.3364 240.26 66.687 240.032 66.2427C239.816 65.7869 239.497 65.4736 239.075 65.3027C238.665 65.1204 238.175 65.0293 237.605 65.0293C237.013 65.0293 236.495 65.1489 236.05 65.3882C235.606 65.616 235.236 65.9351 234.939 66.3452C234.643 66.7554 234.421 67.2339 234.273 67.7808C234.125 68.3162 234.051 68.903 234.051 69.541ZM257.635 80.3418C256.199 80.3418 254.912 80.1139 253.772 79.6582C252.633 79.1911 251.665 78.5474 250.867 77.7271C250.081 76.9067 249.477 75.9554 249.056 74.873C248.634 73.7793 248.423 72.6172 248.423 71.3867V70.7031C248.423 69.3018 248.623 68.02 249.021 66.8579C249.42 65.6958 249.99 64.6875 250.73 63.833C251.482 62.9785 252.394 62.3234 253.465 61.8677C254.536 61.4006 255.743 61.167 257.088 61.167C258.398 61.167 259.56 61.3835 260.574 61.8164C261.588 62.2493 262.437 62.8646 263.121 63.6621C263.816 64.4596 264.34 65.4167 264.693 66.5332C265.046 67.6383 265.223 68.8688 265.223 70.2246V72.2754H250.525V68.9941H260.386V68.6182C260.386 67.9346 260.261 67.325 260.01 66.7896C259.771 66.2427 259.406 65.8097 258.917 65.4907C258.427 65.1717 257.8 65.0122 257.037 65.0122C256.387 65.0122 255.829 65.1546 255.362 65.4395C254.895 65.7243 254.513 66.123 254.217 66.6357C253.932 67.1484 253.715 67.7523 253.567 68.4473C253.431 69.1309 253.362 69.8828 253.362 70.7031V71.3867C253.362 72.1273 253.465 72.8109 253.67 73.4375C253.886 74.0641 254.188 74.6053 254.576 75.061C254.974 75.5168 255.453 75.87 256.011 76.1206C256.581 76.3713 257.225 76.4966 257.942 76.4966C258.831 76.4966 259.657 76.3257 260.42 75.9839C261.195 75.6307 261.862 75.1009 262.42 74.3945L264.812 76.9922C264.425 77.5505 263.895 78.0859 263.223 78.5986C262.562 79.1113 261.765 79.5329 260.831 79.8633C259.896 80.1823 258.831 80.3418 257.635 80.3418Z" fill="white" fill-opacity="0.5"/>
</g>
<g style="mix-blend-mode:exclusion">
<rect x="92" y="181" width="1179" height="80" rx="13.3333" fill="white" fill-opacity="0.1"/>
</g>
<g style="mix-blend-mode:exclusion">
<rect x="105" y="194.333" width="212" height="53.3333" rx="6.66667" fill="white" fill-opacity="0.35"/>
</g>
<path d="M171.823 213.167H177.792C178.958 213.167 179.972 213.34 180.833 213.687C181.694 214.035 182.358 214.549 182.823 215.229C183.295 215.91 183.531 216.75 183.531 217.75C183.531 218.618 183.396 219.344 183.125 219.927C182.854 220.51 182.476 220.993 181.99 221.375C181.51 221.75 180.951 222.059 180.312 222.302L179.115 222.979H174.104L174.083 220.156H177.792C178.257 220.156 178.642 220.073 178.948 219.906C179.253 219.74 179.483 219.503 179.635 219.198C179.795 218.885 179.875 218.514 179.875 218.083C179.875 217.646 179.795 217.271 179.635 216.958C179.476 216.646 179.24 216.406 178.927 216.24C178.622 216.073 178.243 215.99 177.792 215.99H175.479V228.333H171.823V213.167ZM180.125 228.333L176.771 221.625L180.646 221.604L184.042 228.177V228.333H180.125ZM191.031 228.542C190.115 228.542 189.295 228.399 188.573 228.115C187.851 227.823 187.24 227.424 186.74 226.917C186.247 226.41 185.868 225.826 185.604 225.167C185.347 224.507 185.219 223.809 185.219 223.073V222.677C185.219 221.851 185.333 221.087 185.562 220.385C185.792 219.677 186.132 219.059 186.583 218.531C187.035 218.003 187.601 217.594 188.281 217.302C188.962 217.003 189.753 216.854 190.656 216.854C191.455 216.854 192.17 216.983 192.802 217.24C193.434 217.497 193.969 217.865 194.406 218.344C194.851 218.823 195.187 219.403 195.417 220.083C195.653 220.764 195.771 221.528 195.771 222.375V223.802H186.562V221.604H192.344V221.333C192.351 220.958 192.285 220.639 192.146 220.375C192.014 220.111 191.819 219.91 191.562 219.771C191.306 219.632 190.993 219.562 190.625 219.562C190.243 219.562 189.927 219.646 189.677 219.812C189.434 219.979 189.243 220.208 189.104 220.5C188.972 220.785 188.878 221.115 188.823 221.49C188.767 221.865 188.74 222.26 188.74 222.677V223.073C188.74 223.49 188.795 223.868 188.906 224.208C189.024 224.549 189.191 224.84 189.406 225.083C189.628 225.319 189.892 225.503 190.198 225.635C190.51 225.767 190.865 225.833 191.26 225.833C191.74 225.833 192.212 225.743 192.677 225.562C193.142 225.382 193.542 225.083 193.875 224.667L195.469 226.562C195.24 226.889 194.913 227.205 194.49 227.51C194.073 227.816 193.573 228.066 192.99 228.26C192.406 228.448 191.753 228.542 191.031 228.542ZM203.052 225.5V220.854C203.052 220.535 203.007 220.26 202.917 220.031C202.826 219.802 202.684 219.625 202.49 219.5C202.295 219.368 202.035 219.302 201.708 219.302C201.444 219.302 201.219 219.347 201.031 219.437C200.844 219.528 200.701 219.663 200.604 219.844C200.507 220.024 200.458 220.253 200.458 220.531H196.948C196.948 220.01 197.062 219.528 197.292 219.083C197.528 218.632 197.861 218.24 198.292 217.906C198.729 217.573 199.25 217.316 199.854 217.135C200.465 216.948 201.146 216.854 201.896 216.854C202.792 216.854 203.59 217.003 204.292 217.302C205 217.601 205.559 218.049 205.969 218.646C206.378 219.236 206.583 219.979 206.583 220.875V225.49C206.583 226.226 206.625 226.785 206.708 227.167C206.792 227.542 206.91 227.872 207.062 228.156V228.333H203.542C203.375 227.986 203.25 227.562 203.167 227.062C203.09 226.556 203.052 226.035 203.052 225.5ZM203.479 221.448L203.5 223.323H201.948C201.622 223.323 201.344 223.368 201.115 223.458C200.892 223.549 200.712 223.674 200.573 223.833C200.441 223.986 200.344 224.16 200.281 224.354C200.226 224.549 200.198 224.753 200.198 224.969C200.198 225.177 200.247 225.365 200.344 225.531C200.448 225.691 200.587 225.816 200.76 225.906C200.934 225.997 201.128 226.042 201.344 226.042C201.733 226.042 202.062 225.969 202.333 225.823C202.611 225.67 202.823 225.486 202.969 225.271C203.115 225.056 203.187 224.854 203.187 224.667L203.958 226.104C203.819 226.382 203.66 226.663 203.479 226.948C203.306 227.233 203.087 227.497 202.823 227.74C202.566 227.976 202.25 228.17 201.875 228.323C201.5 228.469 201.045 228.542 200.51 228.542C199.816 228.542 199.177 228.399 198.594 228.115C198.017 227.83 197.556 227.434 197.208 226.927C196.861 226.413 196.687 225.823 196.687 225.156C196.687 224.573 196.792 224.052 197 223.594C197.215 223.135 197.538 222.747 197.969 222.427C198.399 222.108 198.948 221.865 199.615 221.698C200.281 221.531 201.066 221.448 201.969 221.448H203.479ZM213.292 225.833C213.618 225.833 213.896 225.774 214.125 225.656C214.361 225.531 214.538 225.358 214.656 225.135C214.781 224.906 214.84 224.632 214.833 224.312H218.135C218.142 225.16 217.934 225.903 217.51 226.542C217.094 227.174 216.524 227.667 215.802 228.021C215.087 228.368 214.278 228.542 213.375 228.542C212.493 228.542 211.722 228.399 211.062 228.115C210.403 227.823 209.851 227.42 209.406 226.906C208.969 226.385 208.639 225.778 208.417 225.083C208.201 224.389 208.094 223.635 208.094 222.823V222.583C208.094 221.771 208.201 221.017 208.417 220.323C208.639 219.622 208.969 219.014 209.406 218.5C209.851 217.979 210.399 217.576 211.052 217.292C211.712 217 212.479 216.854 213.354 216.854C214.292 216.854 215.118 217.031 215.833 217.385C216.556 217.74 217.122 218.253 217.531 218.927C217.941 219.601 218.142 220.417 218.135 221.375H214.833C214.84 221.035 214.788 220.729 214.677 220.458C214.566 220.187 214.392 219.972 214.156 219.812C213.927 219.646 213.632 219.562 213.271 219.562C212.91 219.562 212.618 219.642 212.396 219.802C212.174 219.962 212.003 220.184 211.885 220.469C211.774 220.747 211.698 221.066 211.656 221.427C211.622 221.788 211.604 222.174 211.604 222.583V222.823C211.604 223.24 211.622 223.632 211.656 224C211.698 224.361 211.778 224.681 211.896 224.958C212.014 225.229 212.184 225.444 212.406 225.604C212.628 225.757 212.924 225.833 213.292 225.833ZM225.573 217.062V219.5H218.781V217.062H225.573ZM220.208 214.26H223.719V224.656C223.719 224.955 223.753 225.187 223.823 225.354C223.892 225.514 224.01 225.628 224.177 225.698C224.351 225.76 224.58 225.792 224.865 225.792C225.066 225.792 225.233 225.788 225.365 225.781C225.497 225.767 225.622 225.75 225.74 225.729V228.24C225.441 228.337 225.128 228.41 224.802 228.458C224.476 228.514 224.128 228.542 223.76 228.542C223.01 228.542 222.368 228.424 221.833 228.187C221.306 227.951 220.903 227.58 220.625 227.073C220.347 226.566 220.208 225.906 220.208 225.094V214.26ZM233.167 223.573V213.167H236.812V223.573C236.812 224.587 236.58 225.465 236.115 226.208C235.656 226.951 235.031 227.528 234.24 227.937C233.455 228.34 232.573 228.542 231.594 228.542C230.58 228.542 229.677 228.372 228.885 228.031C228.101 227.691 227.483 227.167 227.031 226.458C226.587 225.75 226.365 224.847 226.365 223.75H230.031C230.031 224.264 230.09 224.667 230.208 224.958C230.326 225.243 230.5 225.444 230.729 225.562C230.965 225.674 231.253 225.729 231.594 225.729C231.927 225.729 232.208 225.646 232.437 225.479C232.674 225.306 232.854 225.059 232.979 224.74C233.104 224.413 233.167 224.024 233.167 223.573ZM246.948 224.302C246.948 224.066 246.913 223.854 246.844 223.667C246.774 223.472 246.646 223.292 246.458 223.125C246.271 222.958 246 222.792 245.646 222.625C245.299 222.451 244.84 222.271 244.271 222.083C243.604 221.861 242.962 221.611 242.344 221.333C241.726 221.049 241.174 220.719 240.687 220.344C240.201 219.962 239.816 219.517 239.531 219.01C239.247 218.497 239.104 217.899 239.104 217.219C239.104 216.566 239.25 215.979 239.542 215.458C239.833 214.931 240.24 214.483 240.76 214.115C241.288 213.74 241.906 213.455 242.615 213.26C243.323 213.059 244.097 212.958 244.937 212.958C246.049 212.958 247.028 213.153 247.875 213.542C248.729 213.924 249.396 214.469 249.875 215.177C250.361 215.878 250.604 216.708 250.604 217.667H246.969C246.969 217.285 246.889 216.948 246.729 216.656C246.576 216.365 246.344 216.135 246.031 215.969C245.719 215.802 245.326 215.719 244.854 215.719C244.396 215.719 244.01 215.788 243.698 215.927C243.385 216.066 243.149 216.253 242.99 216.49C242.83 216.719 242.75 216.972 242.75 217.25C242.75 217.479 242.812 217.687 242.937 217.875C243.069 218.056 243.253 218.226 243.49 218.385C243.733 218.545 244.024 218.698 244.365 218.844C244.712 218.99 245.101 219.132 245.531 219.271C246.337 219.528 247.052 219.816 247.677 220.135C248.309 220.448 248.84 220.806 249.271 221.208C249.708 221.604 250.038 222.056 250.26 222.562C250.49 223.069 250.604 223.642 250.604 224.281C250.604 224.962 250.472 225.566 250.208 226.094C249.944 226.622 249.566 227.069 249.073 227.437C248.58 227.799 247.99 228.073 247.302 228.26C246.615 228.448 245.847 228.542 245 228.542C244.222 228.542 243.455 228.444 242.698 228.25C241.948 228.049 241.267 227.743 240.656 227.333C240.045 226.917 239.556 226.385 239.187 225.74C238.826 225.087 238.646 224.312 238.646 223.417H242.312C242.312 223.861 242.372 224.236 242.49 224.542C242.608 224.847 242.781 225.094 243.01 225.281C243.24 225.462 243.521 225.594 243.854 225.677C244.187 225.753 244.569 225.792 245 225.792C245.465 225.792 245.84 225.726 246.125 225.594C246.41 225.455 246.618 225.274 246.75 225.052C246.882 224.823 246.948 224.573 246.948 224.302Z" fill="white"/>
<g style="mix-blend-mode:exclusion">
<rect x="337" y="194.333" width="212" height="53.3333" rx="6.66667" fill="white" fill-opacity="0.35"/>
</g>
<path d="M418.844 213.167V228.333H415.198L409.833 218.896V228.333H406.177V213.167H409.833L415.198 222.604V213.167H418.844ZM420.552 222.812V222.594C420.552 221.767 420.67 221.007 420.906 220.312C421.142 219.611 421.49 219.003 421.948 218.49C422.406 217.976 422.972 217.576 423.646 217.292C424.319 217 425.097 216.854 425.979 216.854C426.868 216.854 427.649 217 428.323 217.292C429.003 217.576 429.573 217.976 430.031 218.49C430.49 219.003 430.837 219.611 431.073 220.312C431.309 221.007 431.427 221.767 431.427 222.594V222.812C431.427 223.632 431.309 224.392 431.073 225.094C430.837 225.788 430.49 226.396 430.031 226.917C429.573 227.431 429.007 227.83 428.333 228.115C427.66 228.399 426.882 228.542 426 228.542C425.118 228.542 424.337 228.399 423.656 228.115C422.976 227.83 422.406 227.431 421.948 226.917C421.49 226.396 421.142 225.788 420.906 225.094C420.67 224.392 420.552 223.632 420.552 222.812ZM424.062 222.594V222.812C424.062 223.236 424.094 223.632 424.156 224C424.219 224.368 424.323 224.691 424.469 224.969C424.615 225.24 424.812 225.451 425.062 225.604C425.312 225.757 425.625 225.833 426 225.833C426.368 225.833 426.674 225.757 426.917 225.604C427.167 225.451 427.365 225.24 427.51 224.969C427.656 224.691 427.76 224.368 427.823 224C427.885 223.632 427.917 223.236 427.917 222.812V222.594C427.917 222.184 427.885 221.799 427.823 221.437C427.76 221.069 427.656 220.747 427.51 220.469C427.365 220.184 427.167 219.962 426.917 219.802C426.667 219.642 426.354 219.562 425.979 219.562C425.611 219.562 425.302 219.642 425.052 219.802C424.809 219.962 424.615 220.184 424.469 220.469C424.323 220.747 424.219 221.069 424.156 221.437C424.094 221.799 424.062 222.184 424.062 222.594ZM439.469 225.75V212.333H443V228.333H439.833L439.469 225.75ZM432.552 222.833V222.615C432.552 221.76 432.646 220.983 432.833 220.281C433.021 219.573 433.299 218.965 433.667 218.458C434.035 217.944 434.493 217.549 435.042 217.271C435.59 216.993 436.222 216.854 436.938 216.854C437.576 216.854 438.135 217.003 438.615 217.302C439.094 217.594 439.503 218.003 439.844 218.531C440.184 219.059 440.462 219.677 440.677 220.385C440.892 221.087 441.056 221.844 441.167 222.656V222.917C441.056 223.681 440.892 224.403 440.677 225.083C440.462 225.757 440.184 226.354 439.844 226.875C439.503 227.396 439.09 227.806 438.604 228.104C438.125 228.396 437.563 228.542 436.917 228.542C436.201 228.542 435.569 228.399 435.021 228.115C434.479 227.83 434.024 227.431 433.656 226.917C433.295 226.403 433.021 225.799 432.833 225.104C432.646 224.41 432.552 223.653 432.552 222.833ZM436.063 222.615V222.833C436.063 223.257 436.09 223.649 436.146 224.01C436.201 224.372 436.295 224.691 436.427 224.969C436.566 225.24 436.747 225.451 436.969 225.604C437.198 225.757 437.479 225.833 437.813 225.833C438.264 225.833 438.635 225.726 438.927 225.51C439.226 225.295 439.444 224.99 439.583 224.594C439.729 224.198 439.792 223.733 439.771 223.198V222.375C439.785 221.917 439.753 221.514 439.677 221.167C439.601 220.812 439.479 220.517 439.313 220.281C439.153 220.045 438.948 219.868 438.698 219.75C438.455 219.625 438.167 219.562 437.833 219.562C437.507 219.562 437.229 219.639 437 219.792C436.778 219.944 436.597 220.16 436.458 220.437C436.319 220.708 436.219 221.031 436.156 221.406C436.094 221.774 436.063 222.177 436.063 222.615ZM450.448 228.542C449.531 228.542 448.712 228.399 447.99 228.115C447.267 227.823 446.656 227.424 446.156 226.917C445.663 226.41 445.285 225.826 445.021 225.167C444.764 224.507 444.635 223.809 444.635 223.073V222.677C444.635 221.851 444.75 221.087 444.979 220.385C445.208 219.677 445.549 219.059 446 218.531C446.451 218.003 447.017 217.594 447.698 217.302C448.378 217.003 449.17 216.854 450.073 216.854C450.872 216.854 451.587 216.983 452.219 217.24C452.851 217.497 453.385 217.865 453.823 218.344C454.267 218.823 454.604 219.403 454.833 220.083C455.069 220.764 455.188 221.528 455.188 222.375V223.802H445.979V221.604H451.76V221.333C451.767 220.958 451.701 220.639 451.563 220.375C451.431 220.111 451.236 219.91 450.979 219.771C450.722 219.632 450.41 219.562 450.042 219.562C449.66 219.562 449.344 219.646 449.094 219.812C448.851 219.979 448.66 220.208 448.521 220.5C448.389 220.785 448.295 221.115 448.24 221.49C448.184 221.865 448.156 222.26 448.156 222.677V223.073C448.156 223.49 448.212 223.868 448.323 224.208C448.441 224.549 448.608 224.84 448.823 225.083C449.045 225.319 449.309 225.503 449.615 225.635C449.927 225.767 450.281 225.833 450.677 225.833C451.156 225.833 451.628 225.743 452.094 225.562C452.559 225.382 452.958 225.083 453.292 224.667L454.885 226.562C454.656 226.889 454.33 227.205 453.906 227.51C453.49 227.816 452.99 228.066 452.406 228.26C451.823 228.448 451.17 228.542 450.448 228.542ZM462.813 223.573V213.167H466.458V223.573C466.458 224.587 466.226 225.465 465.76 226.208C465.302 226.951 464.677 227.528 463.885 227.937C463.101 228.34 462.219 228.542 461.24 228.542C460.226 228.542 459.323 228.372 458.531 228.031C457.747 227.691 457.128 227.167 456.677 226.458C456.233 225.75 456.01 224.847 456.01 223.75H459.677C459.677 224.264 459.736 224.667 459.854 224.958C459.972 225.243 460.146 225.444 460.375 225.562C460.611 225.674 460.899 225.729 461.24 225.729C461.573 225.729 461.854 225.646 462.083 225.479C462.319 225.306 462.5 225.059 462.625 224.74C462.75 224.413 462.813 224.024 462.813 223.573ZM476.594 224.302C476.594 224.066 476.559 223.854 476.49 223.667C476.42 223.472 476.292 223.292 476.104 223.125C475.917 222.958 475.646 222.792 475.292 222.625C474.944 222.451 474.486 222.271 473.917 222.083C473.25 221.861 472.608 221.611 471.99 221.333C471.372 221.049 470.819 220.719 470.333 220.344C469.847 219.962 469.462 219.517 469.177 219.01C468.892 218.497 468.75 217.899 468.75 217.219C468.75 216.566 468.896 215.979 469.188 215.458C469.479 214.931 469.885 214.483 470.406 214.115C470.934 213.74 471.552 213.455 472.26 213.26C472.969 213.059 473.743 212.958 474.583 212.958C475.694 212.958 476.674 213.153 477.521 213.542C478.375 213.924 479.042 214.469 479.521 215.177C480.007 215.878 480.25 216.708 480.25 217.667H476.615C476.615 217.285 476.535 216.948 476.375 216.656C476.222 216.365 475.99 216.135 475.677 215.969C475.365 215.802 474.972 215.719 474.5 215.719C474.042 215.719 473.656 215.788 473.344 215.927C473.031 216.066 472.795 216.253 472.635 216.49C472.476 216.719 472.396 216.972 472.396 217.25C472.396 217.479 472.458 217.687 472.583 217.875C472.715 218.056 472.899 218.226 473.135 218.385C473.378 218.545 473.67 218.698 474.01 218.844C474.358 218.99 474.747 219.132 475.177 219.271C475.983 219.528 476.698 219.816 477.323 220.135C477.955 220.448 478.486 220.806 478.917 221.208C479.354 221.604 479.684 222.056 479.906 222.562C480.135 223.069 480.25 223.642 480.25 224.281C480.25 224.962 480.118 225.566 479.854 226.094C479.59 226.622 479.212 227.069 478.719 227.437C478.226 227.799 477.635 228.073 476.948 228.26C476.26 228.448 475.493 228.542 474.646 228.542C473.868 228.542 473.101 228.444 472.344 228.25C471.594 228.049 470.913 227.743 470.302 227.333C469.691 226.917 469.201 226.385 468.833 225.74C468.472 225.087 468.292 224.312 468.292 223.417H471.958C471.958 223.861 472.017 224.236 472.135 224.542C472.253 224.847 472.427 225.094 472.656 225.281C472.885 225.462 473.167 225.594 473.5 225.677C473.833 225.753 474.215 225.792 474.646 225.792C475.111 225.792 475.486 225.726 475.771 225.594C476.056 225.455 476.264 225.274 476.396 225.052C476.528 224.823 476.594 224.573 476.594 224.302Z" fill="white"/>
<g style="mix-blend-mode:exclusion">
<rect x="569" y="194.333" width="212" height="53.3333" rx="6.66667" fill="white" fill-opacity="0.35"/>
</g>
<path d="M614.833 213.167H620.802C621.969 213.167 622.983 213.34 623.844 213.687C624.705 214.035 625.368 214.549 625.833 215.229C626.306 215.91 626.542 216.75 626.542 217.75C626.542 218.618 626.406 219.344 626.135 219.927C625.865 220.51 625.486 220.993 625 221.375C624.521 221.75 623.962 222.059 623.323 222.302L622.125 222.979H617.115L617.094 220.156H620.802C621.267 220.156 621.653 220.073 621.958 219.906C622.264 219.74 622.493 219.503 622.646 219.198C622.806 218.885 622.885 218.514 622.885 218.083C622.885 217.646 622.806 217.271 622.646 216.958C622.486 216.646 622.25 216.406 621.937 216.24C621.632 216.073 621.253 215.99 620.802 215.99H618.49V228.333H614.833V213.167ZM623.135 228.333L619.781 221.625L623.656 221.604L627.052 228.177V228.333H623.135ZM634.042 228.542C633.125 228.542 632.306 228.399 631.583 228.115C630.861 227.823 630.25 227.424 629.75 226.917C629.257 226.41 628.878 225.826 628.615 225.167C628.358 224.507 628.229 223.809 628.229 223.073V222.677C628.229 221.851 628.344 221.087 628.573 220.385C628.802 219.677 629.142 219.059 629.594 218.531C630.045 218.003 630.611 217.594 631.292 217.302C631.972 217.003 632.764 216.854 633.667 216.854C634.465 216.854 635.181 216.983 635.813 217.24C636.444 217.497 636.979 217.865 637.417 218.344C637.861 218.823 638.198 219.403 638.427 220.083C638.663 220.764 638.781 221.528 638.781 222.375V223.802H629.573V221.604H635.354V221.333C635.361 220.958 635.295 220.639 635.156 220.375C635.024 220.111 634.83 219.91 634.573 219.771C634.316 219.632 634.003 219.562 633.635 219.562C633.253 219.562 632.938 219.646 632.688 219.812C632.444 219.979 632.253 220.208 632.115 220.5C631.983 220.785 631.889 221.115 631.833 221.49C631.778 221.865 631.75 222.26 631.75 222.677V223.073C631.75 223.49 631.806 223.868 631.917 224.208C632.035 224.549 632.201 224.84 632.417 225.083C632.639 225.319 632.903 225.503 633.208 225.635C633.521 225.767 633.875 225.833 634.271 225.833C634.75 225.833 635.222 225.743 635.688 225.562C636.153 225.382 636.552 225.083 636.885 224.667L638.479 226.562C638.25 226.889 637.924 227.205 637.5 227.51C637.083 227.816 636.583 228.066 636 228.26C635.417 228.448 634.764 228.542 634.042 228.542ZM646.063 225.5V220.854C646.063 220.535 646.017 220.26 645.927 220.031C645.837 219.802 645.694 219.625 645.5 219.5C645.306 219.368 645.045 219.302 644.719 219.302C644.455 219.302 644.229 219.347 644.042 219.437C643.854 219.528 643.712 219.663 643.615 219.844C643.517 220.024 643.469 220.253 643.469 220.531H639.958C639.958 220.01 640.073 219.528 640.302 219.083C640.538 218.632 640.872 218.24 641.302 217.906C641.74 217.573 642.26 217.316 642.865 217.135C643.476 216.948 644.156 216.854 644.906 216.854C645.802 216.854 646.601 217.003 647.302 217.302C648.01 217.601 648.569 218.049 648.979 218.646C649.389 219.236 649.594 219.979 649.594 220.875V225.49C649.594 226.226 649.635 226.785 649.719 227.167C649.802 227.542 649.92 227.872 650.073 228.156V228.333H646.552C646.385 227.986 646.26 227.562 646.177 227.062C646.101 226.556 646.063 226.035 646.063 225.5ZM646.49 221.448L646.51 223.323H644.958C644.632 223.323 644.354 223.368 644.125 223.458C643.903 223.549 643.722 223.674 643.583 223.833C643.451 223.986 643.354 224.16 643.292 224.354C643.236 224.549 643.208 224.753 643.208 224.969C643.208 225.177 643.257 225.365 643.354 225.531C643.458 225.691 643.597 225.816 643.771 225.906C643.944 225.997 644.139 226.042 644.354 226.042C644.743 226.042 645.073 225.969 645.344 225.823C645.622 225.67 645.833 225.486 645.979 225.271C646.125 225.056 646.198 224.854 646.198 224.667L646.969 226.104C646.83 226.382 646.67 226.663 646.49 226.948C646.316 227.233 646.097 227.497 645.833 227.74C645.576 227.976 645.26 228.17 644.885 228.323C644.51 228.469 644.056 228.542 643.521 228.542C642.826 228.542 642.188 228.399 641.604 228.115C641.028 227.83 640.566 227.434 640.219 226.927C639.872 226.413 639.698 225.823 639.698 225.156C639.698 224.573 639.802 224.052 640.01 223.594C640.226 223.135 640.549 222.747 640.979 222.427C641.41 222.108 641.958 221.865 642.625 221.698C643.292 221.531 644.076 221.448 644.979 221.448H646.49ZM656.302 225.833C656.628 225.833 656.906 225.774 657.135 225.656C657.372 225.531 657.549 225.358 657.667 225.135C657.792 224.906 657.851 224.632 657.844 224.312H661.146C661.153 225.16 660.944 225.903 660.521 226.542C660.104 227.174 659.535 227.667 658.812 228.021C658.097 228.368 657.288 228.542 656.385 228.542C655.503 228.542 654.733 228.399 654.073 228.115C653.413 227.823 652.861 227.42 652.417 226.906C651.979 226.385 651.649 225.778 651.427 225.083C651.212 224.389 651.104 223.635 651.104 222.823V222.583C651.104 221.771 651.212 221.017 651.427 220.323C651.649 219.622 651.979 219.014 652.417 218.5C652.861 217.979 653.41 217.576 654.062 217.292C654.722 217 655.49 216.854 656.365 216.854C657.302 216.854 658.128 217.031 658.844 217.385C659.566 217.74 660.132 218.253 660.542 218.927C660.951 219.601 661.153 220.417 661.146 221.375H657.844C657.851 221.035 657.799 220.729 657.687 220.458C657.576 220.187 657.403 219.972 657.167 219.812C656.937 219.646 656.642 219.562 656.281 219.562C655.92 219.562 655.628 219.642 655.406 219.802C655.184 219.962 655.014 220.184 654.896 220.469C654.785 220.747 654.708 221.066 654.667 221.427C654.632 221.788 654.615 222.174 654.615 222.583V222.823C654.615 223.24 654.632 223.632 654.667 224C654.708 224.361 654.788 224.681 654.906 224.958C655.024 225.229 655.194 225.444 655.417 225.604C655.639 225.757 655.934 225.833 656.302 225.833ZM668.583 217.062V219.5H661.792V217.062H668.583ZM663.219 214.26H666.729V224.656C666.729 224.955 666.764 225.187 666.833 225.354C666.903 225.514 667.021 225.628 667.188 225.698C667.361 225.76 667.59 225.792 667.875 225.792C668.076 225.792 668.243 225.788 668.375 225.781C668.507 225.767 668.632 225.75 668.75 225.729V228.24C668.451 228.337 668.139 228.41 667.813 228.458C667.486 228.514 667.139 228.542 666.771 228.542C666.021 228.542 665.378 228.424 664.844 228.187C664.316 227.951 663.913 227.58 663.635 227.073C663.358 226.566 663.219 225.906 663.219 225.094V214.26ZM688.125 213.167V228.333H684.479L679.115 218.896V228.333H675.458V213.167H679.115L684.479 222.604V213.167H688.125ZM696.125 225.5V220.854C696.125 220.535 696.08 220.26 695.99 220.031C695.899 219.802 695.757 219.625 695.563 219.5C695.368 219.368 695.108 219.302 694.781 219.302C694.517 219.302 694.292 219.347 694.104 219.437C693.917 219.528 693.774 219.663 693.677 219.844C693.58 220.024 693.531 220.253 693.531 220.531H690.021C690.021 220.01 690.135 219.528 690.365 219.083C690.601 218.632 690.934 218.24 691.365 217.906C691.802 217.573 692.323 217.316 692.927 217.135C693.538 216.948 694.219 216.854 694.969 216.854C695.865 216.854 696.663 217.003 697.365 217.302C698.073 217.601 698.632 218.049 699.042 218.646C699.451 219.236 699.656 219.979 699.656 220.875V225.49C699.656 226.226 699.698 226.785 699.781 227.167C699.865 227.542 699.983 227.872 700.135 228.156V228.333H696.615C696.448 227.986 696.323 227.562 696.24 227.062C696.163 226.556 696.125 226.035 696.125 225.5ZM696.552 221.448L696.573 223.323H695.021C694.694 223.323 694.417 223.368 694.188 223.458C693.965 223.549 693.785 223.674 693.646 223.833C693.514 223.986 693.417 224.16 693.354 224.354C693.299 224.549 693.271 224.753 693.271 224.969C693.271 225.177 693.319 225.365 693.417 225.531C693.521 225.691 693.66 225.816 693.833 225.906C694.007 225.997 694.201 226.042 694.417 226.042C694.806 226.042 695.135 225.969 695.406 225.823C695.684 225.67 695.896 225.486 696.042 225.271C696.188 225.056 696.26 224.854 696.26 224.667L697.031 226.104C696.892 226.382 696.733 226.663 696.552 226.948C696.378 227.233 696.16 227.497 695.896 227.74C695.639 227.976 695.323 228.17 694.948 228.323C694.573 228.469 694.118 228.542 693.583 228.542C692.889 228.542 692.25 228.399 691.667 228.115C691.09 227.83 690.628 227.434 690.281 226.927C689.934 226.413 689.76 225.823 689.76 225.156C689.76 224.573 689.865 224.052 690.073 223.594C690.288 223.135 690.611 222.747 691.042 222.427C691.472 222.108 692.021 221.865 692.688 221.698C693.354 221.531 694.139 221.448 695.042 221.448H696.552ZM707.542 217.062V219.5H700.75V217.062H707.542ZM702.177 214.26H705.687V224.656C705.687 224.955 705.722 225.187 705.792 225.354C705.861 225.514 705.979 225.628 706.146 225.698C706.319 225.76 706.549 225.792 706.833 225.792C707.035 225.792 707.201 225.788 707.333 225.781C707.465 225.767 707.59 225.75 707.708 225.729V228.24C707.41 228.337 707.097 228.41 706.771 228.458C706.444 228.514 706.097 228.542 705.729 228.542C704.979 228.542 704.337 228.424 703.802 228.187C703.274 227.951 702.872 227.58 702.594 227.073C702.316 226.566 702.177 225.906 702.177 225.094V214.26ZM712.646 217.062V228.333H709.125V217.062H712.646ZM708.917 214.156C708.917 213.656 709.097 213.247 709.458 212.927C709.819 212.608 710.288 212.448 710.865 212.448C711.441 212.448 711.91 212.608 712.271 212.927C712.632 213.247 712.813 213.656 712.813 214.156C712.813 214.656 712.632 215.066 712.271 215.385C711.91 215.705 711.441 215.865 710.865 215.865C710.288 215.865 709.819 215.705 709.458 215.385C709.097 215.066 708.917 214.656 708.917 214.156ZM718.875 225.927L721.094 217.062H724.792L721.104 228.333H718.917L718.875 225.927ZM717.563 217.062L719.75 225.927L719.729 228.333H717.531L713.854 217.062H717.563ZM731.146 228.542C730.229 228.542 729.41 228.399 728.688 228.115C727.965 227.823 727.354 227.424 726.854 226.917C726.361 226.41 725.983 225.826 725.719 225.167C725.462 224.507 725.333 223.809 725.333 223.073V222.677C725.333 221.851 725.448 221.087 725.677 220.385C725.906 219.677 726.247 219.059 726.698 218.531C727.149 218.003 727.715 217.594 728.396 217.302C729.076 217.003 729.868 216.854 730.771 216.854C731.569 216.854 732.285 216.983 732.917 217.24C733.549 217.497 734.083 217.865 734.521 218.344C734.965 218.823 735.302 219.403 735.531 220.083C735.767 220.764 735.885 221.528 735.885 222.375V223.802H726.677V221.604H732.458V221.333C732.465 220.958 732.399 220.639 732.26 220.375C732.128 220.111 731.934 219.91 731.677 219.771C731.42 219.632 731.108 219.562 730.74 219.562C730.358 219.562 730.042 219.646 729.792 219.812C729.549 219.979 729.358 220.208 729.219 220.5C729.087 220.785 728.993 221.115 728.938 221.49C728.882 221.865 728.854 222.26 728.854 222.677V223.073C728.854 223.49 728.91 223.868 729.021 224.208C729.139 224.549 729.306 224.84 729.521 225.083C729.743 225.319 730.007 225.503 730.313 225.635C730.625 225.767 730.979 225.833 731.375 225.833C731.854 225.833 732.326 225.743 732.792 225.562C733.257 225.382 733.656 225.083 733.99 224.667L735.583 226.562C735.354 226.889 735.028 227.205 734.604 227.51C734.188 227.816 733.688 228.066 733.104 228.26C732.521 228.448 731.868 228.542 731.146 228.542Z" fill="white"/>
</svg>
