<svg width="1363" height="167" viewBox="0 0 1363 167" fill="none" xmlns="http://www.w3.org/2000/svg">
<g style="mix-blend-mode:exclusion">
<rect width="1363" height="167" rx="15" fill="white" fill-opacity="0.05"/>
</g>
<g style="mix-blend-mode:exclusion">
<path d="M0 15C0 6.71573 6.71573 0 15 0H37V167H15C6.71573 167 0 160.284 0 152V15Z" fill="white" fill-opacity="0.25"/>
</g>
<g style="mix-blend-mode:exclusion">
<path d="M100.906 54.9219L93.3945 52.2383V49.0859L103.602 53.375V55.6367L100.906 54.9219ZM93.3945 57.1719L100.918 54.4297L103.602 53.7852V56.0352L93.3945 60.3242V57.1719ZM118.543 55.918H114.195V53.1758H118.543C119.215 53.1758 119.762 53.0664 120.184 52.8477C120.605 52.6211 120.914 52.3086 121.109 51.9102C121.305 51.5117 121.402 51.0625 121.402 50.5625C121.402 50.0547 121.305 49.582 121.109 49.1445C120.914 48.707 120.605 48.3555 120.184 48.0898C119.762 47.8242 119.215 47.6914 118.543 47.6914H115.414V62H111.898V44.9375H118.543C119.879 44.9375 121.023 45.1797 121.977 45.6641C122.938 46.1406 123.672 46.8008 124.18 47.6445C124.688 48.4883 124.941 49.4531 124.941 50.5391C124.941 51.6406 124.688 52.5938 124.18 53.3984C123.672 54.2031 122.938 54.8242 121.977 55.2617C121.023 55.6992 119.879 55.918 118.543 55.918ZM130.531 52.0859V62H127.156V49.3203H130.332L130.531 52.0859ZM134.352 49.2383L134.293 52.3672C134.129 52.3438 133.93 52.3242 133.695 52.3086C133.469 52.2852 133.262 52.2734 133.074 52.2734C132.598 52.2734 132.184 52.3359 131.832 52.4609C131.488 52.5781 131.199 52.7539 130.965 52.9883C130.738 53.2227 130.566 53.5078 130.449 53.8438C130.34 54.1797 130.277 54.5625 130.262 54.9922L129.582 54.7812C129.582 53.9609 129.664 53.207 129.828 52.5195C129.992 51.8242 130.23 51.2188 130.543 50.7031C130.863 50.1875 131.254 49.7891 131.715 49.5078C132.176 49.2266 132.703 49.0859 133.297 49.0859C133.484 49.0859 133.676 49.1016 133.871 49.1328C134.066 49.1562 134.227 49.1914 134.352 49.2383ZM135.055 55.7891V55.543C135.055 54.6133 135.188 53.7578 135.453 52.9766C135.719 52.1875 136.105 51.5039 136.613 50.9258C137.121 50.3477 137.746 49.8984 138.488 49.5781C139.23 49.25 140.082 49.0859 141.043 49.0859C142.004 49.0859 142.859 49.25 143.609 49.5781C144.359 49.8984 144.988 50.3477 145.496 50.9258C146.012 51.5039 146.402 52.1875 146.668 52.9766C146.934 53.7578 147.066 54.6133 147.066 55.543V55.7891C147.066 56.7109 146.934 57.5664 146.668 58.3555C146.402 59.1367 146.012 59.8203 145.496 60.4062C144.988 60.9844 144.363 61.4336 143.621 61.7539C142.879 62.0742 142.027 62.2344 141.066 62.2344C140.105 62.2344 139.25 62.0742 138.5 61.7539C137.758 61.4336 137.129 60.9844 136.613 60.4062C136.105 59.8203 135.719 59.1367 135.453 58.3555C135.188 57.5664 135.055 56.7109 135.055 55.7891ZM138.43 55.543V55.7891C138.43 56.3203 138.477 56.8164 138.57 57.2773C138.664 57.7383 138.812 58.1445 139.016 58.4961C139.227 58.8398 139.5 59.1094 139.836 59.3047C140.172 59.5 140.582 59.5977 141.066 59.5977C141.535 59.5977 141.938 59.5 142.273 59.3047C142.609 59.1094 142.879 58.8398 143.082 58.4961C143.285 58.1445 143.434 57.7383 143.527 57.2773C143.629 56.8164 143.68 56.3203 143.68 55.7891V55.543C143.68 55.0273 143.629 54.543 143.527 54.0898C143.434 53.6289 143.281 53.2227 143.07 52.8711C142.867 52.5117 142.598 52.2305 142.262 52.0273C141.926 51.8242 141.52 51.7227 141.043 51.7227C140.566 51.7227 140.16 51.8242 139.824 52.0273C139.496 52.2305 139.227 52.5117 139.016 52.8711C138.812 53.2227 138.664 53.6289 138.57 54.0898C138.477 54.543 138.43 55.0273 138.43 55.543ZM149.328 49.3203H152.715V62.7617C152.715 63.6992 152.543 64.4922 152.199 65.1406C151.855 65.7891 151.359 66.2812 150.711 66.6172C150.062 66.9531 149.277 67.1211 148.355 67.1211C148.066 67.1211 147.785 67.1055 147.512 67.0742C147.23 67.043 146.941 66.9922 146.645 66.9219L146.656 64.332C146.844 64.3633 147.027 64.3867 147.207 64.4023C147.379 64.4258 147.555 64.4375 147.734 64.4375C148.086 64.4375 148.379 64.3789 148.613 64.2617C148.848 64.1445 149.023 63.9609 149.141 63.7109C149.266 63.4688 149.328 63.1523 149.328 62.7617V49.3203ZM149.059 46.0156C149.059 45.5234 149.23 45.1172 149.574 44.7969C149.926 44.4766 150.387 44.3164 150.957 44.3164C151.535 44.3164 151.996 44.4766 152.34 44.7969C152.684 45.1172 152.855 45.5234 152.855 46.0156C152.855 46.5078 152.684 46.9141 152.34 47.2344C151.996 47.5547 151.535 47.7148 150.957 47.7148C150.387 47.7148 149.926 47.5547 149.574 47.2344C149.23 46.9141 149.059 46.5078 149.059 46.0156ZM161.234 62.2344C160.25 62.2344 159.367 62.0781 158.586 61.7656C157.805 61.4453 157.141 61.0039 156.594 60.4414C156.055 59.8789 155.641 59.2266 155.352 58.4844C155.062 57.7344 154.918 56.9375 154.918 56.0938V55.625C154.918 54.6641 155.055 53.7852 155.328 52.9883C155.602 52.1914 155.992 51.5 156.5 50.9141C157.016 50.3281 157.641 49.8789 158.375 49.5664C159.109 49.2461 159.938 49.0859 160.859 49.0859C161.758 49.0859 162.555 49.2344 163.25 49.5312C163.945 49.8281 164.527 50.25 164.996 50.7969C165.473 51.3438 165.832 52 166.074 52.7656C166.316 53.5234 166.438 54.3672 166.438 55.2969V56.7031H156.359V54.4531H163.121V54.1953C163.121 53.7266 163.035 53.3086 162.863 52.9414C162.699 52.5664 162.449 52.2695 162.113 52.0508C161.777 51.832 161.348 51.7227 160.824 51.7227C160.379 51.7227 159.996 51.8203 159.676 52.0156C159.355 52.2109 159.094 52.4844 158.891 52.8359C158.695 53.1875 158.547 53.6016 158.445 54.0781C158.352 54.5469 158.305 55.0625 158.305 55.625V56.0938C158.305 56.6016 158.375 57.0703 158.516 57.5C158.664 57.9297 158.871 58.3008 159.137 58.6133C159.41 58.9258 159.738 59.168 160.121 59.3398C160.512 59.5117 160.953 59.5977 161.445 59.5977C162.055 59.5977 162.621 59.4805 163.145 59.2461C163.676 59.0039 164.133 58.6406 164.516 58.1562L166.156 59.9375C165.891 60.3203 165.527 60.6875 165.066 61.0391C164.613 61.3906 164.066 61.6797 163.426 61.9062C162.785 62.125 162.055 62.2344 161.234 62.2344ZM173.598 59.5977C174.012 59.5977 174.379 59.5195 174.699 59.3633C175.02 59.1992 175.27 58.9727 175.449 58.6836C175.637 58.3867 175.734 58.0391 175.742 57.6406H178.918C178.91 58.5312 178.672 59.3242 178.203 60.0195C177.734 60.707 177.105 61.25 176.316 61.6484C175.527 62.0391 174.645 62.2344 173.668 62.2344C172.684 62.2344 171.824 62.0703 171.09 61.7422C170.363 61.4141 169.758 60.9609 169.273 60.3828C168.789 59.7969 168.426 59.1172 168.184 58.3438C167.941 57.5625 167.82 56.7266 167.82 55.8359V55.4961C167.82 54.5977 167.941 53.7617 168.184 52.9883C168.426 52.207 168.789 51.5273 169.273 50.9492C169.758 50.3633 170.363 49.9062 171.09 49.5781C171.816 49.25 172.668 49.0859 173.645 49.0859C174.684 49.0859 175.594 49.2852 176.375 49.6836C177.164 50.082 177.781 50.6523 178.227 51.3945C178.68 52.1289 178.91 53 178.918 54.0078H175.742C175.734 53.5859 175.645 53.2031 175.473 52.8594C175.309 52.5156 175.066 52.2422 174.746 52.0391C174.434 51.8281 174.047 51.7227 173.586 51.7227C173.094 51.7227 172.691 51.8281 172.379 52.0391C172.066 52.2422 171.824 52.5234 171.652 52.8828C171.48 53.2344 171.359 53.6367 171.289 54.0898C171.227 54.5352 171.195 55.0039 171.195 55.4961V55.8359C171.195 56.3281 171.227 56.8008 171.289 57.2539C171.352 57.707 171.469 58.1094 171.641 58.4609C171.82 58.8125 172.066 59.0898 172.379 59.293C172.691 59.4961 173.098 59.5977 173.598 59.5977ZM187.086 49.3203V51.7109H179.703V49.3203H187.086ZM181.531 46.1914H184.906V58.1797C184.906 58.5469 184.953 58.8281 185.047 59.0234C185.148 59.2188 185.297 59.3555 185.492 59.4336C185.688 59.5039 185.934 59.5391 186.23 59.5391C186.441 59.5391 186.629 59.5312 186.793 59.5156C186.965 59.4922 187.109 59.4688 187.227 59.4453L187.238 61.9297C186.949 62.0234 186.637 62.0977 186.301 62.1523C185.965 62.207 185.594 62.2344 185.188 62.2344C184.445 62.2344 183.797 62.1133 183.242 61.8711C182.695 61.6211 182.273 61.2227 181.977 60.6758C181.68 60.1289 181.531 59.4102 181.531 58.5195V46.1914ZM209.082 44.9375V62H205.566L198.711 50.5625V62H195.195V44.9375H198.711L205.578 56.3867V44.9375H209.082ZM218.773 59.1406V53.4922C218.773 53.0859 218.707 52.7383 218.574 52.4492C218.441 52.1523 218.234 51.9219 217.953 51.7578C217.68 51.5938 217.324 51.5117 216.887 51.5117C216.512 51.5117 216.188 51.5781 215.914 51.7109C215.641 51.8359 215.43 52.0195 215.281 52.2617C215.133 52.4961 215.059 52.7734 215.059 53.0938H211.684C211.684 52.5547 211.809 52.043 212.059 51.5586C212.309 51.0742 212.672 50.6484 213.148 50.2812C213.625 49.9062 214.191 49.6133 214.848 49.4023C215.512 49.1914 216.254 49.0859 217.074 49.0859C218.059 49.0859 218.934 49.25 219.699 49.5781C220.465 49.9062 221.066 50.3984 221.504 51.0547C221.949 51.7109 222.172 52.5312 222.172 53.5156V58.9414C222.172 59.6367 222.215 60.207 222.301 60.6523C222.387 61.0898 222.512 61.4727 222.676 61.8008V62H219.266C219.102 61.6562 218.977 61.2266 218.891 60.7109C218.812 60.1875 218.773 59.6641 218.773 59.1406ZM219.219 54.2773L219.242 56.1875H217.355C216.91 56.1875 216.523 56.2383 216.195 56.3398C215.867 56.4414 215.598 56.5859 215.387 56.7734C215.176 56.9531 215.02 57.1641 214.918 57.4062C214.824 57.6484 214.777 57.9141 214.777 58.2031C214.777 58.4922 214.844 58.7539 214.977 58.9883C215.109 59.2148 215.301 59.3945 215.551 59.5273C215.801 59.6523 216.094 59.7148 216.43 59.7148C216.938 59.7148 217.379 59.6133 217.754 59.4102C218.129 59.207 218.418 58.957 218.621 58.6602C218.832 58.3633 218.941 58.082 218.949 57.8164L219.84 59.2461C219.715 59.5664 219.543 59.8984 219.324 60.2422C219.113 60.5859 218.844 60.9102 218.516 61.2148C218.188 61.5117 217.793 61.7578 217.332 61.9531C216.871 62.1406 216.324 62.2344 215.691 62.2344C214.887 62.2344 214.156 62.0742 213.5 61.7539C212.852 61.4258 212.336 60.9766 211.953 60.4062C211.578 59.8281 211.391 59.1719 211.391 58.4375C211.391 57.7734 211.516 57.1836 211.766 56.668C212.016 56.1523 212.383 55.7188 212.867 55.3672C213.359 55.0078 213.973 54.7383 214.707 54.5586C215.441 54.3711 216.293 54.2773 217.262 54.2773H219.219ZM228.148 51.9453V62H224.762V49.3203H227.938L228.148 51.9453ZM227.68 55.2148H226.742C226.742 54.332 226.848 53.5195 227.059 52.7773C227.277 52.0273 227.594 51.3789 228.008 50.832C228.43 50.2773 228.949 49.8477 229.566 49.543C230.184 49.2383 230.898 49.0859 231.711 49.0859C232.273 49.0859 232.789 49.1719 233.258 49.3438C233.727 49.5078 234.129 49.7695 234.465 50.1289C234.809 50.4805 235.074 50.9414 235.262 51.5117C235.449 52.0742 235.543 52.75 235.543 53.5391V62H232.168V53.9141C232.168 53.3359 232.09 52.8906 231.934 52.5781C231.777 52.2656 231.555 52.0469 231.266 51.9219C230.984 51.7969 230.645 51.7344 230.246 51.7344C229.809 51.7344 229.426 51.8242 229.098 52.0039C228.777 52.1836 228.512 52.4336 228.301 52.7539C228.09 53.0664 227.934 53.4336 227.832 53.8555C227.73 54.2773 227.68 54.7305 227.68 55.2148ZM235.227 54.8281L234.02 54.9805C234.02 54.1523 234.121 53.3828 234.324 52.6719C234.535 51.9609 234.844 51.3359 235.25 50.7969C235.664 50.2578 236.176 49.8398 236.785 49.543C237.395 49.2383 238.098 49.0859 238.895 49.0859C239.504 49.0859 240.059 49.1758 240.559 49.3555C241.059 49.5273 241.484 49.8047 241.836 50.1875C242.195 50.5625 242.469 51.0547 242.656 51.6641C242.852 52.2734 242.949 53.0195 242.949 53.9023V62H239.562V53.9023C239.562 53.3164 239.484 52.8711 239.328 52.5664C239.18 52.2539 238.961 52.0391 238.672 51.9219C238.391 51.7969 238.055 51.7344 237.664 51.7344C237.258 51.7344 236.902 51.8164 236.598 51.9805C236.293 52.1367 236.039 52.3555 235.836 52.6367C235.633 52.918 235.48 53.2461 235.379 53.6211C235.277 53.9883 235.227 54.3906 235.227 54.8281ZM251.398 62.2344C250.414 62.2344 249.531 62.0781 248.75 61.7656C247.969 61.4453 247.305 61.0039 246.758 60.4414C246.219 59.8789 245.805 59.2266 245.516 58.4844C245.227 57.7344 245.082 56.9375 245.082 56.0938V55.625C245.082 54.6641 245.219 53.7852 245.492 52.9883C245.766 52.1914 246.156 51.5 246.664 50.9141C247.18 50.3281 247.805 49.8789 248.539 49.5664C249.273 49.2461 250.102 49.0859 251.023 49.0859C251.922 49.0859 252.719 49.2344 253.414 49.5312C254.109 49.8281 254.691 50.25 255.16 50.7969C255.637 51.3438 255.996 52 256.238 52.7656C256.48 53.5234 256.602 54.3672 256.602 55.2969V56.7031H246.523V54.4531H253.285V54.1953C253.285 53.7266 253.199 53.3086 253.027 52.9414C252.863 52.5664 252.613 52.2695 252.277 52.0508C251.941 51.832 251.512 51.7227 250.988 51.7227C250.543 51.7227 250.16 51.8203 249.84 52.0156C249.52 52.2109 249.258 52.4844 249.055 52.8359C248.859 53.1875 248.711 53.6016 248.609 54.0781C248.516 54.5469 248.469 55.0625 248.469 55.625V56.0938C248.469 56.6016 248.539 57.0703 248.68 57.5C248.828 57.9297 249.035 58.3008 249.301 58.6133C249.574 58.9258 249.902 59.168 250.285 59.3398C250.676 59.5117 251.117 59.5977 251.609 59.5977C252.219 59.5977 252.785 59.4805 253.309 59.2461C253.84 59.0039 254.297 58.6406 254.68 58.1562L256.32 59.9375C256.055 60.3203 255.691 60.6875 255.23 61.0391C254.777 61.3906 254.23 61.6797 253.59 61.9062C252.949 62.125 252.219 62.2344 251.398 62.2344Z" fill="white" fill-opacity="0.5"/>
</g>
<g style="mix-blend-mode:exclusion">
<path d="M107.205 107.146H99.251V101.191H107.205C108.289 101.191 109.168 101.008 109.842 100.642C110.516 100.275 111.006 99.77 111.314 99.1255C111.636 98.4663 111.797 97.7266 111.797 96.9062C111.797 96.0273 111.636 95.2144 111.314 94.4673C111.006 93.7202 110.516 93.1196 109.842 92.6655C109.168 92.1968 108.289 91.9624 107.205 91.9624H102.151V118H94.439V86.0078H107.205C109.769 86.0078 111.973 86.4766 113.819 87.4141C115.679 88.3516 117.107 89.6406 118.104 91.2812C119.1 92.9072 119.598 94.7676 119.598 96.8623C119.598 98.9277 119.1 100.729 118.104 102.268C117.107 103.806 115.679 105.007 113.819 105.871C111.973 106.721 109.769 107.146 107.205 107.146ZM130.87 100.114V118H123.465V94.2256H130.386L130.87 100.114ZM137.901 94.0498L137.769 100.927C137.476 100.898 137.081 100.861 136.583 100.817C136.084 100.773 135.667 100.751 135.33 100.751C134.466 100.751 133.719 100.854 133.089 101.059C132.474 101.25 131.961 101.542 131.551 101.938C131.155 102.319 130.862 102.802 130.672 103.388C130.496 103.974 130.416 104.655 130.43 105.432L129.09 104.553C129.09 102.956 129.244 101.506 129.551 100.202C129.874 98.8838 130.328 97.7485 130.914 96.7964C131.5 95.8296 132.21 95.0898 133.045 94.5771C133.88 94.0498 134.817 93.7861 135.857 93.7861C136.224 93.7861 136.583 93.8081 136.934 93.8521C137.3 93.896 137.623 93.9619 137.901 94.0498ZM138.736 106.354V105.893C138.736 104.15 138.985 102.546 139.483 101.081C139.981 99.6016 140.713 98.3198 141.68 97.2358C142.647 96.1519 143.841 95.3096 145.262 94.709C146.683 94.0938 148.323 93.7861 150.184 93.7861C152.059 93.7861 153.707 94.0938 155.127 94.709C156.563 95.3096 157.764 96.1519 158.731 97.2358C159.698 98.3198 160.43 99.6016 160.928 101.081C161.426 102.546 161.675 104.15 161.675 105.893V106.354C161.675 108.083 161.426 109.687 160.928 111.167C160.43 112.631 159.698 113.913 158.731 115.012C157.764 116.096 156.57 116.938 155.149 117.539C153.729 118.139 152.088 118.439 150.228 118.439C148.367 118.439 146.719 118.139 145.284 117.539C143.848 116.938 142.647 116.096 141.68 115.012C140.713 113.913 139.981 112.631 139.483 111.167C138.985 109.687 138.736 108.083 138.736 106.354ZM146.141 105.893V106.354C146.141 107.248 146.207 108.083 146.338 108.859C146.47 109.636 146.69 110.317 146.998 110.903C147.305 111.474 147.723 111.921 148.25 112.243C148.777 112.565 149.437 112.727 150.228 112.727C151.004 112.727 151.648 112.565 152.161 112.243C152.688 111.921 153.106 111.474 153.414 110.903C153.721 110.317 153.941 109.636 154.073 108.859C154.205 108.083 154.271 107.248 154.271 106.354V105.893C154.271 105.029 154.205 104.216 154.073 103.454C153.941 102.678 153.721 101.997 153.414 101.411C153.106 100.81 152.688 100.341 152.161 100.004C151.634 99.6675 150.975 99.499 150.184 99.499C149.407 99.499 148.755 99.6675 148.228 100.004C147.715 100.341 147.305 100.81 146.998 101.411C146.69 101.997 146.47 102.678 146.338 103.454C146.207 104.216 146.141 105.029 146.141 105.893ZM177.496 94.2256V99.3672H163.169V94.2256H177.496ZM166.18 88.3149H173.584V110.244C173.584 110.874 173.658 111.364 173.804 111.716C173.951 112.053 174.2 112.294 174.551 112.441C174.917 112.573 175.401 112.639 176.001 112.639C176.426 112.639 176.778 112.631 177.056 112.617C177.334 112.587 177.598 112.551 177.847 112.507V117.802C177.217 118.007 176.558 118.161 175.87 118.264C175.181 118.381 174.449 118.439 173.672 118.439C172.09 118.439 170.735 118.19 169.607 117.692C168.494 117.194 167.645 116.411 167.059 115.341C166.473 114.272 166.18 112.88 166.18 111.167V88.3149ZM178.858 106.354V105.893C178.858 104.15 179.107 102.546 179.605 101.081C180.103 99.6016 180.835 98.3198 181.802 97.2358C182.769 96.1519 183.963 95.3096 185.384 94.709C186.805 94.0938 188.445 93.7861 190.306 93.7861C192.181 93.7861 193.829 94.0938 195.25 94.709C196.685 95.3096 197.886 96.1519 198.853 97.2358C199.82 98.3198 200.552 99.6016 201.05 101.081C201.548 102.546 201.797 104.15 201.797 105.893V106.354C201.797 108.083 201.548 109.687 201.05 111.167C200.552 112.631 199.82 113.913 198.853 115.012C197.886 116.096 196.692 116.938 195.271 117.539C193.851 118.139 192.21 118.439 190.35 118.439C188.489 118.439 186.841 118.139 185.406 117.539C183.97 116.938 182.769 116.096 181.802 115.012C180.835 113.913 180.103 112.631 179.605 111.167C179.107 109.687 178.858 108.083 178.858 106.354ZM186.263 105.893V106.354C186.263 107.248 186.329 108.083 186.46 108.859C186.592 109.636 186.812 110.317 187.12 110.903C187.427 111.474 187.845 111.921 188.372 112.243C188.899 112.565 189.559 112.727 190.35 112.727C191.126 112.727 191.771 112.565 192.283 112.243C192.811 111.921 193.228 111.474 193.536 110.903C193.843 110.317 194.063 109.636 194.195 108.859C194.327 108.083 194.393 107.248 194.393 106.354V105.893C194.393 105.029 194.327 104.216 194.195 103.454C194.063 102.678 193.843 101.997 193.536 101.411C193.228 100.81 192.811 100.341 192.283 100.004C191.756 99.6675 191.097 99.499 190.306 99.499C189.529 99.499 188.877 99.6675 188.35 100.004C187.837 100.341 187.427 100.81 187.12 101.411C186.812 101.997 186.592 102.678 186.46 103.454C186.329 104.216 186.263 105.029 186.263 105.893ZM217.618 94.2256V99.3672H203.292V94.2256H217.618ZM206.302 88.3149H213.707V110.244C213.707 110.874 213.78 111.364 213.926 111.716C214.073 112.053 214.322 112.294 214.673 112.441C215.04 112.573 215.523 112.639 216.124 112.639C216.548 112.639 216.9 112.631 217.178 112.617C217.457 112.587 217.72 112.551 217.969 112.507V117.802C217.339 118.007 216.68 118.161 215.992 118.264C215.303 118.381 214.571 118.439 213.794 118.439C212.212 118.439 210.857 118.19 209.729 117.692C208.616 117.194 207.767 116.411 207.181 115.341C206.595 114.272 206.302 112.88 206.302 111.167V88.3149ZM227.857 115.209L234.009 94.2256H241.963L232.405 121.538C232.2 122.138 231.929 122.783 231.592 123.471C231.255 124.174 230.794 124.841 230.208 125.471C229.622 126.101 228.868 126.613 227.945 127.009C227.037 127.404 225.909 127.602 224.561 127.602C223.843 127.602 223.316 127.565 222.979 127.492C222.657 127.434 222.159 127.324 221.485 127.163V121.867C221.675 121.867 221.836 121.867 221.968 121.867C222.115 121.867 222.276 121.867 222.452 121.867C223.243 121.867 223.873 121.787 224.341 121.625C224.825 121.464 225.191 121.23 225.44 120.922C225.704 120.615 225.909 120.241 226.055 119.802L227.857 115.209ZM226.297 94.2256L230.977 110.859L231.79 118.703H226.824L218.365 94.2256H226.297ZM251.368 98.7959V127.141H243.963V94.2256H250.862L251.368 98.7959ZM265.958 105.827V106.289C265.958 108.017 265.76 109.621 265.364 111.101C264.969 112.58 264.383 113.869 263.606 114.968C262.83 116.066 261.863 116.923 260.706 117.539C259.563 118.139 258.238 118.439 256.729 118.439C255.308 118.439 254.085 118.125 253.06 117.495C252.034 116.865 251.177 115.993 250.489 114.88C249.8 113.767 249.244 112.492 248.819 111.057C248.394 109.621 248.057 108.105 247.808 106.508V105.915C248.057 104.201 248.394 102.612 248.819 101.147C249.244 99.6675 249.8 98.3784 250.489 97.2798C251.177 96.1812 252.027 95.3242 253.038 94.709C254.063 94.0938 255.286 93.7861 256.707 93.7861C258.216 93.7861 259.542 94.0718 260.684 94.6431C261.841 95.2144 262.808 96.0347 263.584 97.104C264.375 98.1587 264.969 99.4258 265.364 100.905C265.76 102.385 265.958 104.025 265.958 105.827ZM258.553 106.289V105.827C258.553 104.904 258.487 104.062 258.355 103.3C258.223 102.524 258.011 101.85 257.718 101.279C257.439 100.708 257.066 100.268 256.597 99.9604C256.128 99.6528 255.55 99.499 254.861 99.499C254.07 99.499 253.404 99.6235 252.862 99.8726C252.334 100.107 251.91 100.473 251.587 100.971C251.28 101.455 251.06 102.062 250.928 102.795C250.811 103.513 250.76 104.355 250.774 105.322V107.124C250.745 108.237 250.855 109.218 251.104 110.068C251.353 110.903 251.785 111.555 252.4 112.023C253.016 112.492 253.851 112.727 254.905 112.727C255.608 112.727 256.194 112.565 256.663 112.243C257.132 111.906 257.505 111.445 257.784 110.859C258.062 110.258 258.26 109.57 258.377 108.793C258.494 108.017 258.553 107.182 258.553 106.289ZM277.076 94.2256V118H269.649V94.2256H277.076ZM269.209 88.0952C269.209 87.0405 269.59 86.1763 270.352 85.5024C271.114 84.8286 272.103 84.4917 273.318 84.4917C274.534 84.4917 275.523 84.8286 276.285 85.5024C277.046 86.1763 277.427 87.0405 277.427 88.0952C277.427 89.1499 277.046 90.0142 276.285 90.688C275.523 91.3618 274.534 91.6987 273.318 91.6987C272.103 91.6987 271.114 91.3618 270.352 90.688C269.59 90.0142 269.209 89.1499 269.209 88.0952ZM288.919 99.3013V118H281.514V94.2256H288.458L288.919 99.3013ZM288.04 105.3L286.304 105.344C286.304 103.527 286.524 101.909 286.963 100.488C287.403 99.0522 288.025 97.8364 288.831 96.8403C289.637 95.8442 290.596 95.0898 291.709 94.5771C292.837 94.0498 294.09 93.7861 295.467 93.7861C296.565 93.7861 297.569 93.9473 298.477 94.2695C299.4 94.5918 300.191 95.1118 300.85 95.8296C301.524 96.5474 302.037 97.4995 302.388 98.686C302.754 99.8579 302.938 101.308 302.938 103.037V118H295.489V103.015C295.489 102.062 295.357 101.337 295.093 100.839C294.83 100.327 294.449 99.9751 293.951 99.7847C293.453 99.5942 292.845 99.499 292.127 99.499C291.365 99.499 290.721 99.6455 290.193 99.9385C289.666 100.231 289.241 100.642 288.919 101.169C288.611 101.682 288.384 102.29 288.238 102.993C288.106 103.696 288.04 104.465 288.04 105.3ZM321.988 94.2256H328.711V117.077C328.711 119.274 328.206 121.135 327.195 122.658C326.185 124.196 324.771 125.361 322.955 126.152C321.153 126.958 319.043 127.36 316.626 127.36C315.557 127.36 314.466 127.221 313.353 126.943C312.239 126.679 311.199 126.284 310.232 125.756C309.266 125.229 308.453 124.577 307.793 123.801L310.892 119.45C311.492 120.124 312.247 120.695 313.155 121.164C314.063 121.647 315.132 121.889 316.363 121.889C317.432 121.889 318.326 121.699 319.043 121.318C319.776 120.937 320.333 120.38 320.713 119.648C321.094 118.93 321.285 118.059 321.285 117.033V99.8506L321.988 94.2256ZM306.189 106.398V105.937C306.189 104.135 306.409 102.495 306.849 101.015C307.303 99.521 307.947 98.2393 308.782 97.1699C309.632 96.0859 310.657 95.251 311.858 94.665C313.06 94.0791 314.415 93.7861 315.923 93.7861C317.549 93.7861 318.882 94.1011 319.922 94.731C320.977 95.3462 321.819 96.2104 322.449 97.3237C323.094 98.437 323.592 99.7407 323.943 101.235C324.31 102.714 324.617 104.311 324.866 106.025V106.574C324.617 108.186 324.273 109.709 323.833 111.145C323.409 112.565 322.852 113.825 322.164 114.924C321.475 116.022 320.611 116.887 319.571 117.517C318.545 118.132 317.315 118.439 315.879 118.439C314.385 118.439 313.038 118.139 311.836 117.539C310.65 116.938 309.632 116.096 308.782 115.012C307.947 113.928 307.303 112.653 306.849 111.188C306.409 109.724 306.189 108.127 306.189 106.398ZM313.594 105.937V106.398C313.594 107.292 313.675 108.12 313.836 108.881C314.012 109.643 314.275 110.317 314.627 110.903C314.979 111.474 315.411 111.921 315.923 112.243C316.451 112.565 317.066 112.727 317.769 112.727C318.838 112.727 319.703 112.5 320.362 112.045C321.021 111.591 321.497 110.947 321.79 110.112C322.083 109.277 322.208 108.295 322.164 107.167V105.432C322.193 104.465 322.127 103.615 321.966 102.883C321.805 102.136 321.548 101.513 321.197 101.015C320.86 100.517 320.406 100.144 319.834 99.8945C319.278 99.6309 318.604 99.499 317.813 99.499C317.125 99.499 316.517 99.6602 315.989 99.9824C315.462 100.305 315.022 100.759 314.671 101.345C314.319 101.916 314.048 102.597 313.858 103.388C313.682 104.165 313.594 105.014 313.594 105.937Z" fill="white"/>
</g>
<path d="M1363 15C1363 6.71573 1356.28 0 1348 0H1134V167H1348C1356.28 167 1363 160.284 1363 152V15Z" fill="#00DD02"/>
<path fill-rule="evenodd" clip-rule="evenodd" d="M1203 49C1203 47.8954 1203.9 47 1205 47H1292.5C1293.6 47 1294.5 47.8954 1294.5 49V118.996C1294.5 120.101 1293.6 120.996 1292.5 120.996H1205C1203.9 120.996 1203 120.101 1203 118.996V49ZM1207 51V55.4945H1290.5V51H1207ZM1290.5 59.4945H1235.44V116.996H1290.5V59.4945ZM1231.44 116.996V59.4945H1207V116.996H1231.44Z" fill="white"/>
<path fill-rule="evenodd" clip-rule="evenodd" d="M1209.97 64.8004C1209.97 63.6958 1210.87 62.8004 1211.97 62.8004H1225.97C1227.08 62.8004 1227.97 63.6958 1227.97 64.8004V84.1956C1227.97 85.3001 1227.08 86.1956 1225.97 86.1956H1211.97C1210.87 86.1956 1209.97 85.3001 1209.97 84.1956V64.8004ZM1213.97 66.8004V82.1956H1223.97V66.8004H1213.97ZM1239.58 65.6964C1239.58 64.5918 1240.47 63.6964 1241.58 63.6964H1284.5C1285.61 63.6964 1286.5 64.5918 1286.5 65.6964V111.905C1286.5 113.01 1285.61 113.905 1284.5 113.905H1241.58C1240.47 113.905 1239.58 113.01 1239.58 111.905V65.6964ZM1243.58 67.6964V109.905H1282.5V67.6964H1243.58ZM1209.81 95.9363C1209.81 94.8317 1210.71 93.9363 1211.81 93.9363H1220.73C1221.84 93.9363 1222.73 94.8317 1222.73 95.9363C1222.73 97.0409 1221.84 97.9363 1220.73 97.9363H1211.81C1210.71 97.9363 1209.81 97.0409 1209.81 95.9363ZM1209.81 102.936C1209.81 101.832 1210.71 100.936 1211.81 100.936H1226.35C1227.46 100.936 1228.35 101.832 1228.35 102.936C1228.35 104.041 1227.46 104.936 1226.35 104.936H1211.81C1210.71 104.936 1209.81 104.041 1209.81 102.936ZM1209.81 109.936C1209.81 108.832 1210.71 107.936 1211.81 107.936H1220.73C1221.84 107.936 1222.73 108.832 1222.73 109.936C1222.73 111.041 1221.84 111.936 1220.73 111.936H1211.81C1210.71 111.936 1209.81 111.041 1209.81 109.936Z" fill="white"/>
</svg>
